<svg id="Layer_1" data-name="Layer 1" xmlns="http://www.w3.org/2000/svg" viewBox="0 0 238.16 289.77"><defs><style>.cls-1{font-size:18.43px;fill:#707070;font-family:SFProDisplay-Regular, SF Pro Display;letter-spacing:0.08em;}.cls-2{letter-spacing:0.06em;}.cls-3{letter-spacing:0.08em;}.cls-4{letter-spacing:0.07em;}.cls-5{fill:#112b46;}.cls-11,.cls-12,.cls-5,.cls-6,.cls-7,.cls-8,.cls-9{fill-rule:evenodd;}.cls-26,.cls-6{fill:#ffc8af;}.cls-20,.cls-7{fill:#ec827d;}.cls-17,.cls-8{fill:#fff;}.cls-27,.cls-9{fill:#fbd15b;}.cls-10{fill:#83c9ff;}.cls-11,.cls-28{fill:#56548c;}.cls-12{fill:#f4ae92;}.cls-13{fill:#a3d8ef;}.cls-14{fill:#cee9f4;}.cls-15{fill:#6cc6e5;}.cls-16{fill:#bee1f4;}.cls-18{fill:#606bf1;}.cls-19{fill:#495dea;}.cls-21{fill:#d34c4c;}.cls-22{fill:#00c3b6;}.cls-23{fill:#eee;}.cls-24{fill:#ceccff;}.cls-25{fill:#eaeeef;}.cls-29{fill:#efbc3f;}.cls-30{fill:#ffdc85;}</style></defs><title>Domain Final SVG</title><text class="cls-1" transform="translate(76.17 273.47)">C<tspan class="cls-2" x="14.12" y="0">r</tspan><tspan class="cls-3" x="20.83" y="0">eati</tspan><tspan class="cls-4" x="54.73" y="0">v</tspan><tspan class="cls-3" x="64.84" y="0">es</tspan></text><path class="cls-5" d="M158.61,233.13c-.21,2.84-.47,5.68-.47,5.68h-.61s0-4.27-.67-3.39C156.92,233.08,158.61,233.13,158.61,233.13Z"/><path class="cls-6" d="M149.82,238c-.3,0-.71-.33-1.07-.83.64-.77,1.28-1.53,1.71-2.12,1.36-1.9,3.58-6.1,3.66-8s-1.06-21.68-1.37-24.1-1.22-11.59-1.14-12.11,8.51,3.25,8.51,3.25c-.11.75-1.22,5.49-.78,8.54s1.22,5.07.78,10.06-2.84,13-2,16.78a.36.36,0,0,0,0,.2C155.7,233,154.84,239.64,149.82,238Z"/><path class="cls-5" d="M148.75,237.17c.36.5.77.82,1.07.82,5,1.68,5.88-4.93,8.37-8.33.78,3.61.43,4-.22,4.55s-3,3.36-3.41,5.36-6.74,1.79-7.89,1.37C145.87,240.63,147.32,238.85,148.75,237.17Z"/><path class="cls-6" d="M167.23,211.13c.25,2.21,1.55,19.27,1.33,22.11a54.6,54.6,0,0,1-1.46,6.65,7.46,7.46,0,0,0-.33,3.14c.51,1.45.53,5.79,2.88,4.81s3.91-4,3.43-7.31.09-5,0-6.95,1.22-14.43,1.42-18.84-1.27-6.53-1.38-9.48a72.31,72.31,0,0,1,.78-9.09s-10.14-5.33-9.31,1.1S167,208.92,167.23,211.13Z"/><path class="cls-5" d="M166.35,243.18c.16,3,1,5.64,3.3,4.66s3.91-4,3.43-7.31c-1.26,3.68-6.1,3.53-6-.61A21.08,21.08,0,0,0,166.35,243.18Z"/><path class="cls-7" d="M151,169.66V197c0,6.75,1.75,29.49,1.75,29.49a9.34,9.34,0,0,0,6.78-.31c.49-5.88,2.22-15.54,2.51-20.62s-2-5.93-1.05-9.64,3.56-23.58,3.56-23.58Z"/><path class="cls-7" d="M162,174s1.76,22.08,2.51,24.89,1.3,13.58,1.83,17.3.61,14.41.61,14.41c1.34,4.37,6.88.67,6.88.67,2.31-13.68.71-20.48.61-24.49s1.89-14.5,1.49-18.86-.86-13.42,0-15.1,1.83-4.48,2.12-9.52c-6.53-2.48-16.78.31-16.78.31Z"/><path class="cls-8" d="M151.93,125.94c5.79-.29,15.61,6.55,20.06,12.16s1.69,11.69.19,17.69.82,21.05.83,22.49c-6.83,4.58-19.59,5.16-21.48-1.61-.81-7.37.84-15,.91-19.37C152.16,148,144.29,128.72,151.93,125.94Z"/><path class="cls-9" d="M157,127.28c-3,13.08-2.06,27.21-1.39,32.75s.79,24,.79,24c-4.46-2.25-6.59-6.42-6.71-8.31s1.62-17.89,1.5-19.19-2.39-13.66-2.15-20.34,2.76-7.7,2.76-7.7l5.72-2.57Z"/><path class="cls-9" d="M165.36,128.66c-4.45,9.51-2.3,18.24-2.11,26.07s4.27,29.82,4.27,29.82c7.8-1.94,8.73-7.17,10.24-9.84,3.6-18.3-.94-33.19-4.33-38.68C170.76,131.72,165.36,128.66,165.36,128.66Z"/><path class="cls-10" d="M134,158.27a4.38,4.38,0,0,0,3.93,0,1.2,1.2,0,0,0,0-2.27,4.32,4.32,0,0,0-3.93,0A1.2,1.2,0,0,0,134,158.27Z"/><path class="cls-9" d="M170.28,136.16c-5.39,2.65-5.9,18.53-10,22.49-2.34,2.25-11.7.45-14.9.52-1.21,2.81.45,6.21.45,6.21,17.84.88,20,1.42,24.51-7.24C173.86,151.36,177.5,134.36,170.28,136.16Z"/><path class="cls-9" d="M151.79,128.47c-3.45,1.83-5.09,16.26-9.22,19.88-2.34,2-3.38,3.92-8.14,6.3-1.25,2.56,2.15,4.17,2.15,4.17,9.51-3.6,11.68-6.71,14.85-11.49C155.37,141.38,159,126.82,151.79,128.47Z"/><path class="cls-6" d="M136.38,158.3a17.45,17.45,0,0,1-1.86,2.26c-.82.94-2.14,2.55-2.54,2.15s.37-2,.37-2a26.87,26.87,0,0,0-2.87,3.09c-.44.79-.19-1.46.43-2.5-1.56,2.38-1.93,2.91-2.06,2.32s1.17-3.82,1-3.5c-1.83,2.72-2.49,3.09-2.3,1.82a7.76,7.76,0,0,1,3-4c-3.13,2-3.35,1.83-2.56.91a13.49,13.49,0,0,1,7.54-3.66C137,157.56,136.38,158.3,136.38,158.3Z"/><path class="cls-6" d="M134.3,163.29c1-1.57,2.48-3.37,4.35-3.88a7.06,7.06,0,0,1,4,.33,32.86,32.86,0,0,1,3.5.94,8.75,8.75,0,0,1,.72,3.31,3.14,3.14,0,0,1-.69.15,24.47,24.47,0,0,1-3.28.48,10.87,10.87,0,0,1-2.55,0c.27.08.61.22.61.5a.52.52,0,0,1-.41.51c-1.59.41-3-1.53-4-2.44C136.68,163.32,133,165.32,134.3,163.29Z"/><path class="cls-11" d="M151.06,112.6a4.25,4.25,0,0,0-.21.49c-.29.86-.09,1.89-.3,2.78-.33,1.43-1.34,2.55-1.83,3.93-1.75,5.06,3.28,7.89,7.64,7.52a4.22,4.22,0,0,0,2.2-.71c2.11-1.64-.27-4.21-1.27-5.71a8.62,8.62,0,0,1-1.75-3.75c-.07-1.22.57-2.26.32-3.56A2.59,2.59,0,0,0,151.06,112.6Z"/><path class="cls-6" d="M164.06,122.83s-1.44,5,1.83,7.06c.09,1.22-3.34,6.35-6.8,5.49-2-.52-3.05-3.39-3.05-3.39.32-1.88.72-3.74,1.22-5.57Z"/><path class="cls-6" d="M152.42,112.76a16.52,16.52,0,0,0-.55,5.6c.33,2.45.55,7.32,2.72,8.88s5.28-.25,7.32-2a12.19,12.19,0,0,0,4.27-8.87c0-3.9-1.48-8.68-7.1-8.44S152.42,112.76,152.42,112.76Z"/><path class="cls-11" d="M156.36,110.35c-1.46,1.79-.77,4,1,5.28,1.22.91,2.33,1.48,3.16,2.88a9.42,9.42,0,0,1,1.26,4.27c.06,1.22.08,2.47.14,3.7,0,.58.06,1.36.67,1.52a5.13,5.13,0,0,0,2.8-.71,10.21,10.21,0,0,0,2.7-2.33,10.76,10.76,0,0,0,2.54-6.42c.15-4.35-2.33-7.16-5.49-9.69S158.94,107.19,156.36,110.35Z"/><path class="cls-11" d="M154.44,108.17h0c1.1-.74,5.55-2.12,5.57.15s-3.32,4.55-5.08,5.57a18.76,18.76,0,0,0-2.29,1.34c-.92.71-1,2.08-1.82,2.69-1.22-1.22-.93-4.11-.43-5.58C151.11,110.39,152.81,109.28,154.44,108.17Z"/><path class="cls-12" d="M156.92,127.78c2.3-.2,4.81-2.44,4.81-2.44s-.52,2.67-5.1,3.66Z"/><polygon class="cls-13" points="184.13 168.26 184.09 182.79 157.72 198.11 157.76 183.59 184.13 168.26"/><polygon class="cls-14" points="65.49 183.59 65.44 198.11 38.91 182.79 38.94 168.26 65.49 183.59"/><path class="cls-15" d="M134,203.77l0-14.52c0-2.05,1.35-4.1,4-5.67,5.41-3.15,14.23-3.15,19.67,0l0,14.56c-5.45-3.15-14.26-3.15-19.67,0C135.35,199.67,134,201.72,134,203.77Z"/><path class="cls-13" d="M89.28,189.33l0,14.52c0-2.08-1.36-4.16-4.11-5.74-5.45-3.15-14.26-3.15-19.68,0l0-14.53c5.42-3.15,14.22-3.15,19.68,0C87.92,185.17,89.28,187.25,89.28,189.33Z"/><polygon class="cls-14" points="111.77 210.31 111.73 224.84 85.19 209.52 85.23 194.99 111.77 210.31"/><polygon class="cls-13" points="138.14 194.98 138.1 209.51 111.73 224.84 111.77 210.31 138.14 194.98"/><path class="cls-16" d="M184.13,168.26l-26.37,15.32c-5.45-3.15-14.27-3.15-19.67,0s-5.39,8.26,0,11.4L111.8,210.33,85.26,195c5.42-3.14,5.39-8.25-.07-11.4s-14.26-3.15-19.68,0L38.94,168.26l72.36-42.08Z"/><polygon class="cls-17" points="131.9 155.29 134.71 158.5 136.09 156.12 131.9 155.29"/><polygon class="cls-18" points="131.9 155.29 132.67 156.18 133.05 155.52 131.9 155.29"/><path class="cls-18" d="M136.09,156.11a.72.72,0,0,0-.71.07,2.17,2.17,0,0,0-1,1.7.67.67,0,0,0,.29.61l20.49,11.91a.7.7,0,0,1-.29-.61,2.18,2.18,0,0,1,1-1.7.7.7,0,0,1,.7-.07Z"/><path class="cls-19" d="M155.89,168.09c.54-.31,1-.06,1,.56a2.18,2.18,0,0,1-1,1.7c-.54.31-1,.06-1-.56A2.14,2.14,0,0,1,155.89,168.09Z"/><polygon class="cls-17" points="141.66 156.97 144.47 160.19 145.85 157.79 141.66 156.97"/><polygon class="cls-20" points="141.66 156.97 142.43 157.86 142.82 157.2 141.66 156.97"/><path class="cls-20" d="M145.85,157.79a.71.71,0,0,0-.7.07,2.12,2.12,0,0,0-1,1.69.68.68,0,0,0,.28.61l13.23,7.7a.72.72,0,0,1-.29-.61,2.18,2.18,0,0,1,1-1.7.7.7,0,0,1,.7-.06Z"/><path class="cls-21" d="M158.38,165.56c.54-.31,1-.06,1,.56a2.21,2.21,0,0,1-1,1.7c-.55.31-1,.06-1-.56A2.18,2.18,0,0,1,158.38,165.56Z"/><path class="cls-19" d="M128.56,161.48a.34.34,0,0,1-.21-.29v2.57a.34.34,0,0,0,.21.29l2.89,1.67v-2.57Z"/><polygon class="cls-22" points="135.3 160.91 135.29 163.48 131.44 165.71 131.45 163.15 135.3 160.91"/><path class="cls-18" d="M135.3,160.94l-3.85,2.24-2.89-1.67c-.27-.16-.28-.41,0-.57l2.86-1.67a1.15,1.15,0,0,1,1,0Z"/><polygon class="cls-23" points="137.31 162.07 137.31 164.64 133.46 166.88 133.46 164.31 137.31 162.07"/><polygon class="cls-24" points="133.46 164.31 133.46 166.88 131.44 165.71 131.45 163.15 133.46 164.31"/><polygon class="cls-17" points="137.31 162.07 133.46 164.31 131.45 163.15 135.3 160.91 137.31 162.07"/><path class="cls-21" d="M140.2,164.31,137.34,166a1.15,1.15,0,0,1-1,0l-2.89-1.67v2.57l2.89,1.67a1.08,1.08,0,0,0,1,0l2.86-1.67a.33.33,0,0,0,.2-.28V164A.3.3,0,0,1,140.2,164.31Z"/><path class="cls-20" d="M140.2,163.74c.28.16.28.41,0,.57L137.34,166a1.15,1.15,0,0,1-1,0l-2.89-1.67,3.85-2.24Z"/><path class="cls-17" d="M101.47,139.67,60.36,163.41c-1,.55-.83,1.5.27,2.14l23.78,13.74a4.11,4.11,0,0,0,3.71.16l41.11-23.74c1-.55.82-1.5-.27-2.14l-23.79-13.74A4.12,4.12,0,0,0,101.47,139.67Z"/><polygon class="cls-25" points="105.08 147.36 107.77 145.8 123.51 154.88 120.81 156.44 105.08 147.36"/><polygon class="cls-25" points="99.3 150.7 101.99 149.14 117.73 158.22 115.03 159.78 99.3 150.7"/><polygon class="cls-25" points="93.51 154.03 96.21 152.48 111.94 161.56 109.25 163.12 93.51 154.03"/><polygon class="cls-25" points="87.73 157.38 90.43 155.82 106.16 164.9 103.46 166.46 87.73 157.38"/><polygon class="cls-25" points="81.95 160.71 84.65 159.15 100.38 168.24 97.68 169.8 81.95 160.71"/><polygon class="cls-26" points="105.08 147.36 107.77 145.8 111.7 148.07 109 149.63 105.08 147.36"/><polygon class="cls-27" points="99.3 150.7 101.99 149.14 111.16 154.43 108.46 155.99 99.3 150.7"/><polygon class="cls-18" points="93.51 154.03 96.21 152.48 102.9 156.34 100.2 157.9 93.51 154.03"/><polygon class="cls-28" points="87.73 157.38 90.43 155.82 101.78 162.37 99.08 163.93 87.73 157.38"/><polygon class="cls-20" points="81.95 160.71 84.65 159.15 98.03 166.88 95.33 168.44 81.95 160.71"/><polygon class="cls-25" points="93.93 170.65 85.19 175.7 86.32 176.36 95.06 171.31 93.93 170.65"/><polygon class="cls-25" points="91.31 169.14 82.56 174.19 83.7 174.84 92.44 169.79 91.31 169.14"/><polygon class="cls-25" points="88.69 167.62 79.93 172.67 81.07 173.33 89.82 168.28 88.69 167.62"/><polygon class="cls-25" points="86.06 166.11 77.31 171.16 78.45 171.82 87.2 166.77 86.06 166.11"/><polygon class="cls-25" points="83.44 164.6 74.69 169.65 75.83 170.3 84.58 165.25 83.44 164.6"/><polygon class="cls-25" points="80.82 163.08 72.07 168.13 73.21 168.79 81.95 163.74 80.82 163.08"/><polygon class="cls-25" points="75.57 160.05 69.48 163.57 70.62 164.22 76.71 160.71 75.57 160.05"/><polygon class="cls-25" points="78.2 161.57 69.44 166.62 70.58 167.28 79.33 162.22 78.2 161.57"/><polygon class="cls-25" points="105.02 144.21 79.2 159.13 80.33 159.78 106.16 144.87 105.02 144.21"/><polygon class="cls-27" points="103.73 176.44 122.12 165.82 132.59 171.86 114.19 182.48 103.73 176.44"/><polygon class="cls-29" points="114.19 182.48 116.23 173.04 132.59 171.86 114.19 182.48"/><polygon class="cls-30" points="122.12 165.82 120.03 175.24 103.73 176.44 122.12 165.82"/></svg>