<svg id="Layer_1" data-name="Layer 1" xmlns="http://www.w3.org/2000/svg" viewBox="0 0 238.16 289.77"><defs><style>.cls-1,.cls-19{fill:#56548c;}.cls-2{fill:#7181f4;}.cls-3{fill:#495dea;}.cls-4{fill:#606bf1;}.cls-13,.cls-14,.cls-5{fill:#fff;}.cls-6{fill:#ec827d;}.cls-7{fill:#fbd15b;}.cls-8{fill:#ceccff;}.cls-9{fill:#efbc3f;}.cls-10{fill:#ffdc85;}.cls-11{fill:#d86868;}.cls-12{fill:#f49898;}.cls-13,.cls-14{isolation:isolate;font-family:OpenSans-Light, Open Sans;font-weight:300;}.cls-13{font-size:7.4px;}.cls-14{font-size:8.8px;}.cls-15{fill:#ffc8af;}.cls-15,.cls-16,.cls-17,.cls-18,.cls-19{fill-rule:evenodd;}.cls-16{fill:#112b46;}.cls-17{fill:#303072;}.cls-18{fill:#46467f;}.cls-20{font-size:18.43px;fill:#707070;font-family:SFProDisplay-Regular, SF Pro Display;letter-spacing:0.08em;}</style></defs><title>Domain Final SVG</title><path class="cls-1" d="M120.53,159.23c-2.08,3.24-1.59,5.53-1,5.79,12.35,5.5,20,3.83,21.92,3.19-2-2.86-4-5.59-6.29-8.7C129.09,160.62,120.53,159.23,120.53,159.23Z"/><path class="cls-2" d="M58.41,116.6l0-13.62c0,2,1.28,3.9,3.85,5.38l0,13.62C59.69,120.51,58.41,118.54,58.41,116.6Z"/><polygon class="cls-2" points="62.46 137.1 62.42 150.71 37.54 136.35 37.57 122.73 62.46 137.1"/><path class="cls-3" d="M84.77,142.48l0,13.61c0-1.94-1.28-3.89-3.85-5.38-5.11-3-13.38-3-18.46,0l0-13.61c5.08-2.95,13.34-2.95,18.46,0C83.49,138.58,84.77,140.52,84.77,142.48Z"/><polygon class="cls-2" points="105.86 162.15 105.82 175.76 80.93 161.4 80.97 147.78 105.86 162.15"/><polygon class="cls-3" points="173.69 122.73 173.65 136.35 105.82 175.76 105.86 162.15 173.69 122.73"/><path class="cls-4" d="M173.69,122.73l-67.83,39.45L81,147.81c5.08-2.95,5-7.74,0-10.69s-13.38-3-18.46,0L37.57,122.76l24.72-14.37c-5.11-3-5.14-7.73,0-10.68s13.33-2.95,18.44,0L105.4,83.34Z"/><polygon class="cls-5" points="104.68 92.18 134.47 109.38 96.86 131.09 67.06 113.89 104.68 92.18"/><path class="cls-6" d="M96.61,114l-4.11-6.55a15.15,15.15,0,0,0-4.44,1.61Z"/><path class="cls-3" d="M96.61,114l8.58-4.93c-3.4-2-8.39-2.5-12.67-1.61Z"/><path class="cls-6" d="M88.07,119,96.64,114l-12-.88C84.14,115.29,85.42,117.44,88.07,119Z"/><path class="cls-4" d="M100.73,120.58a15.19,15.19,0,0,0,4.43-1.61c4.69-2.71,4.69-7.17,0-9.88L96.59,114Z"/><path class="cls-7" d="M100.73,120.58,96.61,114,88,119C91.46,120.93,96.45,121.47,100.73,120.58Z"/><path class="cls-8" d="M120.9,113.3a.48.48,0,0,1-.17,0l-22.42-13a.32.32,0,0,1,0-.47.33.33,0,0,1,.37-.1l22.42,13a.34.34,0,0,1,.13.46h0A.34.34,0,0,1,120.9,113.3Z"/><path class="cls-8" d="M123.54,111.78a.48.48,0,0,1-.17,0L100.93,98.79a.34.34,0,0,1-.2-.44.34.34,0,0,1,.43-.2l.11.07,22.42,12.94a.33.33,0,0,1,.12.46h0A.33.33,0,0,1,123.54,111.78Z"/><path class="cls-8" d="M126.17,110.26a.48.48,0,0,1-.17-.05L103.58,97.26a.34.34,0,0,1,.33-.59h0l22.42,13a.34.34,0,0,1,.13.46A.36.36,0,0,1,126.17,110.26Z"/><path class="cls-9" d="M128.44,132.52v4.17a1.86,1.86,0,0,1-1.09,1.53v-4.17A1.87,1.87,0,0,0,128.44,132.52Z"/><path class="cls-10" d="M86.36,136.67v-4.18a1.9,1.9,0,0,0,1.15,1.56v4.17A1.87,1.87,0,0,1,86.36,136.67Z"/><polygon class="cls-9" points="127.35 134.05 127.33 138.22 110.12 148.22 110.13 144.05 127.35 134.05"/><polygon class="cls-10" points="104.82 144.05 104.8 148.23 87.47 138.22 87.49 134.05 104.82 144.05"/><path class="cls-10" d="M110.14,144.05v4.18a5.93,5.93,0,0,1-5.32,0v-4.18a5.91,5.91,0,0,0,5.34,0Z"/><path class="cls-7" d="M127.33,131c1.47.85,1.48,2.22,0,3.08l-17.2,10a5.87,5.87,0,0,1-5.32,0L87.48,134c-1.48-.85-1.48-2.23,0-3.08l17.21-10a5.83,5.83,0,0,1,5.33,0Z"/><path class="cls-11" d="M163.11,120.65v4.17a1.85,1.85,0,0,1-1.1,1.53v-4.17A1.88,1.88,0,0,0,163.11,120.65Z"/><path class="cls-12" d="M121,124.8v-4.17a1.9,1.9,0,0,0,1.15,1.56v4.17A1.9,1.9,0,0,1,121,124.8Z"/><polygon class="cls-11" points="162.01 122.19 162 126.36 144.79 136.36 144.8 132.19 162.01 122.19"/><polygon class="cls-12" points="139.48 132.19 139.47 136.36 122.14 126.36 122.15 122.19 139.48 132.19"/><path class="cls-11" d="M144.79,132.18v4.18a5.93,5.93,0,0,1-5.32,0v-4.18a5.85,5.85,0,0,0,5.32,0Z"/><path class="cls-6" d="M162,119.1c1.47.86,1.48,2.23,0,3.09l-17.21,10a5.85,5.85,0,0,1-5.31,0l-17.33-10c-1.48-.85-1.49-2.23,0-3.09l17.2-10a5.89,5.89,0,0,1,5.33,0Z"/><text class="cls-13" transform="matrix(-0.87, -0.5, 0.87, -0.5, 118.93, 135.49)">DATA</text><text class="cls-14" transform="matrix(-0.87, -0.5, 0.87, -0.5, 155.32, 124.79)">DATA</text><path class="cls-12" d="M142.13,132.82V137a5.25,5.25,0,0,1-2.66-.63v-4.18A5.39,5.39,0,0,0,142.13,132.82Z"/><path class="cls-9" d="M110.14,144.05v4.18a5.46,5.46,0,0,1-2.66.63v-4.17A5.61,5.61,0,0,0,110.14,144.05Z"/><path class="cls-15" d="M148.17,113.65c-3.33,1.48-6.39,12.58-4.58,16.48s4.72,4.21,8.38,3.23,7.79-5.76,9.14-10.21C163,117.08,157.64,109.45,148.17,113.65Z"/><path class="cls-16" d="M144.27,247.52v.87c-1.75,1-5.67.48-6.7,0-.67-1-2.5-.75-3.52-.34-3.93.34-5.36-.24-6.67-1.2a4,4,0,0,1-1.72-3.09C130.33,244.83,144.27,247.52,144.27,247.52Z"/><path class="cls-16" d="M137.57,240.73a69.32,69.32,0,0,1-6.82,1.55c-2.53.36-4.34-.06-4.94.85s.72,3.25,2.95,4,6.82-.12,8.51.24,6,1.14,7,.09,0-6.19,0-6.19Z"/><path class="cls-16" d="M161.31,235.09l-7.66-8.58c-3.06-.87-6.29-1.06-5.87,1.77.36,2.5,4.35,3.59,7.09,6l2.53,2.24c1.82,1.61,4.14.21,3.91-1.46"/><path class="cls-15" d="M154.06,127.59a7.1,7.1,0,0,1-.95.87,17.22,17.22,0,0,1-6.33,3.09c-.39.1-.8.19-1.24.27l.2,2.22c2.58.71,5.1-.39,6.86-.88,1.33-.37,3.39-.71,3.39-2.11l-1.9-3.46Z"/><path class="cls-16" d="M157.4,236.56l-2.52-2.24c-2.74-2.43-6.73-3.53-7.09-6h0a3,3,0,0,0,0,.85c.36,2.5,4.35,3.59,7.09,6l2.52,2.24c2.15,1.9,4.41.57,3.91-2.29.22,1.65-2.09,3-3.91,1.44"/><path class="cls-17" d="M161.27,175.46c2.65,3.74-4,14.11-2.16,27,1.23,8.76,3.62,23.44,3,31.76-.11,1.5-6,2.59-7.62-4.73-2.73-12.43-6.13-20.19-7.31-29.84l.64-28Z"/><path class="cls-18" d="M152.8,174.09c.73,11.63-7.6,25.86-7.05,35.25.58,9.68-.48,21.45-.51,31.93,0,0-8.57,4-8.94-2.22-1.25-20.52-5.19-26.92.12-64.48Z"/><path class="cls-19" d="M137.3,162.82a119.31,119.31,0,0,1,1.79-22.25,15.39,15.39,0,0,1,3.65-3.73l2.74-3.31c1.93-.47,3.85-1,5.76-1.59a16.12,16.12,0,0,1,9.43,0h0c4.05,1.72,4.82,4.44,3,9.65.05.24-3.55,14.58-4,19,0,.43,3.07,12.05,3.74,16.79,0,0-3,2.7-3.77,3.38-6,7.43-25.63-1.58-26.36-5.55C133,173.68,135.43,169.1,137.3,162.82Z"/><path class="cls-16" d="M146.93,114.35a6.92,6.92,0,0,0-1.59,2.86,13.5,13.5,0,0,0-.5,4.24c-.05,1-.46,1.55-.25,2s1.42-2.22,2.58-2.5,1,3.22-1.55,4.21c-1.09,1.66-.22,5.72.39,6.63s4.37,2,7.56.91,5.28-4.33,7.91-8.54,0-7.25,0-7.25c1.3-2.86-8.57-6.58-12.65-6.69C146.29,110.31,146.93,114.35,146.93,114.35Z"/><path class="cls-1" d="M151.58,143.38c1.27-4.41-3.61-9.82-8-8.38-1.55.51-2.86,1-3.68,2.39-2,3.39-2.36,15-4,22l-.78.15c2.67,3.59,3.93,5.41,6.29,8.7a5.38,5.38,0,0,0,.51-.2C142.66,167.64,151.56,143.44,151.58,143.38Z"/><path class="cls-17" d="M135.14,168.94a37.85,37.85,0,0,0,6.79-.92s5.42-11.62,6.89-17.24c0,0-1.95,11.95-3.28,15.84s-3.17,5.4-6,5.06a40.63,40.63,0,0,1-5-.91Z"/><text class="cls-20" transform="translate(46.28 273.47)">Public Relations</text></svg>