<svg id="Layer_1" data-name="Layer 1" xmlns="http://www.w3.org/2000/svg" viewBox="0 0 238.16 289.77"><defs><style>.cls-1{font-size:18.43px;fill:#707070;font-family:SFProDisplay-Regular, SF Pro Display;letter-spacing:0.08em;}.cls-2{fill:#efbc3f;}.cls-3{fill:#ffdc85;}.cls-4{fill:#f2ad91;}.cls-16,.cls-17,.cls-18,.cls-19,.cls-4{fill-rule:evenodd;}.cls-5{fill:#fbd15b;}.cls-6{fill:#a5b7c6;}.cls-7{fill:#b6c7d3;}.cls-8{fill:#878cf0;}.cls-17,.cls-9{fill:#606bf1;}.cls-10,.cls-19{fill:#ec827d;}.cls-11,.cls-18{fill:#56548c;}.cls-12,.cls-16{fill:#112b46;}.cls-13{fill:#ccd9e2;}.cls-14{fill:#bee1f4;}.cls-15{fill:#eee;}</style></defs><title>Domain Final SVG</title><text class="cls-1" transform="translate(62.46 273.47)">Sponsorship</text><path class="cls-2" d="M166.82,115.69l0,13.05c0,1.85-1.22,3.69-3.63,5.1l0-13.06C165.6,119.37,166.81,117.54,166.82,115.69Z"/><path class="cls-3" d="M76.55,128.66l0-13c0,1.86,1.23,3.73,3.69,5.16l0,13C77.77,132.41,76.55,130.54,76.55,128.66Z"/><path class="cls-4" d="M98.68,176.88s.64.22,2.15.85a15.53,15.53,0,0,0,6.76.52c2-.32,4.81-.77,4.27-1.51s-10.72-3.29-11.14-3.08S98.68,176.88,98.68,176.88Z"/><polygon class="cls-3" points="122.02 172.34 121.98 185.39 56.54 147.6 56.57 134.55 122.02 172.34"/><polygon class="cls-2" points="187.04 134.55 187 147.61 121.98 185.39 122.02 172.34 187.04 134.55"/><path class="cls-5" d="M163.13,110.54c4.89,2.83,4.93,7.42.05,10.24L187,134.55l-65,37.79L56.59,134.53l23.69-13.77c-4.9-2.83-4.93-7.41-.06-10.25s12.79-2.83,17.68,0l23.69-13.76,23.86,13.77C150.31,107.71,158.23,107.71,163.13,110.54Z"/><path class="cls-6" d="M122.16,131.77v1.36a3.56,3.56,0,0,1-2.12,3,11.31,11.31,0,0,1-10.29,0,3.62,3.62,0,0,1-2.15-3v-1.36a3.6,3.6,0,0,0,2.15,3,11.31,11.31,0,0,0,10.29,0A3.59,3.59,0,0,0,122.16,131.77Z"/><path class="cls-7" d="M120,128.77c2.85,1.64,2.87,4.31,0,6a11.33,11.33,0,0,1-10.3,0c-2.85-1.64-2.86-4.31,0-6A11.34,11.34,0,0,1,120,128.77Z"/><path class="cls-7" d="M132.05,87.62a1.67,1.67,0,0,0-1.68.17l-36.28,21a5.18,5.18,0,0,0-2.36,4.09l0,27.15a1.66,1.66,0,0,0,.69,1.51l2.35,1.37a1.65,1.65,0,0,1-.69-1.52l-.06-27.14a5.23,5.23,0,0,1,2.36-4.09l36.29-21a1.62,1.62,0,0,1,1.67-.16Z"/><path class="cls-6" d="M132.72,89.15c1.3-.75,2.36-.14,2.36,1.36l.06,27.14a5.21,5.21,0,0,1-2.35,4.08l-36.32,21c-1.31.75-2.36.14-2.37-1.35l0-27.15a5.2,5.2,0,0,1,2.35-4.09Z"/><polygon class="cls-8" points="133.43 95.89 133.42 90.67 132.41 91.25 130.22 92.52 100.98 109.4 95.71 112.44 95.71 114.19 95.71 114.2 95.74 127.09 95.76 137.85 118.9 124.49 122.5 122.41 133.47 116.08 133.43 95.89"/><polygon class="cls-9" points="100.98 109.4 95.76 112.42 95.76 114.06 133.42 92.32 133.42 90.67 100.98 109.4"/><path class="cls-9" d="M100.15,116.14A2.62,2.62,0,0,1,99,118.2c-.66.38-1.19.07-1.19-.68A2.63,2.63,0,0,1,99,115.46C99.62,115.08,100.15,115.39,100.15,116.14Z"/><path class="cls-10" d="M100.15,120.33A2.64,2.64,0,0,1,99,122.39c-.66.38-1.19.07-1.19-.69A2.66,2.66,0,0,1,99,119.64C99.62,119.26,100.15,119.57,100.15,120.33Z"/><path class="cls-5" d="M100.15,124.47A2.62,2.62,0,0,1,99,126.53c-.66.38-1.19.07-1.19-.68A2.63,2.63,0,0,1,99,123.79C99.62,123.4,100.15,123.73,100.15,124.47Z"/><path class="cls-10" d="M100,138.27a1.89,1.89,0,0,1-.85,1.48c-.47.27-.86.05-.86-.5a1.87,1.87,0,0,1,.86-1.47C99.61,137.5,100,137.72,100,138.27Z"/><polygon class="cls-11" points="148.26 139.32 136.64 132.61 152.12 123.67 163.74 130.38 148.26 139.32"/><polygon class="cls-12" points="148.26 139.83 148.26 139.32 163.74 130.38 163.74 130.89 148.26 139.83"/><polygon class="cls-12" points="148.26 139.32 148.26 139.83 136.63 133.12 136.63 132.61 148.26 139.32"/><polygon class="cls-13" points="106.79 147.46 106.79 148.46 118.15 155.06 118.14 154.06 106.79 147.46"/><polygon class="cls-6" points="118.14 154.06 118.15 155.06 143.28 140.55 143.27 139.55 118.14 154.06"/><polygon class="cls-7" points="106.79 147.46 118.14 154.06 143.27 139.55 131.92 132.95 106.79 147.46"/><polygon class="cls-13" points="130.38 134.61 130.39 135.11 131.96 136.03 131.96 135.53 130.38 134.61"/><polygon class="cls-6" points="131.96 135.53 131.96 136.03 133.51 135.13 133.51 134.63 131.96 135.53"/><polygon class="cls-7" points="130.38 134.61 131.96 135.53 133.51 134.63 131.93 133.72 130.38 134.61"/><polygon class="cls-13" points="128.4 135.76 128.4 136.26 129.97 137.17 129.97 136.67 128.4 135.76"/><polygon class="cls-6" points="129.97 136.67 129.97 137.17 131.52 136.28 131.52 135.78 129.97 136.67"/><polygon class="cls-7" points="128.4 135.76 129.97 136.67 131.52 135.78 129.94 134.87 128.4 135.76"/><polygon class="cls-13" points="126.41 136.91 126.42 137.41 127.98 138.32 127.98 137.82 126.41 136.91"/><polygon class="cls-6" points="127.98 137.82 127.98 138.32 129.53 137.43 129.53 136.93 127.98 137.82"/><polygon class="cls-7" points="126.41 136.91 127.98 137.82 129.53 136.93 127.96 136.01 126.41 136.91"/><polygon class="cls-13" points="124.43 138.06 124.43 138.55 126 139.47 126 138.96 124.43 138.06"/><polygon class="cls-6" points="126 138.96 126 139.47 127.55 138.57 127.55 138.07 126 138.96"/><polygon class="cls-7" points="124.43 138.06 126 138.96 127.55 138.07 125.98 137.16 124.43 138.06"/><polygon class="cls-13" points="122.44 139.2 122.44 139.7 124.01 140.61 124.01 140.12 122.44 139.2"/><polygon class="cls-6" points="124.01 140.12 124.01 140.61 125.56 139.72 125.56 139.22 124.01 140.12"/><polygon class="cls-7" points="122.44 139.2 124.01 140.12 125.56 139.22 123.99 138.31 122.44 139.2"/><polygon class="cls-13" points="120.45 140.34 120.46 140.84 122.03 141.76 122.03 141.26 120.45 140.34"/><polygon class="cls-6" points="122.03 141.26 122.03 141.76 123.58 140.87 123.58 140.37 122.03 141.26"/><polygon class="cls-7" points="120.45 140.34 122.03 141.26 123.58 140.37 122 139.45 120.45 140.34"/><polygon class="cls-13" points="118.47 141.49 118.47 142 120.04 142.9 120.04 142.41 118.47 141.49"/><polygon class="cls-6" points="120.04 142.41 120.04 142.9 121.59 142.01 121.59 141.51 120.04 142.41"/><polygon class="cls-7" points="118.47 141.49 120.04 142.41 121.59 141.51 120.02 140.6 118.47 141.49"/><polygon class="cls-13" points="116.49 142.64 116.49 143.14 118.05 144.06 118.05 143.55 116.49 142.64"/><polygon class="cls-6" points="118.05 143.55 118.05 144.06 119.61 143.16 119.61 142.66 118.05 143.55"/><polygon class="cls-7" points="116.49 142.64 118.05 143.55 119.61 142.66 118.04 141.74 116.49 142.64"/><polygon class="cls-13" points="114.5 143.79 114.5 144.28 116.07 145.2 116.07 144.7 114.5 143.79"/><polygon class="cls-6" points="116.07 144.7 116.07 145.2 117.62 144.3 117.62 143.8 116.07 144.7"/><polygon class="cls-7" points="114.5 143.79 116.07 144.7 117.62 143.8 116.05 142.89 114.5 143.79"/><polygon class="cls-13" points="112.51 144.93 112.52 145.43 114.09 146.35 114.09 145.85 112.51 144.93"/><polygon class="cls-6" points="114.09 145.85 114.09 146.35 115.64 145.45 115.64 144.95 114.09 145.85"/><polygon class="cls-7" points="112.51 144.93 114.09 145.85 115.64 144.95 114.06 144.04 112.51 144.93"/><polygon class="cls-13" points="108.54 147.22 108.55 147.73 110.11 148.64 110.11 148.14 108.54 147.22"/><polygon class="cls-6" points="110.11 148.14 110.11 148.64 113.65 146.59 113.65 146.09 110.11 148.14"/><polygon class="cls-7" points="108.54 147.22 110.11 148.14 113.65 146.09 112.08 145.18 108.54 147.22"/><polygon class="cls-13" points="130.4 136.93 130.4 137.43 131.97 138.34 131.97 137.84 130.4 136.93"/><polygon class="cls-6" points="131.97 137.84 131.97 138.34 135.51 136.3 135.51 135.8 131.97 137.84"/><polygon class="cls-7" points="130.4 136.93 131.97 137.84 135.51 135.8 133.94 134.88 130.4 136.93"/><polygon class="cls-13" points="128.42 138.07 128.42 138.57 129.99 139.49 129.99 138.99 128.42 138.07"/><polygon class="cls-6" points="129.99 138.99 129.99 139.49 131.54 138.59 131.53 138.09 129.99 138.99"/><polygon class="cls-7" points="128.42 138.07 129.99 138.99 131.53 138.09 129.97 137.18 128.42 138.07"/><polygon class="cls-13" points="126.43 139.22 126.43 139.72 128 140.63 128 140.13 126.43 139.22"/><polygon class="cls-6" points="128 140.13 128 140.63 129.56 139.74 129.55 139.23 128 140.13"/><polygon class="cls-7" points="126.43 139.22 128 140.13 129.55 139.23 127.98 138.32 126.43 139.22"/><polygon class="cls-13" points="124.44 140.37 124.44 140.87 126.02 141.78 126.02 141.28 124.44 140.37"/><polygon class="cls-6" points="126.02 141.28 126.02 141.78 127.57 140.88 127.56 140.38 126.02 141.28"/><polygon class="cls-7" points="124.44 140.37 126.02 141.28 127.56 140.38 125.99 139.47 124.44 140.37"/><polygon class="cls-13" points="122.46 141.51 122.46 142.01 124.03 142.92 124.03 142.42 122.46 141.51"/><polygon class="cls-6" points="124.03 142.42 124.03 142.92 125.58 142.03 125.58 141.53 124.03 142.42"/><polygon class="cls-7" points="122.46 141.51 124.03 142.42 125.58 141.53 124.01 140.61 122.46 141.51"/><polygon class="cls-13" points="120.47 142.66 120.47 143.16 122.05 144.07 122.04 143.57 120.47 142.66"/><polygon class="cls-6" points="122.04 143.57 122.05 144.07 123.6 143.17 123.59 142.67 122.04 143.57"/><polygon class="cls-7" points="120.47 142.66 122.04 143.57 123.59 142.67 122.03 141.76 120.47 142.66"/><polygon class="cls-13" points="118.49 143.8 118.49 144.3 120.06 145.22 120.06 144.72 118.49 143.8"/><polygon class="cls-6" points="120.06 144.72 120.06 145.22 121.61 144.32 121.61 143.82 120.06 144.72"/><polygon class="cls-7" points="118.49 143.8 120.06 144.72 121.61 143.82 120.04 142.9 118.49 143.8"/><polygon class="cls-13" points="116.5 144.95 116.5 145.45 118.08 146.36 118.08 145.86 116.5 144.95"/><polygon class="cls-6" points="118.08 145.86 118.08 146.36 119.63 145.47 119.62 144.97 118.08 145.86"/><polygon class="cls-7" points="116.5 144.95 118.08 145.86 119.62 144.97 118.05 144.06 116.5 144.95"/><polygon class="cls-13" points="114.52 146.09 114.52 146.59 116.09 147.51 116.09 147.01 114.52 146.09"/><polygon class="cls-6" points="116.09 147.01 116.09 147.51 117.64 146.61 117.64 146.12 116.09 147.01"/><polygon class="cls-7" points="114.52 146.09 116.09 147.01 117.64 146.12 116.07 145.2 114.52 146.09"/><polygon class="cls-13" points="112.53 147.24 112.53 147.74 114.1 148.66 114.1 148.15 112.53 147.24"/><polygon class="cls-6" points="114.1 148.15 114.1 148.66 115.65 147.76 115.65 147.26 114.1 148.15"/><polygon class="cls-7" points="112.53 147.24 114.1 148.15 115.65 147.26 114.08 146.35 112.53 147.24"/><polygon class="cls-13" points="110.55 148.39 110.55 148.89 112.12 149.8 112.12 149.3 110.55 148.39"/><polygon class="cls-6" points="112.12 149.3 112.12 149.8 113.67 148.91 113.66 148.41 112.12 149.3"/><polygon class="cls-7" points="110.55 148.39 112.12 149.3 113.66 148.41 112.1 147.5 110.55 148.39"/><polygon class="cls-13" points="132.4 138.09 132.41 138.59 133.97 139.5 133.97 139 132.4 138.09"/><polygon class="cls-6" points="133.97 139 133.97 139.5 137.51 137.46 137.51 136.96 133.97 139"/><polygon class="cls-7" points="132.4 138.09 133.97 139 137.51 136.96 135.94 136.05 132.4 138.09"/><polygon class="cls-13" points="130.42 139.23 130.42 139.74 131.99 140.65 131.99 140.15 130.42 139.23"/><polygon class="cls-6" points="131.99 140.15 131.99 140.65 133.54 139.75 133.54 139.25 131.99 140.15"/><polygon class="cls-7" points="130.42 139.23 131.99 140.15 133.54 139.25 131.97 138.34 130.42 139.23"/><polygon class="cls-13" points="128.43 140.38 128.43 140.88 130 141.79 130 141.29 128.43 140.38"/><polygon class="cls-6" points="130 141.29 130 141.79 131.56 140.9 131.56 140.4 130 141.29"/><polygon class="cls-7" points="128.43 140.38 130 141.29 131.56 140.4 129.98 139.49 128.43 140.38"/><polygon class="cls-13" points="126.44 141.53 126.45 142.03 128.02 142.94 128.02 142.44 126.44 141.53"/><polygon class="cls-6" points="128.02 142.44 128.02 142.94 129.57 142.04 129.57 141.54 128.02 142.44"/><polygon class="cls-7" points="126.44 141.53 128.02 142.44 129.57 141.54 127.99 140.64 126.44 141.53"/><polygon class="cls-13" points="124.46 142.67 124.47 143.17 126.03 144.09 126.03 143.59 124.46 142.67"/><polygon class="cls-6" points="126.03 143.59 126.03 144.09 127.58 143.19 127.58 142.69 126.03 143.59"/><polygon class="cls-7" points="124.46 142.67 126.03 143.59 127.58 142.69 126.01 141.78 124.46 142.67"/><polygon class="cls-13" points="122.48 143.82 122.48 144.32 124.05 145.23 124.05 144.74 122.48 143.82"/><polygon class="cls-6" points="124.05 144.74 124.05 145.23 125.6 144.34 125.6 143.84 124.05 144.74"/><polygon class="cls-7" points="122.48 143.82 124.05 144.74 125.6 143.84 124.03 142.93 122.48 143.82"/><polygon class="cls-13" points="120.49 144.97 120.49 145.47 122.06 146.38 122.06 145.88 120.49 144.97"/><polygon class="cls-6" points="122.06 145.88 122.06 146.38 123.61 145.49 123.61 144.98 122.06 145.88"/><polygon class="cls-7" points="120.49 144.97 122.06 145.88 123.61 144.98 122.04 144.07 120.49 144.97"/><polygon class="cls-13" points="118.5 146.12 118.51 146.61 120.08 147.52 120.08 147.03 118.5 146.12"/><polygon class="cls-6" points="120.08 147.03 120.08 147.52 121.63 146.63 121.63 146.13 120.08 147.03"/><polygon class="cls-7" points="118.5 146.12 120.08 147.03 121.63 146.13 120.05 145.22 118.5 146.12"/><polygon class="cls-13" points="116.52 147.26 116.52 147.76 118.09 148.67 118.09 148.17 116.52 147.26"/><polygon class="cls-6" points="118.09 148.17 118.09 148.67 119.64 147.78 119.64 147.28 118.09 148.17"/><polygon class="cls-7" points="116.52 147.26 118.09 148.17 119.64 147.28 118.07 146.36 116.52 147.26"/><polygon class="cls-13" points="112.55 149.55 112.55 150.05 114.12 150.97 114.12 150.47 112.55 149.55"/><polygon class="cls-6" points="114.12 150.47 114.12 150.97 117.66 148.92 117.66 148.42 114.12 150.47"/><polygon class="cls-7" points="112.55 149.55 114.12 150.47 117.66 148.42 116.09 147.51 112.55 149.55"/><polygon class="cls-13" points="132.42 140.4 132.43 140.9 133.99 141.81 133.99 141.31 132.42 140.4"/><polygon class="cls-6" points="133.99 141.31 133.99 141.81 139.52 138.63 139.52 138.13 133.99 141.31"/><polygon class="cls-7" points="132.42 140.4 133.99 141.31 139.52 138.13 137.94 137.21 132.42 140.4"/><polygon class="cls-13" points="130.44 141.54 130.44 142.04 132.01 142.96 132.01 142.46 130.44 141.54"/><polygon class="cls-6" points="132.01 142.46 132.01 142.96 133.56 142.07 133.56 141.57 132.01 142.46"/><polygon class="cls-7" points="130.44 141.54 132.01 142.46 133.56 141.57 131.99 140.65 130.44 141.54"/><polygon class="cls-13" points="128.45 142.7 128.45 143.19 130.02 144.1 130.02 143.61 128.45 142.7"/><polygon class="cls-6" points="130.02 143.61 130.02 144.1 131.57 143.21 131.57 142.71 130.02 143.61"/><polygon class="cls-7" points="128.45 142.7 130.02 143.61 131.57 142.71 130 141.8 128.45 142.7"/><polygon class="cls-13" points="126.47 143.84 126.47 144.34 128.04 145.25 128.04 144.75 126.47 143.84"/><polygon class="cls-6" points="128.04 144.75 128.04 145.25 129.59 144.36 129.59 143.86 128.04 144.75"/><polygon class="cls-7" points="126.47 143.84 128.04 144.75 129.59 143.86 128.02 142.94 126.47 143.84"/><polygon class="cls-13" points="124.48 144.99 124.49 145.49 126.05 146.4 126.05 145.9 124.48 144.99"/><polygon class="cls-6" points="126.05 145.9 126.05 146.4 127.61 145.5 127.61 145 126.05 145.9"/><polygon class="cls-7" points="124.48 144.99 126.05 145.9 127.61 145 126.03 144.09 124.48 144.99"/><polygon class="cls-13" points="122.5 146.13 122.5 146.63 124.06 147.55 124.06 147.05 122.5 146.13"/><polygon class="cls-6" points="124.06 147.05 124.06 147.55 125.62 146.65 125.62 146.15 124.06 147.05"/><polygon class="cls-7" points="122.5 146.13 124.06 147.05 125.62 146.15 124.05 145.24 122.5 146.13"/><polygon class="cls-13" points="120.51 147.28 120.51 147.78 122.08 148.69 122.08 148.19 120.51 147.28"/><polygon class="cls-6" points="122.08 148.19 122.08 148.69 123.63 147.8 123.63 147.3 122.08 148.19"/><polygon class="cls-7" points="120.51 147.28 122.08 148.19 123.63 147.3 122.06 146.38 120.51 147.28"/><polygon class="cls-13" points="118.53 148.42 118.53 148.93 120.1 149.84 120.1 149.34 118.53 148.42"/><polygon class="cls-6" points="120.1 149.34 120.1 149.84 121.65 148.94 121.65 148.44 120.1 149.34"/><polygon class="cls-7" points="118.53 148.42 120.1 149.34 121.65 148.44 120.08 147.53 118.53 148.42"/><polygon class="cls-13" points="114.55 150.72 114.56 151.22 116.13 152.13 116.13 151.63 114.55 150.72"/><polygon class="cls-6" points="116.13 151.63 116.13 152.13 119.66 150.09 119.66 149.59 116.13 151.63"/><polygon class="cls-7" points="114.55 150.72 116.13 151.63 119.66 149.59 118.09 148.67 114.55 150.72"/><polygon class="cls-13" points="138.4 139.27 138.4 139.77 139.97 140.69 139.97 140.19 138.4 139.27"/><polygon class="cls-6" points="139.97 140.19 139.97 140.69 141.52 139.79 141.52 139.29 139.97 140.19"/><polygon class="cls-7" points="138.4 139.27 139.97 140.19 141.52 139.29 139.95 138.38 138.4 139.27"/><polygon class="cls-13" points="136.41 140.42 136.41 140.92 137.98 141.83 137.98 141.33 136.41 140.42"/><polygon class="cls-6" points="137.98 141.33 137.98 141.83 139.53 140.94 139.53 140.44 137.98 141.33"/><polygon class="cls-7" points="136.41 140.42 137.98 141.33 139.53 140.44 137.96 139.52 136.41 140.42"/><polygon class="cls-13" points="134.43 141.57 134.43 142.07 136 142.98 136 142.48 134.43 141.57"/><polygon class="cls-6" points="136 142.48 136 142.98 137.55 142.08 137.54 141.58 136 142.48"/><polygon class="cls-7" points="134.43 141.57 136 142.48 137.54 141.58 135.98 140.67 134.43 141.57"/><polygon class="cls-13" points="124.5 147.3 124.5 147.8 126.07 148.71 126.07 148.21 124.5 147.3"/><polygon class="cls-6" points="126.07 148.21 126.07 148.71 135.57 143.23 135.56 142.73 126.07 148.21"/><polygon class="cls-7" points="124.5 147.3 126.07 148.21 135.56 142.73 133.99 141.81 124.5 147.3"/><polygon class="cls-13" points="122.51 148.44 122.51 148.94 124.09 149.85 124.08 149.35 122.51 148.44"/><polygon class="cls-6" points="124.08 149.35 124.09 149.85 125.64 148.96 125.63 148.46 124.08 149.35"/><polygon class="cls-7" points="122.51 148.44 124.08 149.35 125.63 148.46 124.06 147.55 122.51 148.44"/><polygon class="cls-13" points="120.53 149.59 120.53 150.09 122.1 151 122.1 150.5 120.53 149.59"/><polygon class="cls-6" points="122.1 150.5 122.1 151 123.65 150.1 123.65 149.61 122.1 150.5"/><polygon class="cls-7" points="120.53 149.59 122.1 150.5 123.65 149.61 122.08 148.69 120.53 149.59"/><polygon class="cls-13" points="116.56 151.88 116.56 152.38 118.13 153.29 118.13 152.79 116.56 151.88"/><polygon class="cls-6" points="118.13 152.79 118.13 153.29 121.67 151.25 121.67 150.75 118.13 152.79"/><polygon class="cls-7" points="116.56 151.88 118.13 152.79 121.67 150.75 120.09 149.84 116.56 151.88"/><polygon class="cls-9" points="122.62 107.07 122.64 114.95 129.51 110.99 129.48 103.11 122.62 107.07"/><polygon class="cls-7" points="116.07 113.82 116.07 114.13 121.05 111.25 121.05 110.94 116.07 113.82"/><polygon class="cls-7" points="116.06 112.83 116.06 113.14 121.05 110.27 121.04 109.95 116.06 112.83"/><polygon class="cls-7" points="116.06 111.84 116.06 112.16 121.04 109.28 121.04 108.97 116.06 111.84"/><polygon class="cls-7" points="116.06 110.85 116.06 111.17 121.03 108.29 121.03 107.98 116.06 110.85"/><polygon class="cls-7" points="116.08 115.79 116.08 116.1 121.05 113.23 121.05 112.92 116.08 115.79"/><polygon class="cls-7" points="116.07 114.8 116.07 115.12 121.05 112.25 121.05 111.93 116.07 114.8"/><polygon class="cls-7" points="117.34 116.05 117.34 116.36 121.06 114.22 121.05 113.91 117.34 116.05"/><path class="cls-5" d="M128.51,100.46a.57.57,0,0,0-.23.41.15.15,0,0,0,.13.17.13.13,0,0,0,.1,0,.52.52,0,0,0,.24-.41C128.76,100.45,128.65,100.39,128.51,100.46Z"/><path class="cls-7" d="M130.68,98.78c.25-.15.45,0,.45.26v2.15c0-.26-.18-.37-.41-.24l-15.81,9.13a.89.89,0,0,0-.42.71v-2.14a1,1,0,0,1,.46-.79Zm-1.2,1.68a.5.5,0,0,0,.23-.41c0-.16-.11-.22-.24-.14a.56.56,0,0,0-.23.41c0,.15.11.21.24.14m-1,.55a.54.54,0,0,0,.24-.41c0-.16-.11-.21-.25-.14a.54.54,0,0,0-.23.41c0,.15.11.21.24.14m1.92-1.1a.54.54,0,0,0,.23-.41c0-.15-.1-.21-.23-.14a.55.55,0,0,0-.24.41c0,.15.11.21.24.14"/><path class="cls-14" d="M130.73,101c.23-.14.41,0,.41.24l0,10.32a.92.92,0,0,1-.41.72L115,121.35a.25.25,0,0,1-.41-.24l0-10.32a.92.92,0,0,1,.41-.72Zm-8.08,14,6.86-4v-7.88l-6.86,4V115m-6.58.17,5-2.91v-.31l-5,2.87v.31m0-3,5-2.88V109l-5,2.87v.32m0,1,5-2.87v-.31l-5,2.87v.31m0-2,5-2.87V108l-5,2.87v.31m0,4.94,5-2.88v-.31l-5,2.87v.32m0-2,5-2.87v-.31l-5,2.87v.31m1.27,2.23,3.71-2.14v-.32l-3.71,2.19v.31"/><path class="cls-10" d="M130.43,99.36a.54.54,0,0,0-.23.41c0,.15.11.21.23.13a.52.52,0,0,0,.24-.41C130.67,99.34,130.56,99.28,130.43,99.36Z"/><path class="cls-9" d="M129.47,99.91a.56.56,0,0,0-.23.41c0,.15.11.22.23.14a.54.54,0,0,0,.24-.41C129.7,99.89,129.6,99.83,129.47,99.91Z"/><path class="cls-6" d="M156,132.53a.26.26,0,0,1-.09.17l-3.2,1.82-.55-.34c.89-.5,2.74-1.51,3.79-2.11A3.59,3.59,0,0,1,156,132.53Z"/><path class="cls-15" d="M156,132.08l-3.8,2.1L145.59,130l1.7-.95a10.6,10.6,0,0,1,3.48-1.54,5.14,5.14,0,0,1,5.17,4.57Z"/><path class="cls-13" d="M152.5,134.53a.24.24,0,0,0,.31-.11.18.18,0,0,0,0-.1,4.55,4.55,0,0,0-2.64-4.11c-.76-.44-3.06-1.36-4.73-.11a.24.24,0,0,0-.07.31l.07.06Z"/><path class="cls-16" d="M54.63,233.92l6.88-.59a71.85,71.85,0,0,0,7,1.61c2.61.37,4.47-.06,5.09.87a1,1,0,0,1,.15.64h0A4,4,0,0,1,72,239.6c-1.35,1-2.83,1.59-6.87,1.23-1.06-.41-2.94-.69-3.63.36-1.06.5-5.1,1.06-6.9,0v-.91C53.54,239.2,54.63,233.92,54.63,233.92Z"/><path class="cls-17" d="M51.58,170.42c-2.27,11.75,5.87,24.59,5.21,34.08-.9,13-1.4,18.67-2.74,29.25,0,0,5.28,3.13,9.17-.45,4-20.73,5.74-24.45,5.18-62.38Z"/><path class="cls-4" d="M83.67,116.41c2.34,2.74.38,13.89-2.9,16.6s-6,1.75-8.81-.66-4.5-8.42-3.84-12.95C69.07,113.23,77,108.66,83.67,116.41Z"/><path class="cls-18" d="M84.5,117.55a6.93,6.93,0,0,1,.21,3.2,13,13,0,0,1-1.35,4c-.37.91-.24,1.58-.63,1.94s-.33-2.57-1.25-3.29-2.25,2.44-.4,4.38c.26,1.94-2.23,5.2-3.15,5.75s-4.75,0-7.12-2.39-2.88-6.08-3.44-11,3.06-6.45,3.06-6.45c.06-3.11,10.42-2.25,14.09-.62C86.78,114.22,84.5,117.55,84.5,117.55Z"/><path class="cls-16" d="M67.82,240.17l6.89-.61s4.42,1.24,7,1.64,4.48-.06,5.1.87a1,1,0,0,1,.15.64h0c.12,1.37-1.1,2.65-1.77,3.15-1.34,1-2.82,1.59-6.86,1.23-1.06-.42-2.95-.7-3.64.36-1,.5-5.09,1.05-6.89,0v-.91C66.76,245.46,67.82,240.17,67.82,240.17Z"/><path class="cls-17" d="M56.82,173.39c-.75,12,9.06,25.07,9.62,34.74.79,13.25.79,22.62.79,33.41,0,0,8.82,4.18,9.22-2.27,1.29-21.15,2.68-26.7-2.78-65.38Z"/><path class="cls-19" d="M79.89,135c-4.93-2.46-12.9-9.18-19.42-.39-6.11,8.25-8.62,33-9.31,38-.95,6.69,17.68,10.27,21.83,10.08a1.73,1.73,0,0,0,1.78-1.39c.35-1.23-.65-2.1-.37-3.22a4.65,4.65,0,0,1,1-1.7,3.93,3.93,0,0,0,.9-1.74c.16-1.06-.5-2.06-.62-3.12a6.21,6.21,0,0,1,.31-2.31c1.69-6.3,4.63-12.12,6.26-18.46,1.1-4.28,2.69-11.09-.84-14.64A3.72,3.72,0,0,0,79.89,135Z"/><path class="cls-19" d="M82.91,138.3c3.94,12.5,4.31,18.69,8.17,23.63.28.37,11,11.79,11,11.79A7.57,7.57,0,0,1,96.88,177c-5.95-2.55-12.68-11.91-14.49-13.92-1.06-1.16-6.94-11.93-7.82-17.41S81.26,133.36,82.91,138.3Z"/></svg>