<svg id="Layer_1" data-name="Layer 1" xmlns="http://www.w3.org/2000/svg" viewBox="0 0 238.16 289.77"><defs><style>.cls-1{font-size:18.43px;fill:#707070;font-family:SFProDisplay-Regular, SF Pro Display;letter-spacing:-0.05em;}.cls-2{letter-spacing:0.08em;}.cls-17,.cls-3{fill:#112b46;}.cls-10,.cls-11,.cls-3,.cls-4,.cls-5,.cls-6,.cls-7,.cls-8,.cls-9{fill-rule:evenodd;}.cls-4{fill:#21496d;}.cls-5{fill:#495dea;}.cls-6{fill:#fff;}.cls-24,.cls-7{fill:#606bf1;}.cls-8{fill:#20318d;}.cls-9{fill:#ffc8af;}.cls-10{fill:#7181f4;}.cls-11{fill:#f4ae92;}.cls-12{fill:#d86868;}.cls-13{fill:#d34c4c;}.cls-14{fill:#f49898;}.cls-15{fill:#ec827d;}.cls-16{fill:#a5b7c6;}.cls-18{fill:#878cf0;}.cls-19{fill:#879faf;}.cls-20{fill:#b6c7d3;}.cls-21{fill:#56548c;}.cls-22{fill:#bee1f4;}.cls-23{fill:#fbd15b;}</style></defs><title>Domain Final SVG</title><text class="cls-1" transform="translate(76.13 273.47)">T<tspan class="cls-2" x="9.76" y="0">echnical</tspan></text><path class="cls-3" d="M89.25,226.33s7.3,8.53,9.25,9.1.19,2.58-1.31,2.74-6.24,0-7.63-1.42-5.3-2.81-5.3-2.81a22,22,0,0,1,1.06-7.2Z"/><path class="cls-3" d="M91.83,166.07s1,18.88.6,25.07-1.85,36.92-1.85,36.92a13.35,13.35,0,0,1-6.54,0c-1.31-23.56-1.27-30.34-1.64-33.85s-.84-13.67-.84-13.67c-2.82-5.83.13-13.42,1.51-15.24S91.83,166.07,91.83,166.07Z"/><path class="cls-3" d="M77.34,234.43c.24,3.45,1.49,7.51,1.8,9.58a4.89,4.89,0,0,1-.9,3.91c-.48.66-6.31-1.27-7.12-3.52s.84-4.21,1-8.43A3.83,3.83,0,0,1,77.34,234.43Z"/><path class="cls-4" d="M85.76,167.54s-1,17.19-2.58,22.91-3,22.5-3.68,25.43-1.5,21-1.5,21a12.71,12.71,0,0,1-6.48,0c.07-16.93-.34-30.68,0-35.34s-.13-18.41-.13-18.41c-1.5-6.4-1.6-7.22,0-11.47S79.82,164,85.76,167.54Z"/><path class="cls-5" d="M89.07,126.77c5.93,1.67,9.11,16.57,10.78,19.91s15.51,4.18,15.51,4.18c.83,2.91-1.53,5.95-1.53,5.95-13.33-.54-18-1.64-20.51-6.92S82.17,128.56,89.07,126.77Z"/><path class="cls-6" d="M89.07,126.77c-5.26-.24-17.47,2.5-21.49,7.63s1.81,14.19,3.21,19.65-.64,19.17-.64,20.48c6.24,4.14,21.27,4.67,23-1.51.7-6.72-.84-14.69-.92-18.63C92.38,146,96,129.27,89.07,126.77Z"/><path class="cls-7" d="M84.55,128c3.39,11.91,4.19,25.27,3.83,30.32s-.46,21.37-.46,21.37c3.94-2.08,5.67-5.89,5.67-7.62s-1.48-16.51-1.43-17.7,2-14.74,1.47-20.83-4.55-6.79-4.55-6.79H84Z"/><path class="cls-8" d="M87.82,113.65c2.32.74,0,6,0,6Z"/><path class="cls-9" d="M87.94,114.34a16.14,16.14,0,0,1,.55,5.48c-.33,2.39-.55,7.18-2.68,8.71s-5.17-.25-7.19-2a12,12,0,0,1-4.21-8.71c0-3.83,1.45-8.5,7-8.26S87.94,114.34,87.94,114.34Z"/><path class="cls-9" d="M77.23,123.18s.44,4.94-.86,6.74c-.09,1.21,3.38,6.35,6.83,5.45,2-.52,1.77-2.87,1.77-2.87a56.79,56.79,0,0,1,0-6.12Z"/><path class="cls-3" d="M89.29,110.22c.79,2.83-.11,3.84-2.5,4.67s-8.76-1-8.76-1a7.37,7.37,0,0,1-.55,4.61c-1-3-2-1.47-2.1.92s1.24,2.33,1.24,2.33a4.34,4.34,0,0,1-.74,2.69c-2.56-1.77-6-13.58-1.43-13.85C74.56,106.43,87.6,104.15,89.29,110.22Z"/><path class="cls-7" d="M76.16,129.14c4.1,8.64,6.24,16.54,6.1,23.66s-1.61,27.9-1.61,27.9c-7.12-1.73-12-3.74-13.34-6.16,3-8,4.15-13.43,3.53-15.71s-6-19.7-3.21-24.87C70.29,131.07,76.16,129.14,76.16,129.14Z"/><path class="cls-10" d="M70,133.81c4.9,2.44,8.79,15.95,12.53,19.58,2.12,2.05,12.6,4.73,15.49,4.81,1.12,2.56-.9,5.41-.9,5.41C79.22,161.94,78.44,161,72.93,154,66.12,145.24,63.39,132.13,70,133.81Z"/><path class="cls-11" d="M84.89,129c-1.48.54-3.66-.33-6.49-2.6,0,0,.84,3.32,6.49,4.53Z"/><path class="cls-6" d="M77.07,128a9.2,9.2,0,0,1-.91,1.15s1.77,3.89,2.42,5.6a9,9,0,0,0,2.32,3.15l2.31-2.52C80,133.69,77.07,128,77.07,128Z"/><path class="cls-6" d="M84.69,129.23c-.21-.27-.72,4.85-1.48,6.15a9.5,9.5,0,0,0,2.36,1.76S86.44,131.41,84.69,129.23Z"/><path class="cls-12" d="M159.42,154.39l0,13.05c0,1.84-1.22,3.68-3.63,5.09l0-13.05C158.21,158.07,159.42,156.23,159.42,154.39Z"/><polygon class="cls-12" points="179.63 173.24 179.6 186.29 155.91 200.06 155.94 187 179.63 173.24"/><path class="cls-13" d="M134.59,205.15l0-13.06c0-1.84,1.22-3.67,3.63-5.08,4.87-2.83,12.79-2.83,17.68,0l0,13.05c-4.9-2.83-12.82-2.83-17.68,0C135.82,201.46,134.6,203.3,134.59,205.15Z"/><polygon class="cls-12" points="138.32 197.25 138.28 210.3 114.59 224.06 114.63 211.01 138.32 197.25"/><polygon class="cls-14" points="114.63 211.01 114.59 224.06 49.16 186.29 49.19 173.24 114.63 211.01"/><path class="cls-15" d="M155.73,149.23c4.9,2.82,4.93,7.42.06,10.24l23.86,13.77L155.94,187c-4.89-2.82-12.81-2.82-17.68,0s-4.83,7.42.06,10.24L114.63,211,49.2,173.24l65-37.78,23.85,13.77C142.94,146.4,150.83,146.4,155.73,149.23Z"/><path class="cls-16" d="M139.07,173.39,138,174a.79.79,0,0,0,.33-.72l1.09-.65A.78.78,0,0,1,139.07,173.39Z"/><path class="cls-16" d="M106.28,128.65l1.1-.65a.8.8,0,0,1,.8.08l-1.1.64A.77.77,0,0,0,106.28,128.65Z"/><polygon class="cls-16" points="138.35 148.06 139.46 147.41 139.4 172.67 138.29 173.31 138.35 148.06"/><polygon class="cls-16" points="107.08 128.72 108.19 128.08 138.35 145.48 137.23 146.13 107.08 128.72"/><path class="cls-16" d="M137.23,146.13l1.1-.65a2.5,2.5,0,0,1,1.1,1.94l-1.1.64A2.49,2.49,0,0,0,137.23,146.13Z"/><path class="cls-17" d="M137.23,146.13a2.49,2.49,0,0,1,1.1,1.93l0,25.25c0,.71-.51,1-1.12.64L107,156.54a2.43,2.43,0,0,1-1.09-1.93l.06-25.26c0-.71.5-1,1.12-.64Z"/><polygon class="cls-18" points="107.07 131.26 107.02 154 137.17 171.41 137.23 148.67 107.07 131.26"/><path class="cls-19" d="M137.63,174.61v1.29a.79.79,0,0,1-.46.64v-1.29A.78.78,0,0,0,137.63,174.61Z"/><path class="cls-19" d="M115.55,187.78v1.29a2.46,2.46,0,0,1-2.24,0v-1.29A2.46,2.46,0,0,0,115.55,187.78Z"/><path class="cls-19" d="M82.7,171v-1.29a.8.8,0,0,0,.47.66v1.28A.77.77,0,0,1,82.7,171Z"/><polygon class="cls-19" points="137.17 175.25 137.17 176.54 115.55 189.06 115.56 187.78 137.17 175.25"/><polygon class="cls-19" points="113.32 187.78 113.32 189.06 83.17 171.66 83.17 170.37 113.32 187.78"/><path class="cls-16" d="M137.16,174a.68.68,0,0,1,0,1.29l-21.61,12.53a2.44,2.44,0,0,1-2.23,0l-30.14-17.4a.7.7,0,0,1-.42-.88.72.72,0,0,1,.42-.42l21.62-12.53a2.5,2.5,0,0,1,2.23,0Z"/><path class="cls-20" d="M112.7,177.22l-11.11-6.41a1.23,1.23,0,0,0-1.09,0l-5.75,3.29a.33.33,0,0,0-.21.42.31.31,0,0,0,.21.22l11.12,6.42a1.23,1.23,0,0,0,1.09,0l5.74-3.29a.34.34,0,0,0,.22-.43.34.34,0,0,0-.22-.22"/><polygon class="cls-17" points="107.34 158.52 107.34 158.84 105.31 160.01 105.31 159.69 107.34 158.52"/><polygon class="cls-17" points="105.31 159.69 105.31 160.01 103.31 158.86 103.31 158.53 105.31 159.69"/><polygon class="cls-21" points="107.34 158.52 105.31 159.69 103.31 158.53 105.35 157.36 107.34 158.52"/><polygon class="cls-17" points="109.9 160 109.9 160.32 107.87 161.5 107.88 161.17 109.9 160"/><polygon class="cls-17" points="107.88 161.17 107.87 161.5 105.87 160.34 105.87 160.01 107.88 161.17"/><polygon class="cls-21" points="109.9 160 107.88 161.17 105.87 160.01 107.91 158.84 109.9 160"/><polygon class="cls-17" points="112.46 161.47 112.46 161.79 110.43 162.97 110.43 162.65 112.46 161.47"/><polygon class="cls-17" points="110.43 162.65 110.43 162.97 108.44 161.82 108.44 161.5 110.43 162.65"/><polygon class="cls-21" points="112.46 161.47 110.43 162.65 108.44 161.5 110.46 160.32 112.46 161.47"/><polygon class="cls-17" points="115.02 162.95 115.02 163.27 112.99 164.45 112.99 164.12 115.02 162.95"/><polygon class="cls-17" points="112.99 164.12 112.99 164.45 110.99 163.3 111 162.98 112.99 164.12"/><polygon class="cls-21" points="115.02 162.95 112.99 164.12 111 162.98 113.02 161.79 115.02 162.95"/><polygon class="cls-17" points="117.58 164.43 117.58 164.75 115.55 165.92 115.55 165.61 117.58 164.43"/><polygon class="cls-17" points="115.55 165.61 115.55 165.92 113.55 164.78 113.55 164.45 115.55 165.61"/><polygon class="cls-21" points="117.58 164.43 115.55 165.61 113.55 164.45 115.58 163.27 117.58 164.43"/><polygon class="cls-17" points="120.14 165.91 120.14 166.22 118.11 167.41 118.11 167.09 120.14 165.91"/><polygon class="cls-17" points="118.11 167.09 118.11 167.41 116.11 166.25 116.11 165.93 118.11 167.09"/><polygon class="cls-21" points="120.14 165.91 118.11 167.09 116.11 165.93 118.14 164.75 120.14 165.91"/><polygon class="cls-17" points="122.7 167.38 122.7 167.7 120.67 168.88 120.67 168.56 122.7 167.38"/><polygon class="cls-17" points="120.67 168.56 120.67 168.88 118.67 167.73 118.67 167.41 120.67 168.56"/><polygon class="cls-21" points="122.7 167.38 120.67 168.56 118.67 167.41 120.7 166.22 122.7 167.38"/><polygon class="cls-17" points="125.26 168.86 125.26 169.18 123.22 170.36 123.22 170.04 125.26 168.86"/><polygon class="cls-17" points="123.22 170.04 123.22 170.36 121.23 169.2 121.23 168.88 123.22 170.04"/><polygon class="cls-21" points="125.26 168.86 123.22 170.04 121.23 168.88 123.26 167.7 125.26 168.86"/><polygon class="cls-17" points="127.82 170.33 127.82 170.66 125.79 171.84 125.79 171.52 127.82 170.33"/><polygon class="cls-17" points="125.79 171.52 125.79 171.84 123.79 170.68 123.79 170.37 125.79 171.52"/><polygon class="cls-21" points="127.82 170.33 125.79 171.52 123.79 170.37 125.82 169.18 127.82 170.33"/><polygon class="cls-17" points="130.38 171.81 130.37 172.14 128.35 173.31 128.35 173 130.38 171.81"/><polygon class="cls-17" points="128.35 173 128.35 173.31 126.35 172.16 126.35 171.84 128.35 173"/><polygon class="cls-21" points="130.38 171.81 128.35 173 126.35 171.84 128.38 170.66 130.38 171.81"/><polygon class="cls-17" points="135.5 174.78 135.5 175.09 133.46 176.27 133.47 175.95 135.5 174.78"/><polygon class="cls-17" points="133.47 175.95 133.46 176.27 128.91 173.64 128.91 173.31 133.47 175.95"/><polygon class="cls-21" points="135.5 174.78 133.47 175.95 128.91 173.31 130.94 172.14 135.5 174.78"/><polygon class="cls-17" points="107.32 161.5 107.32 161.82 105.29 163 105.3 162.68 107.32 161.5"/><polygon class="cls-17" points="105.3 162.68 105.29 163 100.73 160.37 100.73 160.04 105.3 162.68"/><polygon class="cls-21" points="107.32 161.5 105.3 162.68 100.73 160.04 102.76 158.86 107.32 161.5"/><polygon class="cls-17" points="109.88 162.98 109.88 163.3 107.85 164.47 107.85 164.15 109.88 162.98"/><polygon class="cls-17" points="107.85 164.15 107.85 164.47 105.86 163.32 105.86 163 107.85 164.15"/><polygon class="cls-21" points="109.88 162.98 107.85 164.15 105.86 163 107.88 161.82 109.88 162.98"/><polygon class="cls-17" points="112.44 164.45 112.44 164.78 110.41 165.95 110.41 165.63 112.44 164.45"/><polygon class="cls-17" points="110.41 165.63 110.41 165.95 108.41 164.79 108.41 164.47 110.41 165.63"/><polygon class="cls-21" points="112.44 164.45 110.41 165.63 108.41 164.47 110.44 163.3 112.44 164.45"/><polygon class="cls-17" points="114.99 165.93 114.99 166.25 112.97 167.42 112.97 167.1 114.99 165.93"/><polygon class="cls-17" points="112.97 167.1 112.97 167.42 110.97 166.27 110.97 165.95 112.97 167.1"/><polygon class="cls-21" points="114.99 165.93 112.97 167.1 110.97 165.95 113 164.78 114.99 165.93"/><polygon class="cls-17" points="117.55 167.41 117.55 167.73 115.53 168.9 115.53 168.58 117.55 167.41"/><polygon class="cls-17" points="115.53 168.58 115.53 168.9 113.53 167.76 113.53 167.43 115.53 168.58"/><polygon class="cls-21" points="117.55 167.41 115.53 168.58 113.53 167.43 115.56 166.25 117.55 167.41"/><polygon class="cls-17" points="120.11 168.88 120.11 169.2 118.08 170.38 118.09 170.06 120.11 168.88"/><polygon class="cls-17" points="118.09 170.06 118.08 170.38 116.09 169.22 116.09 168.9 118.09 170.06"/><polygon class="cls-21" points="120.11 168.88 118.09 170.06 116.09 168.9 118.12 167.73 120.11 168.88"/><polygon class="cls-17" points="122.67 170.37 122.67 170.68 120.64 171.85 120.64 171.53 122.67 170.37"/><polygon class="cls-17" points="120.64 171.53 120.64 171.85 118.65 170.71 118.65 170.38 120.64 171.53"/><polygon class="cls-21" points="122.67 170.37 120.64 171.53 118.65 170.38 120.67 169.2 122.67 170.37"/><polygon class="cls-17" points="125.23 171.84 125.23 172.16 123.21 173.33 123.21 173.01 125.23 171.84"/><polygon class="cls-17" points="123.21 173.01 123.21 173.33 121.2 172.18 121.21 171.85 123.21 173.01"/><polygon class="cls-21" points="125.23 171.84 123.21 173.01 121.21 171.85 123.23 170.68 125.23 171.84"/><polygon class="cls-17" points="127.79 173.31 127.79 173.64 125.77 174.82 125.77 174.49 127.79 173.31"/><polygon class="cls-17" points="125.77 174.49 125.77 174.82 123.77 173.66 123.77 173.33 125.77 174.49"/><polygon class="cls-21" points="127.79 173.31 125.77 174.49 123.77 173.33 125.79 172.16 127.79 173.31"/><polygon class="cls-17" points="130.35 174.79 130.35 175.12 128.32 176.29 128.32 175.97 130.35 174.79"/><polygon class="cls-17" points="128.32 175.97 128.32 176.29 126.33 175.14 126.33 174.82 128.32 175.97"/><polygon class="cls-21" points="130.35 174.79 128.32 175.97 126.33 174.82 128.35 173.64 130.35 174.79"/><polygon class="cls-17" points="132.91 176.27 132.91 176.6 130.88 177.77 130.89 177.46 132.91 176.27"/><polygon class="cls-17" points="130.89 177.46 130.88 177.77 128.88 176.62 128.88 176.3 130.89 177.46"/><polygon class="cls-21" points="132.91 176.27 130.89 177.46 128.88 176.3 130.91 175.12 132.91 176.27"/><polygon class="cls-17" points="104.74 163 104.74 163.32 102.71 164.49 102.71 164.18 104.74 163"/><polygon class="cls-17" points="102.71 164.18 102.71 164.49 98.15 161.87 98.15 161.54 102.71 164.18"/><polygon class="cls-21" points="104.74 163 102.71 164.18 98.15 161.54 100.18 160.37 104.74 163"/><polygon class="cls-17" points="107.3 164.47 107.3 164.79 105.27 165.98 105.27 165.65 107.3 164.47"/><polygon class="cls-17" points="105.27 165.65 105.27 165.98 103.27 164.82 103.28 164.5 105.27 165.65"/><polygon class="cls-21" points="107.3 164.47 105.27 165.65 103.28 164.5 105.3 163.32 107.3 164.47"/><polygon class="cls-17" points="109.86 165.95 109.85 166.27 107.83 167.44 107.83 167.13 109.86 165.95"/><polygon class="cls-17" points="107.83 167.13 107.83 167.44 105.83 166.3 105.83 165.98 107.83 167.13"/><polygon class="cls-21" points="109.86 165.95 107.83 167.13 105.83 165.98 107.86 164.79 109.86 165.95"/><polygon class="cls-17" points="112.41 167.42 112.41 167.75 110.39 168.93 110.39 168.6 112.41 167.42"/><polygon class="cls-17" points="110.39 168.6 110.39 168.93 108.39 167.77 108.39 167.46 110.39 168.6"/><polygon class="cls-21" points="112.41 167.42 110.39 168.6 108.39 167.46 110.41 166.27 112.41 167.42"/><polygon class="cls-17" points="114.97 168.9 114.97 169.22 112.94 170.41 112.95 170.09 114.97 168.9"/><polygon class="cls-17" points="112.95 170.09 112.94 170.41 110.95 169.25 110.95 168.93 112.95 170.09"/><polygon class="cls-21" points="114.97 168.9 112.95 170.09 110.95 168.93 112.98 167.76 114.97 168.9"/><polygon class="cls-17" points="117.53 170.38 117.53 170.71 115.5 171.88 115.5 171.56 117.53 170.38"/><polygon class="cls-17" points="115.5 171.56 115.5 171.88 113.51 170.73 113.51 170.41 115.5 171.56"/><polygon class="cls-21" points="117.53 170.38 115.5 171.56 113.51 170.41 115.53 169.22 117.53 170.38"/><polygon class="cls-17" points="120.09 171.85 120.09 172.18 118.06 173.36 118.06 173.04 120.09 171.85"/><polygon class="cls-17" points="118.06 173.04 118.06 173.36 116.06 172.21 116.07 171.88 118.06 173.04"/><polygon class="cls-21" points="120.09 171.85 118.06 173.04 116.07 171.88 118.09 170.71 120.09 171.85"/><polygon class="cls-17" points="122.65 173.33 122.65 173.66 120.63 174.84 120.63 174.52 122.65 173.33"/><polygon class="cls-17" points="120.63 174.52 120.63 174.84 118.62 173.68 118.62 173.36 120.63 174.52"/><polygon class="cls-21" points="122.65 173.33 120.63 174.52 118.62 173.36 120.65 172.18 122.65 173.33"/><polygon class="cls-17" points="125.21 174.82 125.21 175.14 123.19 176.31 123.19 175.99 125.21 174.82"/><polygon class="cls-17" points="123.19 175.99 123.19 176.31 121.19 175.16 121.19 174.84 123.19 175.99"/><polygon class="cls-21" points="125.21 174.82 123.19 175.99 121.19 174.84 123.21 173.66 125.21 174.82"/><polygon class="cls-17" points="130.33 177.78 130.33 178.09 128.3 179.27 128.3 178.94 130.33 177.78"/><polygon class="cls-17" points="128.3 178.94 128.3 179.27 123.74 176.64 123.74 176.31 128.3 178.94"/><polygon class="cls-21" points="130.33 177.78 128.3 178.94 123.74 176.31 125.77 175.14 130.33 177.78"/><polygon class="cls-17" points="104.72 165.98 104.72 166.3 102.69 167.47 102.69 167.15 104.72 165.98"/><polygon class="cls-17" points="102.69 167.15 102.69 167.47 95.57 163.36 95.57 163.04 102.69 167.15"/><polygon class="cls-21" points="104.72 165.98 102.69 167.15 95.57 163.04 97.59 161.87 104.72 165.98"/><polygon class="cls-17" points="107.27 167.46 107.27 167.77 105.25 168.95 105.25 168.63 107.27 167.46"/><polygon class="cls-17" points="105.25 168.63 105.25 168.95 103.25 167.8 103.25 167.47 105.25 168.63"/><polygon class="cls-21" points="107.27 167.46 105.25 168.63 103.25 167.47 105.28 166.3 107.27 167.46"/><polygon class="cls-17" points="109.83 168.93 109.83 169.25 107.81 170.43 107.81 170.1 109.83 168.93"/><polygon class="cls-17" points="107.81 170.1 107.81 170.43 105.81 169.27 105.81 168.95 107.81 170.1"/><polygon class="cls-21" points="109.83 168.93 107.81 170.1 105.81 168.95 107.83 167.77 109.83 168.93"/><polygon class="cls-17" points="112.39 170.41 112.39 170.73 110.36 171.91 110.36 171.58 112.39 170.41"/><polygon class="cls-17" points="110.36 171.58 110.36 171.91 108.37 170.75 108.37 170.43 110.36 171.58"/><polygon class="cls-21" points="112.39 170.41 110.36 171.58 108.37 170.43 110.39 169.25 112.39 170.41"/><polygon class="cls-17" points="114.95 171.88 114.95 172.21 112.92 173.38 112.92 173.06 114.95 171.88"/><polygon class="cls-17" points="112.92 173.06 112.92 173.38 110.93 172.23 110.93 171.91 112.92 173.06"/><polygon class="cls-21" points="114.95 171.88 112.92 173.06 110.93 171.91 112.95 170.73 114.95 171.88"/><polygon class="cls-17" points="117.51 173.36 117.51 173.68 115.48 174.86 115.48 174.53 117.51 173.36"/><polygon class="cls-17" points="115.48 174.53 115.48 174.86 113.48 173.71 113.49 173.38 115.48 174.53"/><polygon class="cls-21" points="117.51 173.36 115.48 174.53 113.49 173.38 115.51 172.21 117.51 173.36"/><polygon class="cls-17" points="120.07 174.84 120.07 175.16 118.05 176.34 118.05 176.02 120.07 174.84"/><polygon class="cls-17" points="118.05 176.02 118.05 176.34 116.04 175.19 116.04 174.86 118.05 176.02"/><polygon class="cls-21" points="120.07 174.84 118.05 176.02 116.04 174.86 118.07 173.68 120.07 174.84"/><polygon class="cls-17" points="122.63 176.31 122.63 176.64 120.61 177.82 120.61 177.49 122.63 176.31"/><polygon class="cls-17" points="120.61 177.49 120.61 177.82 118.61 176.67 118.61 176.34 120.61 177.49"/><polygon class="cls-21" points="122.63 176.31 120.61 177.49 118.61 176.34 120.63 175.16 122.63 176.31"/><polygon class="cls-17" points="127.75 179.27 127.75 179.6 125.72 180.78 125.72 180.45 127.75 179.27"/><polygon class="cls-17" points="125.72 180.45 125.72 180.78 121.16 178.14 121.16 177.82 125.72 180.45"/><polygon class="cls-21" points="127.75 179.27 125.72 180.45 121.16 177.82 123.19 176.64 127.75 179.27"/><polygon class="cls-17" points="97.01 164.52 97.01 164.84 94.98 166.02 94.98 165.7 97.01 164.52"/><polygon class="cls-17" points="94.98 165.7 94.98 166.02 92.98 164.87 92.98 164.55 94.98 165.7"/><polygon class="cls-21" points="97.01 164.52 94.98 165.7 92.98 164.55 95.01 163.36 97.01 164.52"/><polygon class="cls-17" points="99.58 165.99 99.58 166.32 97.54 167.5 97.54 167.18 99.58 165.99"/><polygon class="cls-17" points="97.54 167.18 97.54 167.5 95.54 166.34 95.54 166.03 97.54 167.18"/><polygon class="cls-21" points="99.58 165.99 97.54 167.18 95.54 166.03 97.57 164.84 99.58 165.99"/><polygon class="cls-17" points="102.14 167.47 102.13 167.8 100.1 168.98 100.1 168.66 102.14 167.47"/><polygon class="cls-17" points="100.1 168.66 100.1 168.98 98.1 167.82 98.1 167.5 100.1 168.66"/><polygon class="cls-21" points="102.14 167.47 100.1 168.66 98.1 167.5 100.14 166.32 102.14 167.47"/><polygon class="cls-17" points="114.93 174.86 114.92 175.19 112.9 176.36 112.9 176.04 114.93 174.86"/><polygon class="cls-17" points="112.9 176.04 112.9 176.36 100.66 169.3 100.66 168.98 112.9 176.04"/><polygon class="cls-21" points="114.93 174.86 112.9 176.04 100.66 168.98 102.69 167.8 114.93 174.86"/><polygon class="cls-17" points="117.49 176.34 117.49 176.67 115.46 177.84 115.46 177.52 117.49 176.34"/><polygon class="cls-17" points="115.46 177.52 115.46 177.84 113.45 176.68 113.45 176.36 115.46 177.52"/><polygon class="cls-21" points="117.49 176.34 115.46 177.52 113.45 176.36 115.49 175.19 117.49 176.34"/><polygon class="cls-17" points="120.05 177.82 120.05 178.14 118.02 179.32 118.02 178.99 120.05 177.82"/><polygon class="cls-17" points="118.02 178.99 118.02 179.32 116.02 178.16 116.02 177.84 118.02 178.99"/><polygon class="cls-21" points="120.05 177.82 118.02 178.99 116.02 177.84 118.05 176.67 120.05 177.82"/><polygon class="cls-17" points="125.17 180.78 125.17 181.1 123.14 182.27 123.14 181.95 125.17 180.78"/><polygon class="cls-17" points="123.14 181.95 123.14 182.27 118.58 179.65 118.58 179.32 123.14 181.95"/><polygon class="cls-21" points="125.17 180.78 123.14 181.95 118.58 179.32 120.61 178.14 125.17 180.78"/><polygon class="cls-22" points="110.56 153.01 133.9 166.48 133.9 149.68 133.9 149.68 110.56 136.2 110.56 153.01"/><polygon class="cls-18" points="132.32 151.28 123.99 146.45 123.99 158.17 132.32 162.98 132.32 151.28"/><polygon class="cls-21" points="112.88 140.73 122.23 146.13 122.23 145.45 112.88 140.05 112.88 140.73"/><polygon class="cls-21" points="112.88 142.32 122.23 147.71 122.23 147.03 112.88 141.63 112.88 142.32"/><polygon class="cls-21" points="112.88 143.91 122.23 149.3 122.23 148.61 112.88 143.22 112.88 143.91"/><polygon class="cls-21" points="112.88 145.5 122.23 150.89 122.23 150.2 112.88 144.81 112.88 145.5"/><polygon class="cls-21" points="112.88 147.08 122.23 152.48 122.23 151.79 112.88 146.39 112.88 147.08"/><polygon class="cls-21" points="112.88 148.66 122.23 154.06 122.23 153.37 112.88 147.97 112.88 148.66"/><polygon class="cls-21" points="112.88 151.84 119.39 155.6 119.39 154.9 112.88 151.14 112.88 151.84"/><polygon class="cls-21" points="112.88 150.25 122.23 155.64 122.23 154.96 112.88 149.56 112.88 150.25"/><polygon class="cls-23" points="127.45 149.51 124.99 153.01 129.92 155.86 127.45 149.51"/><polygon class="cls-24" points="129.43 151.68 126.96 155.19 131.89 158.04 129.43 151.68"/><path class="cls-15" d="M131.35,158.88c0,1.22-.86,1.72-1.92,1.09a4.27,4.27,0,0,1-1.93-3.33c0-1.23.86-1.72,1.93-1.1A4.26,4.26,0,0,1,131.35,158.88Z"/></svg>