<svg xmlns="http://www.w3.org/2000/svg" xmlns:xlink="http://www.w3.org/1999/xlink" viewBox="0 0 1205.31 2024.62"><defs><style>.cls-1{fill:url(#linear-gradient);}.cls-2{fill:url(#linear-gradient-2);}.cls-3{fill:url(#linear-gradient-3);}.cls-4{fill:url(#linear-gradient-4);}.cls-5{fill:url(#linear-gradient-5);}.cls-6{fill:url(#linear-gradient-6);}.cls-7{fill:url(#linear-gradient-7);}.cls-8{fill:url(#linear-gradient-8);}.cls-9{fill:url(#linear-gradient-9);}.cls-10{fill:url(#linear-gradient-10);}.cls-11{fill:url(#linear-gradient-11);}</style><linearGradient id="linear-gradient" x1="790.16" y1="98.69" x2="341.87" y2="462.31" gradientUnits="userSpaceOnUse"><stop offset="0" stop-color="#fff" stop-opacity="0"/><stop offset="0.37" stop-color="#fff" stop-opacity="0.01"/><stop offset="0.61" stop-color="#fff" stop-opacity="0.04"/><stop offset="0.8" stop-color="#fff" stop-opacity="0.1"/><stop offset="0.97" stop-color="#fff" stop-opacity="0.18"/><stop offset="1" stop-color="#fff" stop-opacity="0.2"/></linearGradient><linearGradient id="linear-gradient-2" x1="288.04" y1="21.82" x2="134.45" y2="146.4" gradientUnits="userSpaceOnUse"><stop offset="0" stop-color="#fff" stop-opacity="0"/><stop offset="0.47" stop-color="#fff" stop-opacity="0.01"/><stop offset="0.76" stop-color="#fff" stop-opacity="0.04"/><stop offset="1" stop-color="#fff" stop-opacity="0.1"/><stop offset="1" stop-color="#fff" stop-opacity="0.1"/></linearGradient><linearGradient id="linear-gradient-3" x1="940.16" y1="811.69" x2="491.87" y2="1175.31" xlink:href="#linear-gradient"/><linearGradient id="linear-gradient-4" x1="325.79" y1="331.9" x2="29.76" y2="572.01" gradientTransform="matrix(-0.99, -0.17, -0.17, 0.99, 423.92, 38.06)" xlink:href="#linear-gradient"/><linearGradient id="linear-gradient-5" x1="-543.81" y1="-33.45" x2="-751.19" y2="134.76" gradientTransform="matrix(-0.15, -0.99, -0.99, 0.15, 943.02, -535.93)" xlink:href="#linear-gradient"/><linearGradient id="linear-gradient-6" x1="1180.95" y1="401.6" x2="922.56" y2="465.94" gradientTransform="translate(-78.66 579.14) rotate(-30)" xlink:href="#linear-gradient-2"/><linearGradient id="linear-gradient-7" x1="417.04" y1="1381.82" x2="263.45" y2="1506.4" xlink:href="#linear-gradient-2"/><linearGradient id="linear-gradient-8" x1="1221.55" y1="1917.68" x2="1005.55" y2="1916.15" gradientUnits="userSpaceOnUse"><stop offset="0" stop-color="#fff" stop-opacity="0.1"/><stop offset="0" stop-color="#fff" stop-opacity="0.1"/><stop offset="0.24" stop-color="#fff" stop-opacity="0.04"/><stop offset="0.53" stop-color="#fff" stop-opacity="0.01"/><stop offset="1" stop-color="#fff" stop-opacity="0"/></linearGradient><linearGradient id="linear-gradient-9" x1="798.16" y1="1606.69" x2="349.87" y2="1970.31" xlink:href="#linear-gradient"/><linearGradient id="linear-gradient-10" x1="-725.37" y1="1378.12" x2="-1021.41" y2="1618.24" gradientTransform="matrix(-0.99, -0.17, -0.17, 0.99, 423.92, 38.06)" xlink:href="#linear-gradient"/><linearGradient id="linear-gradient-11" x1="295.44" y1="1870.77" x2="37.06" y2="1935.11" gradientTransform="translate(-931.89 333.22) rotate(-30)" xlink:href="#linear-gradient-2"/></defs><g id="Layer_2" data-name="Layer 2"><g id="Layer_1-2" data-name="Layer 1"><circle class="cls-1" cx="580.81" cy="268.5" r="233.5"/><circle class="cls-2" cx="216.31" cy="80" r="80"/><circle class="cls-3" cx="730.81" cy="981.5" r="233.5"/><polygon class="cls-4" points="0 491.42 159.5 502.7 319.01 513.97 249.02 370.2 179.03 226.43 89.51 358.93 0 491.42"/><polygon class="cls-5" points="925.94 5.05 953.25 113.69 980.56 222.32 1060.99 144.35 1141.41 66.38 1033.67 35.72 925.94 5.05"/><rect class="cls-6" x="954.17" y="349.18" width="174.36" height="174.36" transform="translate(357.69 -462.21) rotate(30)"/><circle class="cls-7" cx="345.31" cy="1440" r="80"/><circle class="cls-8" cx="1125.31" cy="1917" r="80"/><circle class="cls-9" cx="588.81" cy="1776.5" r="233.5"/><polygon class="cls-10" points="860.94 1699.03 1020.44 1710.3 1179.94 1721.57 1109.95 1577.8 1039.96 1434.03 950.45 1566.53 860.94 1699.03"/><rect class="cls-11" x="68.67" y="1818.35" width="174.36" height="174.36" transform="translate(973.65 177.37) rotate(30)"/></g></g></svg>