<svg xmlns="http://www.w3.org/2000/svg" viewBox="0 0 696.21 453.24"><defs><style>.cls-1{fill:#e6e6e6;}.cls-2{fill:#ccc;}.cls-3{fill:#b3b3b3;}.cls-37,.cls-4{fill:#112b46;}.cls-10,.cls-11,.cls-12,.cls-13,.cls-14,.cls-16,.cls-32,.cls-4,.cls-48,.cls-49,.cls-5,.cls-6,.cls-7,.cls-8,.cls-9{fill-rule:evenodd;}.cls-5{fill:#21496d;}.cls-28,.cls-6{fill:#495dea;}.cls-41,.cls-46,.cls-47,.cls-7{fill:#fff;}.cls-29,.cls-8{fill:#606bf1;}.cls-9{fill:#20318d;}.cls-10,.cls-45{fill:#ffc8af;}.cls-11,.cls-27{fill:#7181f4;}.cls-12{fill:#f4ae92;}.cls-13,.cls-26{fill:#ec827d;}.cls-14,.cls-33{fill:#fbd15b;}.cls-15{fill:#83c9ff;}.cls-16,.cls-17{fill:#56548c;}.cls-18,.cls-46,.cls-47{isolation:isolate;}.cls-19{fill:#a3d8ef;}.cls-20{fill:#cee9f4;}.cls-21{fill:#6cc6e5;}.cls-22{fill:#bee1f4;}.cls-23{fill:#d86868;}.cls-24{fill:#d34c4c;}.cls-25{fill:#f49898;}.cls-30{fill:#efbc3f;}.cls-31{fill:#ffdc85;}.cls-32{fill:#f2ad91;}.cls-34{fill:#a5b7c6;}.cls-35{fill:#b6c7d3;}.cls-36{fill:#878cf0;}.cls-38{fill:#ccd9e2;}.cls-39{fill:#eee;}.cls-40{fill:#879faf;}.cls-42{fill:#00c3b6;}.cls-43{fill:#ceccff;}.cls-44{fill:#eaeeef;}.cls-46{font-size:9.7px;}.cls-46,.cls-47{font-family:OpenSans, Open Sans;}.cls-47{font-size:11.53px;}.cls-48{fill:#303072;}.cls-49{fill:#46467f;}</style></defs><g id="Layer_2" data-name="Layer 2"><g id="Layer_1-2" data-name="Layer 1"><path class="cls-1" d="M424.86,182.36a17.63,17.63,0,0,0,12.69,4.73A24.09,24.09,0,0,0,452.2,181l.36-.31c-1-.06-2-.13-3-.21-4.52-.37-9.31-.9-13.24-3a43.66,43.66,0,0,0,20.91-1.77A37.79,37.79,0,0,0,463,165.43a21.89,21.89,0,0,1-2.62,1.39c-6,2.76-12.8,2.82-19.39,1.81A87.59,87.59,0,0,0,464.74,159a37.15,37.15,0,0,0,.46-9.3,23.31,23.31,0,0,0-2.3,2.67c-1.33,1.85-2.36,4-4.14,5.39-2.41,1.92-5.71,2.19-8.79,2.27-1.57,0-3.15.06-4.73,0,1.87-.67,3.72-1.37,5.54-2.13a33.82,33.82,0,0,0,4.78-2.29c3.78-2.28,6.64-5.73,9.2-9.39a34.64,34.64,0,0,0-1.55-5.68,45.38,45.38,0,0,1-13.91,9,71.72,71.72,0,0,0,12.65-12,32.23,32.23,0,0,0-2.68-4.63,33.84,33.84,0,0,1-12.94,9.7,44.69,44.69,0,0,0,10.5-12.83c-.89-1.05-1.84-2-2.82-3a20.64,20.64,0,0,1-2.76,2.77,21,21,0,0,1-2.78,1.9,33.11,33.11,0,0,0,3.7-6.39,46.93,46.93,0,0,0-4.11-3.22Z"/><path class="cls-1" d="M424.86,182.36c-2.38.66-6.71,0-9-1a20.09,20.09,0,0,1-6.7-4.83c-3.6-4.06-5.12-9.59-5.57-15a27.94,27.94,0,0,0,6.43,4.52,55.54,55.54,0,0,0,7.59,3c-2.57-2.57-4.91-5.44-7.75-7.7-1-.79-2.07-1.52-3-2.36a15.53,15.53,0,0,1-3.3-4,35.53,35.53,0,0,1,3-12.4,41.1,41.1,0,0,0,2.42,5.64,21.24,21.24,0,0,0,3.77,5.7,14.87,14.87,0,0,0,4.29,2.87,22.35,22.35,0,0,1-2.44-3.05c-3.22-4.82-4.14-10.76-4.89-16.52a31.46,31.46,0,0,1,4.36-4.72,30.66,30.66,0,0,0,9.22,19c-.47-.89-.88-1.82-1.3-2.75a59.49,59.49,0,0,1-3.45-9,47.94,47.94,0,0,1-1.08-5.79,20.14,20.14,0,0,1-.24-2.9,10.34,10.34,0,0,1,.07-1.11,40.48,40.48,0,0,1,5.55-3.28,20.71,20.71,0,0,0,0,7.61,23.46,23.46,0,0,0,1.49,4.47,37.27,37.27,0,0,0,4.82,8.35,30.88,30.88,0,0,1-1.91-22.34,31,31,0,0,1,4.38-1.24,23.66,23.66,0,0,0,.08,9.07,23.52,23.52,0,0,1,2.74-9.56c1.67-.24,3.36-.39,5.07-.51a19.8,19.8,0,0,0-.17,5.75,18.9,18.9,0,0,1,2.18-5.87c2.1-.13,4.27-.27,6.53-.52Z"/><path class="cls-1" d="M432.28,173c1.21.08,2.4.21,3.61.25,2.41.13,4.82.15,7.23.12s4.81-.2,7.2-.45a53.23,53.23,0,0,0,7.11-1.17,52,52,0,0,1-7.13,1c-2.39.19-4.79.26-7.18.26s-4.8-.12-7.18-.32c-1.2-.07-2.39-.22-3.58-.33l-2.7-.35,2.59-7.09A41.8,41.8,0,0,0,437,165a51.75,51.75,0,0,0,5.27-.43,64.35,64.35,0,0,0,10.31-2.21,63.93,63.93,0,0,1-10.35,1.83c-1.75.17-3.5.23-5.24.23a41.91,41.91,0,0,1-4.48-.27l2.46-6.76a32.13,32.13,0,0,0,6.34-.69,38.33,38.33,0,0,0,6.5-2,50.48,50.48,0,0,0,6.12-2.92,46.36,46.36,0,0,0,5.65-3.73,44.56,44.56,0,0,1-5.71,3.6,49.11,49.11,0,0,1-6.15,2.78,40,40,0,0,1-6.48,1.8,33.28,33.28,0,0,1-6.05.54l2.6-7.12a32,32,0,0,0,5.27-1.51,35.41,35.41,0,0,0,5.18-2.43,44.56,44.56,0,0,0,4.78-3.12,40.43,40.43,0,0,0,4.33-3.72,42.32,42.32,0,0,1-4.41,3.61,45.2,45.2,0,0,1-4.84,3,38.05,38.05,0,0,1-5.19,2.29,29.83,29.83,0,0,1-4.89,1.28l2.71-7.42a38.85,38.85,0,0,0,6.16-4.07,38,38,0,0,0,5.39-5.22,39.68,39.68,0,0,1-11.37,8.76l4.74-13-6.86,17.07a23.32,23.32,0,0,1-1.7-3.86c-.29-.74-.47-1.53-.69-2.29s-.37-1.56-.47-2.35a29.42,29.42,0,0,1-.39-4.77,26.44,26.44,0,0,1,.4-4.78,25.59,25.59,0,0,0-.5,4.78,29.54,29.54,0,0,0,.29,4.8c.09.8.28,1.59.43,2.38s.38,1.56.66,2.32a25.31,25.31,0,0,0,1.79,4.23l-2.73,6.76a34.57,34.57,0,0,1-5.75-11.41,33.49,33.49,0,0,1-1.22-6.67,30.25,30.25,0,0,1,.13-6.79,30.41,30.41,0,0,0-.28,6.81,34.86,34.86,0,0,0,1.09,6.73,33.41,33.41,0,0,0,2.39,6.41,34.67,34.67,0,0,0,3.4,5.55l-2.48,6.17-.81-.81-.67-.67-.62-.73-1.24-1.45-1.14-1.53a43.91,43.91,0,0,1-3.92-6.56,54.64,54.64,0,0,1-2.9-7.09A50.65,50.65,0,0,1,420,133a49.88,49.88,0,0,0,1.66,7.51,54.32,54.32,0,0,0,2.72,7.2,44.45,44.45,0,0,0,3.8,6.72l1.11,1.59,1.22,1.5.62.75.67.71,1,1.08-1.5,3.74a37.86,37.86,0,0,1-5-3.67,45.62,45.62,0,0,1-4.91-4.92,55.48,55.48,0,0,1-4.2-5.56,51.12,51.12,0,0,1-3.48-6.06,50.06,50.06,0,0,0,3.32,6.16,56.1,56.1,0,0,0,4.07,5.7,46.65,46.65,0,0,0,4.82,5.12,37.66,37.66,0,0,0,5.12,3.94l-1.72,4.29c-.81-.36-1.62-.71-2.41-1.09-1-.5-2-1-3-1.51-2-1-3.91-2.23-5.8-3.45a66,66,0,0,1-5.42-4,44.85,44.85,0,0,1-4.9-4.65,44.12,44.12,0,0,0,4.78,4.79,65.58,65.58,0,0,0,5.33,4.2c1.87,1.28,3.76,2.53,5.74,3.63,1,.59,2,1.08,3,1.62.8.41,1.62.79,2.43,1.17l-3.53,8.77a20.6,20.6,0,0,1-5-1.18,29.61,29.61,0,0,1-5.29-2.77,41,41,0,0,1-4.72-3.72,41.71,41.71,0,0,1-4.13-4.38,40,40,0,0,0,4,4.52,41.07,41.07,0,0,0,4.62,3.9,31.28,31.28,0,0,0,5.29,3,21.86,21.86,0,0,0,4.92,1.35l-6.17,15.35,2.15.83,5.71-15.66a30.1,30.1,0,0,0,3.71,1.57,33.17,33.17,0,0,0,4.79,1.28,34,34,0,0,0,4.91.57,29,29,0,0,0,4.93-.17,27.76,27.76,0,0,1-4.91,0,32.72,32.72,0,0,1-4.84-.76,31.39,31.39,0,0,1-8.33-3.17l2.21-6.05Z"/><path class="cls-1" d="M155.93,269.58a17.63,17.63,0,0,0,4.51-12.76,24.06,24.06,0,0,0-6.28-14.55c-.11-.12-.21-.24-.32-.35,0,1-.1,2-.15,3-.3,4.52-.75,9.31-2.78,13.28a43.73,43.73,0,0,0-2.12-20.88,37.77,37.77,0,0,0-10.42-5.56,24.13,24.13,0,0,1,1.44,2.59c2.85,5.95,3,12.75,2.12,19.36a87.65,87.65,0,0,0-10-23.59,36.73,36.73,0,0,0-9.31-.3,24.32,24.32,0,0,0,2.71,2.25c1.87,1.3,4,2.29,5.46,4,2,2.37,2.28,5.67,2.43,8.74.06,1.57.1,3.15.12,4.73-.7-1.85-1.44-3.69-2.23-5.5a32.65,32.65,0,0,0-2.37-4.73c-2.35-3.74-5.84-6.54-9.54-9a33.68,33.68,0,0,0-5.65,1.64,45.35,45.35,0,0,1,9.28,13.77,71.46,71.46,0,0,0-12.25-12.45A33.07,33.07,0,0,0,106,236a33.79,33.79,0,0,1,9.92,12.79,44.51,44.51,0,0,0-13-10.29c-1,.91-2,1.87-3,2.87a20.62,20.62,0,0,1,2.82,2.71,22.74,22.74,0,0,1,1.94,2.75,33.38,33.38,0,0,0-6.45-3.59,43.68,43.68,0,0,0-3.15,4.16Z"/><path class="cls-1" d="M155.93,269.58c.69,2.37.16,6.71-.83,9a20.06,20.06,0,0,1-4.72,6.78c-4,3.68-9.51,5.28-14.92,5.82a27.74,27.74,0,0,0,4.42-6.5,55.09,55.09,0,0,0,2.84-7.64c-2.53,2.6-5.36,5-7.57,7.88-.79,1-1.48,2.1-2.31,3.07a15.4,15.4,0,0,1-4,3.37,35.56,35.56,0,0,1-12.46-2.76,40.72,40.72,0,0,0,5.61-2.51,21.31,21.31,0,0,0,5.64-3.86,15.63,15.63,0,0,0,2.81-4.34,24.15,24.15,0,0,1-3,2.5c-4.77,3.29-10.68,4.31-16.44,5.15a30.94,30.94,0,0,1-4.8-4.28,30.82,30.82,0,0,0,10.69-3.32,31.27,31.27,0,0,0,8.15-6.22c-.88.49-1.81.92-2.73,1.34a57.77,57.77,0,0,1-8.92,3.6,45.4,45.4,0,0,1-5.77,1.18,19,19,0,0,1-2.9.28,8.32,8.32,0,0,1-1.11,0,40.36,40.36,0,0,1-3.37-5.49,20.93,20.93,0,0,0,7.61-.15,23.82,23.82,0,0,0,4.45-1.58,36.57,36.57,0,0,0,8.26-4.95,30.83,30.83,0,0,1-22.3,2.28A32.88,32.88,0,0,1,97,263.78a23.72,23.72,0,0,0,9.08-.23A23.67,23.67,0,0,1,96.44,261c-.27-1.68-.44-3.36-.59-5.07a19.45,19.45,0,0,0,5.75.07,18.85,18.85,0,0,1-5.91-2.08c-.16-2.1-.33-4.27-.62-6.52Z"/><path class="cls-1" d="M146.45,262.31c.06-1.2.15-2.4.18-3.6.09-2.41.07-4.82,0-7.23s-.27-4.8-.57-7.19a52.94,52.94,0,0,0-1.29-7.09,53.59,53.59,0,0,1,1.1,7.11c.23,2.39.34,4.79.37,7.19s0,4.79-.19,7.18c-.06,1.2-.19,2.39-.28,3.59l-.3,2.71-7.13-2.47a39.65,39.65,0,0,0,0-4.75,51.36,51.36,0,0,0-.51-5.27,64.07,64.07,0,0,0-2.39-10.27,62.71,62.71,0,0,1,2,10.32c.2,1.74.3,3.49.33,5.23a39.19,39.19,0,0,1-.21,4.48l-6.79-2.35a32.72,32.72,0,0,0-.79-6.32,39.58,39.58,0,0,0-2.06-6.47,48.25,48.25,0,0,0-3-6.06,45.46,45.46,0,0,0-3.82-5.58,45.74,45.74,0,0,1,3.7,5.65,49.32,49.32,0,0,1,2.88,6.11,38.48,38.48,0,0,1,1.91,6.45,31.34,31.34,0,0,1,.64,6l-7.16-2.48a32,32,0,0,0-1.6-5.24,36.45,36.45,0,0,0-2.51-5.14,43.33,43.33,0,0,0-3.21-4.74,41.35,41.35,0,0,0-3.79-4.26,38.92,38.92,0,0,1,3.67,4.35,43.74,43.74,0,0,1,3.07,4.79,36.32,36.32,0,0,1,2.37,5.15,31.3,31.3,0,0,1,1.37,4.86L115,254.41a39,39,0,0,0-4.16-6.09,36.51,36.51,0,0,0-5.32-5.3,37.34,37.34,0,0,1,5.17,5.42,39.53,39.53,0,0,1,3.78,5.8l-13-4.52,17.18,6.58a23.67,23.67,0,0,1-3.83,1.76c-.74.3-1.52.49-2.28.73s-1.55.39-2.34.51a29.3,29.3,0,0,1-4.76.47,25.61,25.61,0,0,1-4.79-.33,25.69,25.69,0,0,0,4.79.42,29.69,29.69,0,0,0,4.8-.38c.8-.1,1.58-.3,2.37-.47s1.56-.4,2.31-.69a25.76,25.76,0,0,0,4.2-1.85l6.81,2.6a33.44,33.44,0,0,1-5.07,3.35,32.59,32.59,0,0,1-6.25,2.6,33.51,33.51,0,0,1-6.65,1.34,30.83,30.83,0,0,1-6.79,0,30.4,30.4,0,0,0,6.81.16,34,34,0,0,0,6.71-1.2,32.51,32.51,0,0,0,6.37-2.49,34.65,34.65,0,0,0,5.49-3.49l6.21,2.38-.79.82-.67.68-.71.63-1.43,1.27-1.52,1.15a44.64,44.64,0,0,1-6.48,4,54.17,54.17,0,0,1-7,3,49.72,49.72,0,0,1-7.42,2,49.31,49.31,0,0,0,7.48-1.78,55.88,55.88,0,0,0,7.16-2.85,44.49,44.49,0,0,0,6.66-3.91l1.56-1.14,1.49-1.24.75-.63.69-.67,1.07-1,3.76,1.44a36.71,36.71,0,0,1-3.58,5.09,44.82,44.82,0,0,1-4.85,5,57.09,57.09,0,0,1-5.49,4.3,52.69,52.69,0,0,1-6,3.57,51.39,51.39,0,0,0,6.1-3.42,53.54,53.54,0,0,0,5.63-4.17,44.78,44.78,0,0,0,5-4.9,38.67,38.67,0,0,0,3.87-5.19l4.31,1.66c-.34.81-.67,1.62-1,2.42-.49,1-.93,2-1.47,3-1,2-2.16,3.95-3.34,5.86s-2.53,3.73-3.93,5.49a45.89,45.89,0,0,1-4.58,5,45.14,45.14,0,0,0,4.72-4.86c1.46-1.73,2.82-3.53,4.1-5.39s2.48-3.8,3.54-5.8c.57-1,1-2,1.57-3,.4-.81.76-1.63,1.13-2.45L151.8,269a20.63,20.63,0,0,1-1.1,5,30.66,30.66,0,0,1-2.68,5.34,41.82,41.82,0,0,1-8,9,42,42,0,0,0,8.28-8.77,30.62,30.62,0,0,0,2.9-5.34,20.63,20.63,0,0,0,1.27-4.94L168,275.22l.79-2.16L153,267.61a28.12,28.12,0,0,0,1.51-3.74,30.76,30.76,0,0,0,1.2-4.81,33.75,33.75,0,0,0,.49-4.92,30,30,0,0,0-.25-4.92,29.82,29.82,0,0,1,.06,4.91,33.1,33.1,0,0,1-.68,4.85,30.5,30.5,0,0,1-1.37,4.7,26.45,26.45,0,0,1-1.67,3.68l-6.08-2.11Z"/><ellipse class="cls-2" cx="265.08" cy="304.25" rx="72.76" ry="126.02" transform="translate(-40.6 567.67) rotate(-89.69)"/><ellipse class="cls-3" cx="392.88" cy="253.7" rx="72.76" ry="126.02" transform="translate(137.06 645.2) rotate(-89.69)"/><path class="cls-3" d="M275.59,76.81h0a28.08,28.08,0,0,0-4.41-1.74l-.24-.07c-.4-.12-.81-.22-1.22-.33l-.41-.09c-.37-.09-.73-.16-1.09-.23l-.5-.09-1.05-.16-.53-.07-1.1-.09-.49,0c-.52,0-1.06-.05-1.59-.05h0A28.36,28.36,0,0,0,247,78.73a26.34,26.34,0,0,0-3.23,2.54,27.47,27.47,0,0,0-2.84,3c-.29.35-.57.71-.85,1.07-.55.73-1.06,1.49-1.54,2.28-.24.39-.47.79-.68,1.19s-.56,1.08-.81,1.63-.52,1.19-.76,1.79a31.81,31.81,0,0,0-1,3,28.43,28.43,0,0,0-.91,7.13c0,.45,0,.89,0,1.34,0,.14,0,.29,0,.42,0,.31,0,.61.07.91s0,.33,0,.48.07.58.12.87l.06.46c.06.35.12.7.19,1,0,.11.05.23.07.34.07.37.17.74.26,1.11,0,.17.09.35.14.52s.13.47.2.71l.18.57.21.63c.07.19.14.4.21.58s.16.4.24.6c.15.37.3.74.47,1.11.07.17.14.32.22.49s.22.44.33.66.15.29.22.44l.36.66.23.4c.14.22.26.45.41.67l.18.28q.51.81,1.08,1.59h0a28.52,28.52,0,1,0,35.6-42.47Z"/><path class="cls-3" d="M191.25,67.54h0a38,38,0,0,0-6-2.37l-.33-.1c-.55-.15-1.1-.31-1.67-.44l-.56-.13-1.49-.31-.68-.12c-.47-.08-1-.15-1.43-.21l-.72-.09c-.49-.05-1-.1-1.5-.13l-.65-.06c-.73,0-1.45-.06-2.17-.06a38.87,38.87,0,0,0-38.87,38.87c0,.62,0,1.23,0,1.83,0,.19,0,.38,0,.58,0,.41,0,.82.09,1.24,0,.21,0,.43.07.66l.15,1.18.09.62c.08.48.17,1,.26,1.43l.09.47c.1.5.22,1,.34,1.5.06.24.13.47.19.71l.27,1c.09.26.16.53.25.78s.19.57.29.85.18.54.28.81l.32.8c.21.52.43,1,.65,1.54l.29.63c.14.31.3.61.45.91s.19.39.3.59.32.61.5.91.2.35.3.52.36.62.55.93a2.92,2.92,0,0,0,.24.37,38.86,38.86,0,1,0,50-55.67Z"/><path class="cls-3" d="M238,2.09c-.14,0-.28-.08-.43-.12-.7-.2-1.41-.4-2.13-.57l-.71-.17L232.8.84l-.86-.15q-.9-.15-1.83-.27L229.2.31c-.64-.07-1.28-.12-1.92-.17l-.83-.06c-.92,0-1.84-.08-2.77-.08h0A49.28,49.28,0,0,0,198,7.19c-.68.41-1.35.84-2,1.29a50,50,0,0,0-10.54,9.58,49.43,49.43,0,0,0-11.33,31.57c0,.78,0,1.57.06,2.34l0,.74c0,.54.08,1.06.12,1.59l.09.84c0,.51.12,1,.18,1.51l.12.79c.09.61.2,1.22.32,1.82l.12.6c.14.65.29,1.29.44,1.92l.24.9c.12.42.23.82.35,1.23s.2.67.32,1l.36,1.09.37,1c.13.34.27.68.41,1q.41,1,.84,2c.12.28.24.54.36.81l.58,1.16.38.74c.21.39.42.78.64,1.16l.38.67c.23.4.46.79.71,1.18.09.16.2.31.3.46A49.62,49.62,0,1,0,238,2.09Z"/><polygon class="cls-2" points="262.97 105.12 225.81 125.21 223.68 63.91 221.12 137.36 176.05 102.37 220.89 143.78 219.01 197.86 228.34 197.86 226.01 131 262.97 105.12"/><ellipse class="cls-1" cx="373.48" cy="337.68" rx="72.76" ry="126.02" transform="translate(33.78 709.32) rotate(-89.69)"/><ellipse class="cls-3" cx="462.6" cy="355.25" rx="41.53" ry="71.94" transform="translate(104.84 815.92) rotate(-89.69)"/><path class="cls-1" d="M522.24,309.58c-1.25,2-2.5,4.08-3.84,6.05-.36.53-.93,1-.9,1.52.06.73,1.21,1.77,1.65,2.35.57.75,1.59,2.5,2.41,3-1-.57-3.24-2.1-4.7-2.06a25.77,25.77,0,0,0,1,2.94,6.37,6.37,0,0,0-2.75-1.34c.18.94-.37,2.14-.57,3.06-1,4.63-1.63,10.19.45,14.61,2.26,4.79,8.65,4.05,13,3a18.42,18.42,0,0,0,6.19-2.7c.66-.46,2.87-2.81,3.84-2.1a21,21,0,0,1-.74-2.76c.61.44,1.52.3,2,.87,1-.77,1.67-2.05,2.85-2.64-.94-1-1.21-2.7-2.06-3.78a12.51,12.51,0,0,1,3.58.93,9.93,9.93,0,0,1,1.36-2.1,60,60,0,0,0,5.4-9.09,55.78,55.78,0,0,1,3.25-5.49,26.68,26.68,0,0,1-2.54-2.94c-1.09-1.16-2.24-2.3-3.31-3.45a5.13,5.13,0,0,1,1.78.48c2,.57,4.09,1.09,6.1,1.52.08-.79,3.88-8,3.49-8.17a27.19,27.19,0,0,1-3.79-2.41,18.24,18.24,0,0,0,4,0c-.64-1.41-3.4-2.74-4.49-3.89,1-.29,2.09.21,3.09.29.7.06,1.45-.14,2,.26a51.15,51.15,0,0,0,.39-6.43c.06-1.39.55-3.78,0-5.05-.37-.88-1.86-1.39-2.22-2.2a3.46,3.46,0,0,1,1.83-.14c0-.51-.4-7.55-.85-7.49-4.3.61-8.32,1.35-12.14,3.5-.71.41-1.57.67-1.77,1.38-.41,1.44.68,3.51.8,4.92-1.21-1.33-3-2.27-4.43-3.42a23.57,23.57,0,0,0-4.22,4.41c-1.05,1.52-2.32,3-3.23,4.58a10.26,10.26,0,0,0-1.3,2.2c-.33,1.62,2.94,5.09,4,6.34-1.74-.14-3.44-1.78-5.32-2s-2,1.81-3.16,2.51c.77.09,1.68,1.4,2.13,2-.88-.06-1.77-.66-2.6-.36a20.67,20.67,0,0,0,2.73,4.62c-1.09,0-2.13-.82-3.22-1.06-.53-.12-1.09-.11-1.57-.26a43.05,43.05,0,0,1-3.41,5.73C522.37,309.37,522.31,309.47,522.24,309.58Z"/><path class="cls-1" d="M556,279.38c-2.41,2.26-3.71,6.4-5.07,9.35-1.48,3.22-2.87,6.47-4.36,9.69a114,114,0,0,1-9.47,17.27c-7.62,11.06-14.6,23-23.9,32.78-.64.67-1.86-.31-1.27-1.05,8.66-10.77,17.06-21.61,24.92-33,4-5.82,7.06-12.2,10-18.59,2.66-5.7,5.15-11.74,8.51-17.06.31-.5,1.09.13.59.6Z"/><path class="cls-3" d="M323.15,429c-28,16.17-73.55,16.08-101.73-.18s-28.32-42.57-.32-58.74,73.55-16.09,101.73.18S351.15,412.83,323.15,429Z"/><path class="cls-1" d="M469.73,419.47c-6.19,3.57-16.25,3.56-22.46,0s-6.26-9.39-.07-13,16.24-3.56,22.46,0S475.92,415.9,469.73,419.47Z"/><path class="cls-1" d="M131.42,318.31c-4.36,2.51-11.44,2.5-15.82,0s-4.4-6.62,0-9.14,11.43-2.5,15.82,0S135.77,315.79,131.42,318.31Z"/><path class="cls-1" d="M530.81,287.59a10.91,10.91,0,0,1-9.86,0c-2.72-1.57-2.74-4.12,0-5.69a10.94,10.94,0,0,1,9.86,0C533.51,283.48,533.52,286,530.81,287.59Z"/><path class="cls-4" d="M173.1,282.77s10,11.71,12.69,12.49.26,3.54-1.79,3.75-8.57-.07-10.48-1.94-7.27-3.87-7.27-3.87a30.07,30.07,0,0,1,1.46-9.87Z"/><path class="cls-4" d="M176.61,200.1s1.3,25.9.82,34.39-2.54,50.66-2.54,50.66a18.29,18.29,0,0,1-9,0c-1.8-32.33-1.75-41.63-2.27-46.45s-1.15-18.76-1.15-18.76c-3.87-8,.18-18.41,2.08-20.91S176.61,200.1,176.61,200.1Z"/><path class="cls-4" d="M156.72,293.88c.34,4.74,2.05,10.32,2.48,13.15a6.69,6.69,0,0,1-1.24,5.36c-.65.91-8.66-1.74-9.75-4.82s1.15-5.78,1.33-11.57C152.11,291.38,156.72,293.88,156.72,293.88Z"/><path class="cls-5" d="M168.28,202.11s-1.37,23.58-3.54,31.43-4.13,30.87-5.06,34.89-2.05,28.83-2.05,28.83a17.81,17.81,0,0,1-8.89,0c.1-23.24-.46-42.12,0-48.49s-.18-25.26-.18-25.26c-2.06-8.79-2.19-9.92,0-15.75S160.13,197.29,168.28,202.11Z"/><path class="cls-6" d="M172.83,146.17c8.13,2.29,12.5,22.73,14.78,27.32s21.28,5.74,21.28,5.74c1.14,4-2.09,8.16-2.09,8.16-18.3-.76-24.75-2.27-28.14-9.49S163.35,148.62,172.83,146.17Z"/><path class="cls-7" d="M172.83,146.17c-7.23-.33-24,3.43-29.5,10.47s2.49,19.47,4.42,27-.89,26.3-.88,28.11c8.56,5.67,29.18,6.39,31.5-2.08.95-9.22-1.16-20.15-1.27-25.54C177.37,172.52,182.39,149.59,172.83,146.17Z"/><path class="cls-8" d="M166.62,147.71c4.65,16.33,5.75,34.66,5.29,41.59s-.64,29.35-.64,29.35c5.41-2.85,7.79-8.07,7.79-10.45s-2-22.65-2-24.29,2.73-20.25,2-28.61-6.24-9.31-6.24-9.31h-7Z"/><path class="cls-9" d="M171.09,128.17c3.18,1,0,8.24,0,8.24Z"/><path class="cls-10" d="M171.27,129.12a22.24,22.24,0,0,1,.75,7.52c-.45,3.29-.75,9.85-3.67,12s-7.09-.34-9.87-2.69A16.51,16.51,0,0,1,152.71,134c-.07-5.25,2-11.68,9.55-11.35S171.27,129.12,171.27,129.12Z"/><path class="cls-10" d="M156.58,141.25s.59,6.75-1.18,9.25c-.13,1.66,4.64,8.7,9.37,7.47,2.76-.72,2.43-3.93,2.43-3.93a77.25,77.25,0,0,1,0-8.4Z"/><path class="cls-4" d="M173.13,123.46c1.07,3.89-.15,5.29-3.43,6.41s-12-1.42-12-1.42c.59,4.17-.72,6.33-.72,6.33-1.45-4.09-2.75-2-2.89,1.26s1.71,3.2,1.71,3.2c-.13,2.75-1,3.69-1,3.69-3.51-2.42-8.28-18.63-2-19C152.91,118.26,170.82,115.13,173.13,123.46Z"/><path class="cls-8" d="M155.11,149.42c5.62,11.86,8.57,22.69,8.37,32.47s-2.21,38.27-2.21,38.27c-9.76-2.37-16.4-5.12-18.31-8.45,4.18-11,5.7-18.42,4.85-21.56s-8.23-27-4.4-34.12C147.05,152.07,155.11,149.42,155.11,149.42Z"/><path class="cls-11" d="M146.59,155.83c6.73,3.34,12.06,21.89,17.19,26.86,2.91,2.82,17.26,6.49,21.25,6.6,1.54,3.52-1.23,7.43-1.23,7.43-24.5-2.3-25.58-3.64-33.12-13.26C141.33,171.52,137.59,153.53,146.59,155.83Z"/><path class="cls-12" d="M167.34,149.21c-2,.78-5-.44-8.91-3.56,0,0,1.15,4.55,8.91,6.21Z"/><path class="cls-7" d="M156.36,147.84a14.34,14.34,0,0,1-1.25,1.57s2.43,5.33,3.31,7.69a12.43,12.43,0,0,0,3.2,4.31l3.16-3.45C160.42,155.67,156.36,147.84,156.36,147.84Z"/><path class="cls-7" d="M166.81,149.54c-.28-.36-1,6.65-2,8.44A13,13,0,0,0,168,160.4S169.22,152.54,166.81,149.54Z"/><path class="cls-4" d="M381.88,222.43c-.25,3.5-.57,7-.57,7h-.79s0-5.3-.82-4.18C379.81,222.37,381.88,222.43,381.88,222.43Z"/><path class="cls-10" d="M371.05,228.31c-.37,0-.88-.4-1.33-1,.8-.95,1.59-1.88,2.11-2.61,1.69-2.34,4.42-7.53,4.54-9.87s-1.3-26.73-1.68-29.72-1.51-14.27-1.41-14.92,10.49,4,10.49,4c-.13.92-1.53,6.76-1,10.52s1.48,6.25,1,12.41-3.5,16-2.46,20.68c0,.09,0,.16.05.25C378.31,222.22,377.23,230.36,371.05,228.31Z"/><path class="cls-4" d="M369.72,227.29c.45.62,1,1,1.33,1,6.18,2.06,7.25-6.08,10.31-10.27,1,4.45.53,5-.27,5.6s-3.68,4.15-4.2,6.62-8.3,2.2-9.73,1.68C366.18,231.58,368,229.39,369.72,227.29Z"/><path class="cls-10" d="M392.51,195.21c.31,2.73,1.91,23.76,1.64,27.26a67.2,67.2,0,0,1-1.8,8.2,9.07,9.07,0,0,0-.41,3.87c.63,1.79.66,7.14,3.55,5.94s4.83-4.94,4.23-9.06.12-6.1-.05-8.56,1.48-17.79,1.75-23.22-1.56-8.06-1.7-11.69a92,92,0,0,1,1-11.21s-12.51-6.56-11.48,1.35S392.21,192.49,392.51,195.21Z"/><path class="cls-4" d="M391.42,234.73c.2,3.66,1.17,7,4.07,5.75s4.83-4.94,4.23-9.06c-1.55,4.55-7.5,4.36-7.38-.74A27.45,27.45,0,0,0,391.42,234.73Z"/><path class="cls-13" d="M372.43,144.1s0,25.35,0,33.66,2.16,36.36,2.16,36.36a11.53,11.53,0,0,0,8.36-.39c.61-7.24,2.74-19.16,3.1-25.42s-2.49-7.31-1.3-11.88,4.4-29.07,4.4-29.07Z"/><path class="cls-13" d="M386.05,149.44s2.16,27.21,3.1,30.67,1.59,16.75,2.27,21.33.75,17.76.75,17.76c1.65,5.39,8.48.84,8.48.84,2.84-16.87.87-25.26.79-30.2s2.33-17.87,1.84-23.25-1.07-16.54,0-18.62,2.22-5.52,2.61-11.73c-8.05-3.06-20.69.38-20.69.38Z"/><path class="cls-7" d="M373.65,90.19c7.13-.35,19.24,8.08,24.72,15s2.09,14.41.24,21.81,1,26,1,27.74c-8.42,5.64-24.15,6.36-26.48-2-1-9.09,1-18.56,1.13-23.88C373.93,117.44,364.23,93.63,373.65,90.19Z"/><path class="cls-14" d="M379.88,91.85c-3.71,16.13-2.54,33.54-1.72,40.37s1,29.57,1,29.57c-5.49-2.78-8.12-7.92-8.25-10.26s2-22.05,1.85-23.65-3-16.84-2.66-25.08,3.4-9.49,3.4-9.49l7.06-3.16Z"/><path class="cls-14" d="M390.21,93.54c-5.49,11.74-2.85,22.5-2.6,32.15s5.24,36.76,5.24,36.76c9.62-2.4,10.77-8.84,12.62-12.13,4.44-22.57-1.16-40.92-5.33-47.69C396.86,97.32,390.21,93.54,390.21,93.54Z"/><path class="cls-15" d="M351.53,130.05a5.33,5.33,0,0,0,4.84,0c1.34-.77,1.35-2,0-2.8a5.39,5.39,0,0,0-4.84,0C350.2,128,350.2,129.28,351.53,130.05Z"/><path class="cls-14" d="M396.27,102.8c-6.65,3.27-7.27,22.84-12.36,27.72-2.89,2.77-14.43.56-18.37.64-1.54,3.47.55,7.66.55,7.66,22,1.08,24.64,1.75,30.22-8.93C400.68,121.54,405.17,100.57,396.27,102.8Z"/><path class="cls-14" d="M373.47,93.31c-4.25,2.22-6.28,20-11.36,24.51-2.89,2.52-4.17,4.84-10,7.76-1.54,3.17,2.64,5.15,2.64,5.15,11.72-4.43,14.4-8.25,18.32-14.17C377.88,109.23,382.37,91.28,373.47,93.31Z"/><path class="cls-10" d="M354.48,130.09a22.09,22.09,0,0,1-2.3,2.79c-1,1.15-2.63,3.14-3.13,2.64s.46-2.46.46-2.46a35.05,35.05,0,0,0-3.55,3.81c-.54,1-.23-1.81.55-3.08-1.93,2.93-2.39,3.59-2.54,2.85s1.44-4.7,1.21-4.31c-2.22,3.35-3.07,3.81-2.84,2.27s2.39-4.17,3.7-4.9c-3.86,2.51-4.12,2.24-3.16,1.12a16.68,16.68,0,0,1,9.3-4.51C355.21,129.18,354.48,130.09,354.48,130.09Z"/><path class="cls-10" d="M351.92,136.24c1.25-1.94,3.05-4.15,5.36-4.79a8.71,8.71,0,0,1,4.91.42,38.19,38.19,0,0,1,4.32,1.15,11,11,0,0,1,.89,4.1,4.09,4.09,0,0,1-.85.19,29.51,29.51,0,0,1-4.05.59,16.61,16.61,0,0,1-3.15,0c.34.1.73.26.79.61a.63.63,0,0,1-.5.63c-2,.51-3.7-1.88-4.91-3C354.85,136.27,350.3,138.75,351.92,136.24Z"/><path class="cls-16" d="M372.58,73.76a4.17,4.17,0,0,0-.27.6c-.36,1.06-.11,2.33-.36,3.43-.41,1.75-1.66,3.13-2.24,4.84-2.16,6.23,4,9.72,9.41,9.27a5.29,5.29,0,0,0,2.72-.88c2.6-2-.34-5.18-1.57-7-.86-1.29-2.06-3-2.16-4.62s.7-2.79.4-4.39A3.2,3.2,0,0,0,372.58,73.76Z"/><path class="cls-10" d="M388.6,86.36s-1.77,6.13,2.28,8.7c.12,1.49-4.12,7.83-8.38,6.75-2.48-.63-3.75-4.17-3.75-4.17.26-2.2,1.51-6.87,1.51-6.87Z"/><path class="cls-10" d="M374.25,73.91a20.61,20.61,0,0,0-.68,6.91c.41,3,.68,9,3.36,10.94s6.5-.31,9-2.46a15.08,15.08,0,0,0,5.29-10.94c.06-4.81-1.82-10.7-8.75-10.4S374.25,73.91,374.25,73.91Z"/><path class="cls-16" d="M379.1,71c-1.79,2.2-.94,4.89,1.27,6.5,1.54,1.12,2.88,1.83,3.9,3.55a11.77,11.77,0,0,1,1.56,5.29c.08,1.53.09,3.05.17,4.57,0,.71.07,1.68.83,1.87a6.31,6.31,0,0,0,3.45-.88A12.62,12.62,0,0,0,393.6,89a13.14,13.14,0,0,0,3.13-7.91c.2-5.37-2.87-8.83-6.76-12S382.29,67.08,379.1,71Z"/><path class="cls-16" d="M376.74,68.29l.05,0c1.35-.91,6.85-2.62,6.87.19s-4.09,5.61-6.26,6.85A23.18,23.18,0,0,0,374.58,77c-1.14.88-1.23,2.56-2.23,3.32-1.52-1.46-1.13-5.07-.52-6.88C372.63,71,374.74,69.66,376.74,68.29Z"/><path class="cls-12" d="M379.83,92.46c2.84-.24,5.93-3,5.93-3s-.64,3.3-6.29,4.48Z"/><path class="cls-17" d="M460.46,257.92c-2.74,4.27-2.1,7.29-1.32,7.63,16.23,7.23,26.33,5,28.81,4.19-2.68-3.74-5.23-7.35-8.26-11.44C471.72,259.76,460.46,257.92,460.46,257.92Z"/><g class="cls-18"><polygon class="cls-19" points="413.16 142.5 413.12 160.28 380.84 179.04 380.89 161.26 413.16 142.5"/><polygon class="cls-20" points="267.32 161.27 267.27 179.34 234.24 160.27 234.29 142.2 267.32 161.27"/><path class="cls-21" d="M351.52,186.16l.05-17.93c0-2.52,1.67-5,5-7,6.68-3.88,17.56-3.88,24.28,0l-.06,17.93c-6.72-3.88-17.6-3.88-24.27,0C353.19,181.1,351.53,183.63,351.52,186.16Z"/><path class="cls-19" d="M296.64,168.34l-.05,17.87c0-2.55-1.68-5.11-5.06-7.06-6.71-3.87-17.55-3.87-24.21,0l.05-17.87c6.67-3.87,17.51-3.88,24.21,0C295,163.23,296.65,165.79,296.64,168.34Z"/><polygon class="cls-20" points="324.45 194.21 324.4 212.28 291.38 193.22 291.43 175.15 324.45 194.21"/><polygon class="cls-19" points="356.78 175.44 356.73 193.22 324.45 211.98 324.51 194.2 356.78 175.44"/><path class="cls-22" d="M413.34,142.37l-32.51,18.89c-6.71-3.88-17.58-3.88-24.25,0s-6.65,10.18.07,14.05L324.14,194.2l-32.72-18.88c6.69-3.88,6.65-10.18-.08-14.06s-17.58-3.88-24.26,0l-32.72-18.89,89.2-51.84Z"/></g><g class="cls-18"><path class="cls-23" d="M269.58,183.51l-.06,18.7c0,2.64-1.74,5.28-5.21,7.3l.06-18.71C267.83,188.78,269.57,186.14,269.58,183.51Z"/><polygon class="cls-23" points="296.64 210.06 296.6 227.84 264.31 246.59 264.37 228.81 296.64 210.06"/><path class="cls-24" d="M235,253.72l.06-17.92c0-2.53,1.67-5.05,5-7,6.68-3.89,17.56-3.89,24.27,0l-.05,17.92c-6.72-3.88-17.6-3.88-24.28,0C236.66,248.66,235,251.19,235,253.72Z"/><polygon class="cls-23" points="240.26 243.01 240.21 260.78 207.93 279.54 207.98 261.76 240.26 243.01"/><polygon class="cls-25" points="207.93 261.7 207.88 279.53 118.47 227.91 118.52 210.07 207.93 261.7"/><path class="cls-26" d="M264.29,177c6.72,3.88,6.75,10.18.08,14.06l32.71,18.88-32.5,18.9c-6.71-3.88-17.59-3.88-24.26,0s-6.64,10.17.08,14.05l-32.5,18.9-89.78-51.84,89.2-51.83L240,177C246.7,173.11,257.56,173.1,264.29,177Z"/></g><g class="cls-18"><path class="cls-27" d="M378.58,202l.06-18.43c0,2.63,1.73,5.27,5.2,7.28l0,18.43C380.31,207.3,378.57,204.66,378.58,202Z"/><polygon class="cls-27" points="384.6 228.83 384.54 246.9 351.52 227.83 351.56 209.76 384.6 228.83"/><path class="cls-28" d="M413.16,235.91l-.05,17.86c0-2.55-1.68-5.11-5.05-7.06-6.7-3.87-17.55-3.87-24.22,0l.06-17.86c6.67-3.87,17.5-3.87,24.22,0C411.48,230.79,413.17,233.35,413.16,235.91Z"/><polygon class="cls-27" points="440.98 261.77 440.93 279.84 407.9 260.78 407.95 242.71 440.98 261.77"/><polygon class="cls-28" points="530.44 209.85 530.39 227.8 440.98 279.75 441.03 261.8 530.44 209.85"/><path class="cls-29" d="M530.37,209.93l-89.21,51.84-32.72-18.89c6.67-3.88,6.64-10.18-.07-14s-17.59-3.88-24.28,0l-32.72-18.89,32.51-18.89c-6.72-3.88-6.75-10.17-.07-14.05s17.53-3.88,24.25,0l32.51-18.9Z"/></g><g class="cls-18"><path class="cls-30" d="M386.85,251.06l-.05,18.71c0,2.64-1.75,5.28-5.21,7.3l.05-18.71C385.11,256.34,386.84,253.71,386.85,251.06Z"/><path class="cls-31" d="M262.81,269.58l.05-18.41c0,2.63,1.74,5.26,5.21,7.27L268,276.85C264.54,274.85,262.8,272.21,262.81,269.58Z"/><path class="cls-32" d="M292.89,335.6s.88.3,2.94,1.16,6.52,1.16,9.28.72,6.6-1.06,5.86-2.08-14.7-4.51-15.29-4.23S292.89,335.6,292.89,335.6Z"/><polygon class="cls-31" points="325.21 329.4 325.15 347.38 235 295.32 235.04 277.35 325.21 329.4"/><polygon class="cls-30" points="413.92 277.41 413.86 295.36 324.45 347.32 324.51 329.37 413.92 277.41"/><path class="cls-33" d="M381.31,244.55c6.71,3.88,6.75,10.17.06,14.05l32.73,18.89-89.19,51.84-89.79-51.84,32.51-18.9c-6.72-3.88-6.76-10.16-.08-14s17.54-3.88,24.26,0l32.5-18.89L357,244.54C363.71,240.66,374.58,240.66,381.31,244.55Z"/></g><g class="cls-18"><path class="cls-34" d="M325.21,273.62v1.89c0,1.5-1,3-2.95,4.12a15.78,15.78,0,0,1-14.35,0c-2-1.16-3-2.68-3-4.19v-1.89c0,1.51,1,3,3,4.18a15.82,15.82,0,0,0,14.35,0C324.22,276.6,325.21,275.11,325.21,273.62Z"/><path class="cls-35" d="M322.15,269.55c3.92,2.27,3.94,5.93.05,8.19a15.52,15.52,0,0,1-14.12,0c-3.91-2.25-3.94-5.92-.05-8.18A15.61,15.61,0,0,1,322.15,269.55Z"/></g><path class="cls-35" d="M338.67,213.11a2.3,2.3,0,0,0-2.31.23L286.55,242.1a7.91,7.91,0,0,0-3.44,5.61V285a3.27,3.27,0,0,0,1.22,2.08l3.22,1.87a4.69,4.69,0,0,1-1.44-2.08V249.58a9,9,0,0,1,3.65-5.61l49.82-28.76a2.28,2.28,0,0,1,2.3-.23Z"/><path class="cls-34" d="M340,215.11c1.8-1,3.25-.21,3.26,1.86l.07,37.34a7.12,7.12,0,0,1-3.23,5.61l-50,28.85c-1.8,1-3.26.2-3.26-1.86l-.08-37.34a7.17,7.17,0,0,1,3.24-5.63Z"/><polygon class="cls-36" points="340.99 224.45 340.99 217.25 339.59 218.05 336.58 219.79 296.37 243.01 289.12 247.2 289.12 249.56 289.12 249.56 289.12 267.25 289.15 282.04 320.96 263.68 325.91 260.81 340.99 252.11 340.99 224.45"/><polygon class="cls-29" points="296.32 243.02 289.12 247.17 289.13 249.44 340.99 219.5 340.99 217.23 296.32 243.02"/><path class="cls-29" d="M294.9,252.23a3.59,3.59,0,0,1-1.63,2.83c-.9.52-1.63.1-1.63-.94a3.62,3.62,0,0,1,1.63-2.83C294.18,250.77,294.9,251.2,294.9,252.23Z"/><path class="cls-26" d="M294.9,258a3.59,3.59,0,0,1-1.63,2.82c-.9.52-1.63.1-1.63-.94a3.61,3.61,0,0,1,1.63-2.82C294.18,256.52,294.9,256.94,294.9,258Z"/><path class="cls-33" d="M294.9,263.66a3.59,3.59,0,0,1-1.63,2.83c-.9.52-1.63.09-1.63-.94a3.62,3.62,0,0,1,1.63-2.83C294.18,262.19,294.9,262.62,294.9,263.66Z"/><path class="cls-26" d="M294.69,282.59a2.61,2.61,0,0,1-1.18,2c-.64.38-1.17.07-1.17-.68a2.63,2.63,0,0,1,1.17-2C294.17,281.54,294.69,281.84,294.69,282.59Z"/><polygon class="cls-17" points="360.91 284.03 344.96 274.82 366.19 262.56 382.15 271.77 360.91 284.03"/><polygon class="cls-37" points="361.29 284.68 361.29 283.98 382.34 271.83 382.34 272.52 361.29 284.68"/><polygon class="cls-37" points="360.54 283.99 360.54 284.68 344.75 275.57 344.75 274.88 360.54 283.99"/><polygon class="cls-38" points="304.16 295.13 304.16 296.52 319.94 305.69 319.94 304.31 304.16 295.13"/><polygon class="cls-34" points="319.19 304.28 319.2 305.65 353.77 285.7 353.77 284.32 319.19 304.28"/><polygon class="cls-35" points="304.02 295.2 319.58 304.26 354.06 284.35 338.49 275.3 304.02 295.2"/><g class="cls-18"><polygon class="cls-38" points="336.48 277.53 336.49 278.25 338.74 279.56 338.74 278.84 336.48 277.53"/><polygon class="cls-34" points="338.74 278.85 338.74 279.57 340.99 278.27 340.99 277.54 338.74 278.85"/><polygon class="cls-35" points="336.38 277.57 338.54 278.83 340.67 277.6 338.51 276.35 336.38 277.57"/></g><g class="cls-18"><polygon class="cls-38" points="333.48 279.11 333.48 279.82 335.73 281.13 335.73 280.42 333.48 279.11"/><polygon class="cls-34" points="335.73 280.42 335.73 281.14 337.99 279.85 337.99 279.12 335.73 280.42"/><polygon class="cls-35" points="333.66 279.15 335.81 280.4 337.94 279.18 335.78 277.92 333.66 279.15"/></g><g class="cls-18"><polygon class="cls-38" points="331.22 280.68 331.23 281.4 333.48 282.7 333.48 281.99 331.22 280.68"/><polygon class="cls-34" points="332.72 281.99 332.72 282.71 334.98 281.42 334.98 280.69 332.72 281.99"/><polygon class="cls-35" points="330.93 280.73 333.09 281.97 335.21 280.75 333.06 279.49 330.93 280.73"/></g><g class="cls-18"><polygon class="cls-38" points="328.21 282.25 328.22 282.97 330.47 284.28 330.47 283.56 328.21 282.25"/><polygon class="cls-34" points="330.47 283.56 330.47 284.29 332.72 282.99 332.72 282.26 330.47 283.56"/><polygon class="cls-35" points="328.21 282.3 330.37 283.54 332.49 282.32 330.34 281.06 328.21 282.3"/></g><g class="cls-18"><polygon class="cls-38" points="325.21 283.82 325.21 284.54 327.46 285.86 327.46 285.14 325.21 283.82"/><polygon class="cls-34" points="327.46 285.14 327.46 285.87 329.72 284.57 329.72 283.84 327.46 285.14"/><polygon class="cls-35" points="325.49 283.87 327.64 285.12 329.76 283.9 327.61 282.64 325.49 283.87"/></g><g class="cls-18"><polygon class="cls-38" points="322.95 285.39 322.96 286.11 325.21 287.42 325.21 286.71 322.95 285.39"/><polygon class="cls-34" points="325.21 286.71 325.21 287.44 327.46 286.14 327.46 285.41 325.21 286.71"/><polygon class="cls-35" points="322.76 285.44 324.92 286.69 327.04 285.47 324.88 284.21 322.76 285.44"/></g><g class="cls-18"><polygon class="cls-38" points="319.94 286.97 319.95 287.69 322.2 288.99 322.2 288.28 319.94 286.97"/><polygon class="cls-34" points="322.2 288.28 322.2 289.01 324.45 287.71 324.45 286.98 322.2 288.28"/><polygon class="cls-35" points="320.04 287.01 322.19 288.27 324.32 287.04 322.16 285.79 320.04 287.01"/></g><g class="cls-18"><polygon class="cls-38" points="316.94 288.54 316.94 289.26 319.19 290.58 319.19 289.85 316.94 288.54"/><polygon class="cls-34" points="319.19 289.85 319.19 290.58 321.45 289.28 321.45 288.56 319.19 289.85"/><polygon class="cls-35" points="317.31 288.59 319.46 289.84 321.6 288.61 319.44 287.36 317.31 288.59"/></g><g class="cls-18"><polygon class="cls-38" points="314.68 290.12 314.69 290.83 316.94 292.14 316.94 291.42 314.68 290.12"/><polygon class="cls-34" points="316.94 291.42 316.94 292.16 319.19 290.85 319.19 290.13 316.94 291.42"/><polygon class="cls-35" points="314.59 290.16 316.74 291.41 318.87 290.18 316.71 288.94 314.59 290.16"/></g><g class="cls-18"><polygon class="cls-38" points="311.68 291.69 311.68 292.4 313.93 293.71 313.93 293 311.68 291.69"/><polygon class="cls-34" points="313.93 293 313.93 293.73 316.19 292.42 316.19 291.7 313.93 293"/><polygon class="cls-35" points="311.87 291.73 314.02 292.99 316.15 291.75 313.99 290.51 311.87 291.73"/></g><g class="cls-18"><polygon class="cls-38" points="306.41 294.83 306.42 295.55 308.67 296.86 308.67 296.14 306.41 294.83"/><polygon class="cls-34" points="308.67 296.05 308.67 296.69 313.18 294.08 313.18 293.45 308.67 296.05"/><polygon class="cls-35" points="306.41 294.87 308.57 296.13 313.43 293.32 311.27 292.08 306.41 294.87"/></g><g class="cls-18"><polygon class="cls-38" points="336.48 280.7 336.48 281.42 338.74 282.73 338.74 282.02 336.48 280.7"/><polygon class="cls-34" points="338.74 281.93 338.74 282.56 343.25 279.96 343.24 279.32 338.74 281.93"/><polygon class="cls-35" points="336.4 280.75 338.56 282 343.41 279.2 341.26 277.94 336.4 280.75"/></g><g class="cls-18"><polygon class="cls-38" points="333.48 282.27 333.48 282.99 335.73 284.3 335.73 283.59 333.48 282.27"/><polygon class="cls-34" points="335.73 283.59 335.73 284.32 337.99 283.02 337.98 282.28 335.73 283.59"/><polygon class="cls-35" points="333.68 282.32 335.84 283.57 337.96 282.34 335.81 281.09 333.68 282.32"/></g><g class="cls-18"><polygon class="cls-38" points="331.22 283.85 331.22 284.56 333.48 285.87 333.47 285.16 331.22 283.85"/><polygon class="cls-34" points="332.72 285.16 332.73 285.88 334.98 284.59 334.97 283.86 332.72 285.16"/><polygon class="cls-35" points="330.96 283.89 333.11 285.15 335.24 283.91 333.09 282.67 330.96 283.89"/></g><g class="cls-18"><polygon class="cls-38" points="328.21 285.43 328.21 286.14 330.47 287.44 330.47 286.73 328.21 285.43"/><polygon class="cls-34" points="330.47 286.73 330.47 287.46 332.72 286.16 332.72 285.43 330.47 286.73"/><polygon class="cls-35" points="328.23 285.47 330.39 286.72 332.51 285.49 330.36 284.24 328.23 285.47"/></g><g class="cls-18"><polygon class="cls-38" points="325.21 287 325.21 287.71 327.46 289.02 327.46 288.3 325.21 287"/><polygon class="cls-34" points="327.46 288.3 327.46 289.03 329.72 287.73 329.71 287 327.46 288.3"/><polygon class="cls-35" points="325.51 287.04 327.67 288.29 329.79 287.06 327.64 285.81 325.51 287.04"/></g><g class="cls-18"><polygon class="cls-38" points="322.95 288.57 322.95 289.28 325.21 290.59 325.2 289.87 322.95 288.57"/><polygon class="cls-34" points="325.21 289.88 325.21 290.6 327.46 289.3 327.45 288.58 325.21 289.88"/><polygon class="cls-35" points="322.79 288.61 324.94 289.86 327.06 288.63 324.92 287.38 322.79 288.61"/></g><g class="cls-18"><polygon class="cls-38" points="319.94 290.14 319.94 290.85 322.2 292.17 322.2 291.45 319.94 290.14"/><polygon class="cls-34" points="322.2 291.45 322.2 292.18 324.45 290.87 324.45 290.15 322.2 291.45"/><polygon class="cls-35" points="320.06 290.18 322.22 291.44 324.34 290.2 322.19 288.95 320.06 290.18"/></g><g class="cls-18"><polygon class="cls-38" points="316.94 291.71 316.94 292.43 319.19 293.74 319.19 293.02 316.94 291.71"/><polygon class="cls-34" points="319.19 293.03 319.19 293.75 321.45 292.45 321.44 291.73 319.19 293.03"/><polygon class="cls-35" points="317.34 291.75 319.5 293.01 321.62 291.78 319.46 290.53 317.34 291.75"/></g><g class="cls-18"><polygon class="cls-38" points="314.68 293.28 314.68 294 316.94 295.31 316.93 294.59 314.68 293.28"/><polygon class="cls-34" points="316.94 294.6 316.94 295.32 319.19 294.02 319.19 293.3 316.94 294.6"/><polygon class="cls-35" points="314.62 293.32 316.77 294.58 318.89 293.36 316.74 292.1 314.62 293.32"/></g><g class="cls-18"><polygon class="cls-38" points="311.68 294.86 311.68 295.57 313.93 296.89 313.93 296.16 311.68 294.86"/><polygon class="cls-34" points="313.93 296.17 313.93 296.9 316.19 295.59 316.19 294.87 313.93 296.17"/><polygon class="cls-35" points="311.89 294.9 314.05 296.15 316.17 294.93 314.01 293.67 311.89 294.9"/></g><g class="cls-18"><polygon class="cls-38" points="309.42 296.43 309.42 297.15 311.68 298.46 311.68 297.74 309.42 296.43"/><polygon class="cls-34" points="310.92 297.74 310.92 298.47 313.18 297.17 313.17 296.44 310.92 297.74"/><polygon class="cls-35" points="309.17 296.48 311.32 297.72 313.44 296.5 311.29 295.25 309.17 296.48"/></g><g class="cls-18"><polygon class="cls-38" points="338.74 282.3 338.75 283.02 340.99 284.32 340.99 283.61 338.74 282.3"/><polygon class="cls-34" points="341.75 283.52 341.75 284.16 346.26 281.55 346.26 280.92 341.75 283.52"/><polygon class="cls-35" points="339.15 282.34 341.3 283.6 346.16 280.79 344 279.55 339.15 282.34"/></g><g class="cls-18"><polygon class="cls-38" points="336.48 283.87 336.49 284.59 338.74 285.9 338.74 285.18 336.48 283.87"/><polygon class="cls-34" points="338.74 285.19 338.74 285.91 340.99 284.61 340.99 283.89 338.74 285.19"/><polygon class="cls-35" points="336.43 283.91 338.58 285.17 340.71 283.94 338.55 282.69 336.43 283.91"/></g><g class="cls-18"><polygon class="cls-38" points="333.48 285.44 333.48 286.16 335.73 287.47 335.73 286.75 333.48 285.44"/><polygon class="cls-34" points="335.73 286.76 335.73 287.48 337.99 286.18 337.99 285.46 335.73 286.76"/><polygon class="cls-35" points="333.7 285.48 335.86 286.74 337.99 285.51 335.83 284.26 333.7 285.48"/></g><g class="cls-18"><polygon class="cls-38" points="331.22 287.02 331.23 287.73 333.48 289.05 333.48 288.33 331.22 287.02"/><polygon class="cls-34" points="332.72 288.33 332.72 289.06 334.98 287.75 334.98 287.03 332.72 288.33"/><polygon class="cls-35" points="330.98 287.06 333.13 288.32 335.26 287.08 333.1 285.84 330.98 287.06"/></g><g class="cls-18"><polygon class="cls-38" points="328.21 288.59 328.22 289.31 330.47 290.62 330.47 289.9 328.21 288.59"/><polygon class="cls-34" points="330.47 289.91 330.47 290.63 332.72 289.32 332.72 288.6 330.47 289.91"/><polygon class="cls-35" points="328.25 288.63 330.41 289.89 332.54 288.66 330.38 287.41 328.25 288.63"/></g><g class="cls-18"><polygon class="cls-38" points="325.21 290.16 325.21 290.88 327.46 292.19 327.46 291.47 325.21 290.16"/><polygon class="cls-34" points="327.46 291.48 327.46 292.2 329.72 290.9 329.72 290.17 327.46 291.48"/><polygon class="cls-35" points="325.53 290.2 327.69 291.46 329.82 290.23 327.66 288.98 325.53 290.2"/></g><g class="cls-18"><polygon class="cls-38" points="322.95 291.74 322.96 292.45 325.21 293.76 325.21 293.05 322.95 291.74"/><polygon class="cls-34" points="325.21 293.05 325.21 293.77 327.46 292.48 327.46 291.75 325.21 293.05"/><polygon class="cls-35" points="322.8 291.78 324.96 293.03 327.1 291.8 324.94 290.55 322.8 291.78"/></g><g class="cls-18"><polygon class="cls-38" points="319.94 293.31 319.95 294.03 322.2 295.33 322.2 294.62 319.94 293.31"/><polygon class="cls-34" points="322.2 294.62 322.2 295.34 324.45 294.05 324.45 293.32 322.2 294.62"/><polygon class="cls-35" points="320.08 293.36 322.24 294.6 324.37 293.38 322.21 292.12 320.08 293.36"/></g><g class="cls-18"><polygon class="cls-38" points="316.94 294.88 316.94 295.6 319.19 296.9 319.19 296.19 316.94 294.88"/><polygon class="cls-34" points="319.19 296.19 319.19 296.92 321.45 295.62 321.45 294.89 319.19 296.19"/><polygon class="cls-35" points="317.36 294.93 319.52 296.17 321.64 294.95 319.49 293.69 317.36 294.93"/></g><g class="cls-18"><polygon class="cls-38" points="311.68 298.02 311.68 298.74 313.93 300.05 313.93 299.34 311.68 298.02"/><polygon class="cls-34" points="313.93 299.25 313.93 299.88 318.44 297.28 318.44 296.64 313.93 299.25"/><polygon class="cls-35" points="311.91 298.07 314.07 299.32 318.92 296.52 316.77 295.26 311.91 298.07"/></g><g class="cls-18"><polygon class="cls-38" points="339.49 285.47 339.5 286.19 341.75 287.5 341.75 286.78 339.49 285.47"/><polygon class="cls-34" points="340.99 286.75 340.99 287.43 348.51 283.09 348.51 282.41 340.99 286.75"/><polygon class="cls-35" points="339.18 285.51 341.33 286.77 348.91 282.39 346.75 281.14 339.18 285.51"/></g><g class="cls-18"><polygon class="cls-38" points="336.48 287.04 336.49 287.76 338.74 289.07 338.74 288.35 336.48 287.04"/><polygon class="cls-34" points="338.74 288.36 338.74 289.08 340.99 287.78 340.99 287.06 338.74 288.36"/><polygon class="cls-35" points="336.45 287.08 338.61 288.34 340.74 287.12 338.58 285.86 336.45 287.08"/></g><g class="cls-18"><polygon class="cls-38" points="333.48 288.62 333.48 289.33 335.73 290.64 335.73 289.93 333.48 288.62"/><polygon class="cls-34" points="335.73 289.93 335.73 290.65 337.99 289.35 337.99 288.63 335.73 289.93"/><polygon class="cls-35" points="333.73 288.66 335.88 289.91 338.01 288.69 335.85 287.43 333.73 288.66"/></g><g class="cls-18"><polygon class="cls-38" points="331.22 290.19 331.23 290.91 333.48 292.22 333.48 291.5 331.22 290.19"/><polygon class="cls-34" points="332.72 291.5 332.72 292.23 334.98 290.93 334.98 290.2 332.72 291.5"/><polygon class="cls-35" points="331 290.24 333.16 291.48 335.29 290.26 333.13 289 331 290.24"/></g><g class="cls-18"><polygon class="cls-38" points="328.21 291.76 328.22 292.48 330.47 293.79 330.47 293.07 328.21 291.76"/><polygon class="cls-34" points="330.47 293.07 330.47 293.8 332.72 292.5 332.72 291.77 330.47 293.07"/><polygon class="cls-35" points="328.28 291.81 330.44 293.05 332.57 291.83 330.41 290.58 328.28 291.81"/></g><g class="cls-18"><polygon class="cls-38" points="325.21 293.33 325.21 294.05 327.46 295.37 327.46 294.65 325.21 293.33"/><polygon class="cls-34" points="327.46 294.65 327.46 295.37 329.72 294.07 329.72 293.35 327.46 294.65"/><polygon class="cls-35" points="325.56 293.38 327.71 294.63 329.85 293.4 327.69 292.15 325.56 293.38"/></g><g class="cls-18"><polygon class="cls-38" points="322.95 294.9 322.96 295.63 325.21 296.93 325.21 296.22 322.95 294.9"/><polygon class="cls-34" points="325.21 296.22 325.21 296.95 327.46 295.65 327.46 294.92 325.21 296.22"/><polygon class="cls-35" points="322.83 294.95 324.99 296.2 327.12 294.98 324.96 293.72 322.83 294.95"/></g><g class="cls-18"><polygon class="cls-38" points="319.94 296.48 319.95 297.2 322.2 298.5 322.2 297.79 319.94 296.48"/><polygon class="cls-34" points="322.2 297.79 322.2 298.52 324.45 297.22 324.45 296.49 322.2 297.79"/><polygon class="cls-35" points="320.11 296.52 322.27 297.77 324.4 296.55 322.24 295.3 320.11 296.52"/></g><g class="cls-18"><polygon class="cls-38" points="314.68 299.63 314.69 300.34 316.94 301.65 316.94 300.94 314.68 299.63"/><polygon class="cls-34" points="316.94 300.85 316.94 301.49 321.45 298.88 321.45 298.25 316.94 300.85"/><polygon class="cls-35" points="314.66 299.67 316.82 300.93 321.68 298.12 319.52 296.87 314.66 299.67"/></g><g class="cls-18"><polygon class="cls-38" points="347.01 283.92 347.01 284.64 349.26 285.95 349.26 285.23 347.01 283.92"/><polygon class="cls-34" points="349.26 285.24 349.27 285.96 351.52 284.66 351.51 283.93 349.26 285.24"/><polygon class="cls-35" points="347.38 283.96 349.53 285.22 351.66 283.99 349.51 282.74 347.38 283.96"/></g><g class="cls-18"><polygon class="cls-38" points="344.75 285.49 344.75 286.22 347.01 287.52 347.01 286.81 344.75 285.49"/><polygon class="cls-34" points="347.01 286.81 347.01 287.53 349.26 286.24 349.25 285.51 347.01 286.81"/><polygon class="cls-35" points="344.65 285.54 346.81 286.79 348.93 285.57 346.78 284.31 344.65 285.54"/></g><g class="cls-18"><polygon class="cls-38" points="341.75 287.07 341.75 287.79 344 289.09 344 288.38 341.75 287.07"/><polygon class="cls-34" points="344 288.38 344 289.11 346.26 287.81 346.25 287.08 344 288.38"/><polygon class="cls-35" points="341.93 287.12 344.08 288.36 346.2 287.14 344.06 285.88 341.93 287.12"/></g><g class="cls-18"><polygon class="cls-38" points="328.21 294.94 328.21 295.65 330.47 296.95 330.47 296.24 328.21 294.94"/><polygon class="cls-34" points="330.47 296.16 330.47 296.83 343.25 289.46 343.24 288.79 330.47 296.16"/><polygon class="cls-35" points="328.31 294.98 330.46 296.23 343.48 288.71 341.33 287.45 328.31 294.98"/></g><g class="cls-18"><polygon class="cls-38" points="325.21 296.51 325.21 297.22 327.46 298.53 327.45 297.81 325.21 296.51"/><polygon class="cls-34" points="327.46 297.81 327.47 298.54 329.72 297.24 329.71 296.52 327.46 297.81"/><polygon class="cls-35" points="325.58 296.55 327.73 297.8 329.86 296.57 327.71 295.32 325.58 296.55"/></g><g class="cls-18"><polygon class="cls-38" points="322.95 298.08 322.95 298.79 325.21 300.11 325.2 299.38 322.95 298.08"/><polygon class="cls-34" points="325.21 299.38 325.21 300.12 327.46 298.81 327.45 298.09 325.21 299.38"/><polygon class="cls-35" points="322.86 298.12 325.01 299.37 327.14 298.14 324.99 296.89 322.86 298.12"/></g><g class="cls-18"><polygon class="cls-38" points="317.69 301.22 317.69 301.94 319.94 303.25 319.94 302.53 317.69 301.22"/><polygon class="cls-34" points="319.94 302.44 319.95 303.08 324.45 300.48 324.45 299.84 319.94 302.44"/><polygon class="cls-35" points="317.41 301.26 319.56 302.52 324.42 299.71 322.26 298.47 317.41 301.26"/></g><polygon class="cls-29" points="325.21 239.69 325.24 250.89 334.98 245.26 334.95 234.06 325.21 239.69"/><g class="cls-18"><polygon class="cls-35" points="316.94 249.03 316.94 249.46 323.7 245.54 323.7 245.12 316.94 249.03"/><polygon class="cls-35" points="316.94 247.69 316.94 248.12 323.77 244.17 323.76 243.75 316.94 247.69"/><polygon class="cls-35" points="316.94 246.32 316.94 246.75 323.7 242.84 323.7 242.41 316.94 246.32"/><polygon class="cls-35" points="316.94 244.96 316.94 245.39 323.7 241.48 323.7 241.06 316.94 244.96"/></g><polygon class="cls-35" points="316.94 251.74 316.94 252.16 323.7 248.26 323.7 247.83 316.94 251.74"/><polygon class="cls-35" points="316.94 250.38 316.94 250.81 323.7 246.91 323.7 246.47 316.94 250.38"/><polygon class="cls-35" points="318.44 252.11 318.44 252.53 323.55 249.59 323.54 249.17 318.44 252.11"/><g class="cls-18"><path class="cls-33" d="M333.82,230.73a.71.71,0,0,0-.33.56c0,.2.15.28.33.19a.7.7,0,0,0,.32-.57C334.15,230.7,334,230.62,333.82,230.73Z"/><path class="cls-35" d="M336.62,228.51c.34-.2.62,0,.62.36v2.91c0-.36-.25-.5-.56-.33l-21.43,12.38a1.2,1.2,0,0,0-.57,1v-2.91a1.37,1.37,0,0,1,.62-1.07Zm-1.48,2.21a.7.7,0,0,0,.32-.57c0-.21-.15-.29-.33-.18a.7.7,0,0,0-.32.56.2.2,0,0,0,.33.19m-1.32.76a.74.74,0,0,0,.33-.57c0-.21-.15-.28-.33-.18a.71.71,0,0,0-.33.56c0,.2.15.28.33.19m2.63-1.52a.7.7,0,0,0,.33-.57c0-.21-.14-.29-.33-.18a.7.7,0,0,0-.32.56c0,.2.14.29.32.19"/><path class="cls-22" d="M336.67,231.53c.31-.18.57,0,.57.33l0,14a1.25,1.25,0,0,1-.56,1l-21.46,12.39c-.31.18-.57,0-.57-.33l0-14a1.26,1.26,0,0,1,.57-1Zm-11.43,19.36,9.74-5.63,0-11.2-9.74,5.63,0,11.54m-8.3-.42,6.76-3.91v-.42l-6.76,3.9v.1m0-3.73,6.76-3.91v-.42l-6.76,3.9v.4m0,1.38,6.76-3.9v-.43l-6.76,3.91v.55m0-2.84,6.76-3.91v-.42l-6.76,3.9v.26m0,6.94,6.76-3.9v-.43l-6.76,3.91V252m0-2.53,6.76-3.91v-.42l-6.76,3.9v.7m1.5,2.86,5.26-3v-.45l-5.26,3.05v.59"/></g><path class="cls-26" d="M336.45,229.21a.71.71,0,0,0-.33.56.2.2,0,0,0,.33.19.72.72,0,0,0,.32-.57C336.78,229.18,336.63,229.1,336.45,229.21Z"/><path class="cls-29" d="M335.13,230a.7.7,0,0,0-.32.56c0,.2.15.29.32.19a.74.74,0,0,0,.33-.57C335.46,229.94,335.31,229.86,335.13,230Z"/><path class="cls-34" d="M371.52,274.72c0,.1-.06.17-.11.22l-4.4,2.51-.74-.48c1.22-.68,3.74-2.06,5.2-2.88A4.58,4.58,0,0,1,371.52,274.72Z"/><path class="cls-39" d="M371.46,274.09c-1.45.82-4,2.21-5.2,2.89l-9-5.73,2.34-1.31c1.48-.82,3.08-1.9,4.77-2.11a7.06,7.06,0,0,1,7.09,6.26Z"/><path class="cls-38" d="M366.72,277.46a.32.32,0,0,0,.46-.29,6.27,6.27,0,0,0-3.62-5.64c-1.05-.59-4.21-1.86-6.5-.14a.3.3,0,0,0,0,.5C360.56,273.94,365.24,276.61,366.72,277.46Z"/><path class="cls-34" d="M241.43,210.13l-1.52.89a1.09,1.09,0,0,0,.45-1l1.52-.89A1,1,0,0,1,241.43,210.13Z"/><path class="cls-34" d="M196.44,148.74l1.52-.88a1.09,1.09,0,0,1,1.1.1l-1.52.89A1.1,1.1,0,0,0,196.44,148.74Z"/><polygon class="cls-34" points="240.34 175.39 241.76 174.5 241.68 209.15 240.26 210.04 240.34 175.39"/><polygon class="cls-34" points="197.54 148.85 199.06 147.96 240.43 171.85 238.91 172.73 197.54 148.85"/><path class="cls-34" d="M238.91,172.73l1.52-.88A3.4,3.4,0,0,1,242,174.5l-1.53.89A3.41,3.41,0,0,0,238.91,172.73Z"/><path class="cls-37" d="M238.73,172.76a3.39,3.39,0,0,1,1.53,2.65l-.09,34.51c0,1-.69,1.36-1.53.88L197.43,187a3.35,3.35,0,0,1-1.53-2.64l.08-34.51c0-1,.69-1.37,1.54-.88Z"/><polygon class="cls-36" points="197.41 152.3 197.33 183.55 238.75 207.46 238.83 176.22 197.41 152.3"/><path class="cls-40" d="M239.51,211.81v1.77a1.29,1.29,0,0,1-.76.88v-1.77A1.24,1.24,0,0,0,239.51,211.81Z"/><path class="cls-40" d="M209.43,229.91v1.73a3.37,3.37,0,0,1-3,0v-1.73A3.3,3.3,0,0,0,209.43,229.91Z"/><path class="cls-40" d="M164.33,206.87V205.1c-.24.33,0,.65.75.9v1.77C164.29,207.52,164.08,207.19,164.33,206.87Z"/><polygon class="cls-40" points="238.75 212.8 238.75 214.55 209.43 231.54 209.44 229.79 238.75 212.8"/><polygon class="cls-40" points="206.43 229.88 206.43 231.64 165.08 207.77 165.09 206 206.43 229.88"/><path class="cls-34" d="M238.81,210.92a.94.94,0,0,1,0,1.77l-29.66,17.19a3.37,3.37,0,0,1-3.06,0L164.73,206a.93.93,0,0,1,0-1.77L194.38,187a3.37,3.37,0,0,1,3.06,0Z"/><g class="cls-18"><path class="cls-35" d="M205.25,215.4,190,206.59a1.72,1.72,0,0,0-1.53,0l-7.88,4.54c-.42.24-.41.64,0,.88l15.24,8.81a1.74,1.74,0,0,0,1.54,0l7.88-4.54a.46.46,0,0,0,0-.88"/></g><g class="cls-18"><polygon class="cls-37" points="198.16 189.65 198.16 190.12 195.15 191.88 195.15 191.4 198.16 189.65"/><polygon class="cls-37" points="195.15 191.4 195.15 191.89 192.14 190.15 192.14 189.66 195.15 191.4"/><polygon class="cls-17" points="197.89 189.73 195.11 191.35 192.36 189.76 195.15 188.15 197.89 189.73"/></g><g class="cls-18"><polygon class="cls-37" points="201.16 191.68 201.16 192.15 198.16 193.9 198.17 193.42 201.16 191.68"/><polygon class="cls-37" points="198.91 193.43 198.9 193.91 195.9 192.18 195.9 191.7 198.91 193.43"/><polygon class="cls-17" points="201.41 191.76 198.63 193.38 195.87 191.79 198.66 190.18 201.41 191.76"/></g><g class="cls-18"><polygon class="cls-37" points="204.92 193.7 204.92 194.18 201.92 195.92 201.92 195.45 204.92 193.7"/><polygon class="cls-37" points="201.92 195.46 201.92 195.94 198.91 194.21 198.91 193.72 201.92 195.46"/><polygon class="cls-17" points="204.92 193.78 202.13 195.41 199.39 193.82 202.17 192.21 204.92 193.78"/></g><g class="cls-18"><polygon class="cls-37" points="208.68 195.73 208.68 196.21 205.68 197.95 205.68 197.47 208.68 195.73"/><polygon class="cls-37" points="205.68 197.48 205.68 197.97 202.67 196.23 202.68 195.75 205.68 197.48"/><polygon class="cls-17" points="208.43 195.81 205.64 197.43 202.9 195.85 205.69 194.23 208.43 195.81"/></g><g class="cls-18"><polygon class="cls-37" points="211.69 197.75 211.68 198.23 208.68 199.98 208.68 199.51 211.69 197.75"/><polygon class="cls-37" points="209.43 199.51 209.43 199.99 206.43 198.26 206.43 197.78 209.43 199.51"/><polygon class="cls-17" points="211.94 197.84 209.15 199.46 206.41 197.87 209.2 196.26 211.94 197.84"/></g><g class="cls-18"><polygon class="cls-37" points="215.45 199.78 215.45 200.26 212.44 202.01 212.44 201.54 215.45 199.78"/><polygon class="cls-37" points="212.44 201.54 212.44 202.02 209.43 200.29 209.43 199.81 212.44 201.54"/><polygon class="cls-17" points="215.45 199.87 212.67 201.49 209.93 199.9 212.71 198.29 215.45 199.87"/></g><g class="cls-18"><polygon class="cls-37" points="219.21 201.81 219.21 202.29 216.2 204.03 216.21 203.56 219.21 201.81"/><polygon class="cls-37" points="216.2 203.57 216.19 204.05 213.19 202.31 213.19 201.84 216.2 203.57"/><polygon class="cls-17" points="218.96 201.9 216.18 203.51 213.44 201.93 216.22 200.31 218.96 201.9"/></g><g class="cls-18"><polygon class="cls-37" points="222.22 203.84 222.22 204.31 219.21 206.06 219.21 205.59 222.22 203.84"/><polygon class="cls-37" points="219.96 205.6 219.96 206.08 216.95 204.34 216.95 203.85 219.96 205.6"/><polygon class="cls-17" points="222.47 203.92 219.68 205.54 216.95 203.96 219.73 202.34 222.47 203.92"/></g><g class="cls-18"><polygon class="cls-37" points="225.97 205.87 225.97 206.34 222.97 208.09 222.97 207.62 225.97 205.87"/><polygon class="cls-37" points="222.97 207.63 222.97 208.1 219.96 206.37 219.96 205.89 222.97 207.63"/><polygon class="cls-17" points="225.99 205.95 223.2 207.57 220.46 205.99 223.24 204.36 225.99 205.95"/></g><g class="cls-18"><polygon class="cls-37" points="229.73 207.9 229.72 208.37 226.72 210.12 226.72 209.64 229.73 207.9"/><polygon class="cls-37" points="226.72 209.65 226.72 210.13 223.72 208.4 223.72 207.92 226.72 209.65"/><polygon class="cls-17" points="229.5 207.98 226.71 209.59 223.97 208.01 226.76 206.39 229.5 207.98"/></g><g class="cls-18"><polygon class="cls-37" points="236.5 211.96 236.5 212.43 233.49 214.18 233.5 213.7 236.5 211.96"/><polygon class="cls-37" points="233.49 213.59 233.48 214.02 227.48 210.54 227.48 210.12 233.49 213.59"/><polygon class="cls-17" points="236.52 212.04 233.74 213.65 227.48 210.04 230.27 208.42 236.52 212.04"/></g><g class="cls-18"><polygon class="cls-37" points="198.16 193.74 198.16 194.22 195.15 195.96 195.16 195.49 198.16 193.74"/><polygon class="cls-37" points="195.15 195.37 195.14 195.8 189.14 192.33 189.14 191.9 195.15 195.37"/><polygon class="cls-17" points="197.86 193.82 195.09 195.44 188.82 191.82 191.6 190.21 197.86 193.82"/></g><g class="cls-18"><polygon class="cls-37" points="201.16 195.77 201.16 196.24 198.16 197.99 198.16 197.51 201.16 195.77"/><polygon class="cls-37" points="198.91 197.52 198.91 198 195.9 196.27 195.9 195.78 198.91 197.52"/><polygon class="cls-17" points="201.37 195.85 198.59 197.46 195.85 195.88 198.63 194.26 201.37 195.85"/></g><g class="cls-18"><polygon class="cls-37" points="204.92 197.79 204.92 198.27 201.92 200.02 201.92 199.54 204.92 197.79"/><polygon class="cls-37" points="201.92 199.54 201.92 200.03 198.91 198.29 198.92 197.81 201.92 199.54"/><polygon class="cls-17" points="204.88 197.87 202.1 199.49 199.36 197.9 202.14 196.29 204.88 197.87"/></g><g class="cls-18"><polygon class="cls-37" points="208.68 199.82 208.68 200.29 205.68 202.04 205.68 201.56 208.68 199.82"/><polygon class="cls-37" points="205.68 201.57 205.68 202.05 202.67 200.32 202.67 199.84 205.68 201.57"/><polygon class="cls-17" points="208.39 199.9 205.61 201.51 202.87 199.93 205.65 198.32 208.39 199.9"/></g><g class="cls-18"><polygon class="cls-37" points="211.69 201.85 211.69 202.32 208.68 204.07 208.68 203.59 211.69 201.85"/><polygon class="cls-37" points="209.43 203.6 209.43 204.08 206.43 202.35 206.43 201.87 209.43 203.6"/><polygon class="cls-17" points="211.9 201.93 209.13 203.54 206.38 201.96 209.17 200.35 211.9 201.93"/></g><g class="cls-18"><polygon class="cls-37" points="215.45 203.87 215.45 204.35 212.44 206.1 212.45 205.62 215.45 203.87"/><polygon class="cls-37" points="212.44 205.63 212.43 206.11 209.43 204.37 209.43 203.89 212.44 205.63"/><polygon class="cls-17" points="215.41 203.96 212.64 205.57 209.9 203.99 212.68 202.38 215.41 203.96"/></g><g class="cls-18"><polygon class="cls-37" points="219.21 205.9 219.21 206.37 216.2 208.12 216.2 207.64 219.21 205.9"/><polygon class="cls-37" points="216.2 207.65 216.2 208.14 213.19 206.4 213.19 205.91 216.2 207.65"/><polygon class="cls-17" points="218.92 205.99 216.14 207.59 213.41 206.01 216.18 204.4 218.92 205.99"/></g><g class="cls-18"><polygon class="cls-37" points="222.22 207.93 222.22 208.41 219.21 210.15 219.21 209.67 222.22 207.93"/><polygon class="cls-37" points="219.96 209.68 219.96 210.16 216.95 208.43 216.96 207.94 219.96 209.68"/><polygon class="cls-17" points="222.44 208.01 219.66 209.62 216.92 208.04 219.69 206.43 222.44 208.01"/></g><g class="cls-18"><polygon class="cls-37" points="225.97 209.95 225.97 210.43 222.97 212.18 222.97 211.7 225.97 209.95"/><polygon class="cls-37" points="222.97 211.71 222.97 212.19 219.96 210.46 219.96 209.97 222.97 211.71"/><polygon class="cls-17" points="225.95 210.04 223.17 211.65 220.43 210.07 223.21 208.46 225.95 210.04"/></g><g class="cls-18"><polygon class="cls-37" points="229.73 211.98 229.73 212.46 226.72 214.21 226.72 213.73 229.73 211.98"/><polygon class="cls-37" points="226.72 213.74 226.72 214.22 223.72 212.49 223.72 212 226.72 213.74"/><polygon class="cls-17" points="229.46 212.07 226.68 213.68 223.94 212.1 226.72 210.48 229.46 212.07"/></g><g class="cls-18"><polygon class="cls-37" points="232.74 214.01 232.74 214.49 229.73 216.23 229.74 215.76 232.74 214.01"/><polygon class="cls-37" points="230.48 215.77 230.48 216.24 227.48 214.51 227.48 214.03 230.48 215.77"/><polygon class="cls-17" points="232.97 214.1 230.2 215.71 227.45 214.13 230.23 212.51 232.97 214.1"/></g><g class="cls-18"><polygon class="cls-37" points="194.4 195.8 194.4 196.28 191.39 198.02 191.39 197.54 194.4 195.8"/><polygon class="cls-37" points="191.39 197.44 191.39 197.85 185.38 194.38 185.38 193.96 191.39 197.44"/><polygon class="cls-17" points="194.32 195.88 191.54 197.5 185.28 193.88 188.06 192.26 194.32 195.88"/></g><g class="cls-18"><polygon class="cls-37" points="198.16 197.82 198.16 198.3 195.15 200.05 195.15 199.57 198.16 197.82"/><polygon class="cls-37" points="195.15 199.57 195.15 200.06 192.14 198.32 192.15 197.84 195.15 199.57"/><polygon class="cls-17" points="197.83 197.9 195.05 199.52 192.31 197.94 195.09 196.32 197.83 197.9"/></g><g class="cls-18"><polygon class="cls-37" points="201.16 199.85 201.16 200.33 198.16 202.07 198.16 201.6 201.16 199.85"/><polygon class="cls-37" points="198.91 201.6 198.91 202.08 195.9 200.35 195.9 199.87 198.91 201.6"/><polygon class="cls-17" points="201.34 199.93 198.56 201.55 195.81 199.96 198.6 198.35 201.34 199.93"/></g><g class="cls-18"><polygon class="cls-37" points="204.92 201.87 204.92 202.35 201.92 204.1 201.92 203.62 204.92 201.87"/><polygon class="cls-37" points="201.92 203.63 201.92 204.11 198.91 202.37 198.91 201.9 201.92 203.63"/><polygon class="cls-17" points="204.84 201.96 202.07 203.57 199.32 201.99 202.11 200.38 204.84 201.96"/></g><g class="cls-18"><polygon class="cls-37" points="208.68 203.9 208.68 204.38 205.68 206.13 205.68 205.65 208.68 203.9"/><polygon class="cls-37" points="205.68 205.66 205.67 206.14 202.67 204.4 202.67 203.93 205.68 205.66"/><polygon class="cls-17" points="208.36 203.99 205.59 205.6 202.84 204.02 205.63 202.41 208.36 203.99"/></g><g class="cls-18"><polygon class="cls-37" points="211.69 205.93 211.69 206.41 208.68 208.15 208.68 207.68 211.69 205.93"/><polygon class="cls-37" points="209.43 207.69 209.43 208.17 206.43 206.43 206.43 205.94 209.43 207.69"/><polygon class="cls-17" points="211.87 206.01 209.09 207.63 206.35 206.04 209.13 204.43 211.87 206.01"/></g><g class="cls-18"><polygon class="cls-37" points="215.45 207.95 215.45 208.43 212.44 210.18 212.44 209.7 215.45 207.95"/><polygon class="cls-37" points="212.44 209.71 212.44 210.19 209.43 208.46 209.44 207.98 212.44 209.71"/><polygon class="cls-17" points="215.38 208.04 212.6 209.65 209.87 208.07 212.64 206.46 215.38 208.04"/></g><g class="cls-18"><polygon class="cls-37" points="219.21 209.98 219.2 210.46 216.2 212.21 216.2 211.73 219.21 209.98"/><polygon class="cls-37" points="216.2 211.74 216.2 212.22 213.19 210.49 213.19 210 216.2 211.74"/><polygon class="cls-17" points="218.9 210.07 216.12 211.68 213.37 210.1 216.15 208.48 218.9 210.07"/></g><g class="cls-18"><polygon class="cls-37" points="222.22 212.01 222.22 212.49 219.21 214.24 219.21 213.76 222.22 212.01"/><polygon class="cls-37" points="219.96 213.77 219.96 214.25 216.95 212.51 216.95 212.03 219.96 213.77"/><polygon class="cls-17" points="222.4 212.1 219.63 213.71 216.89 212.13 219.67 210.51 222.4 212.1"/></g><g class="cls-18"><polygon class="cls-37" points="229.73 216.07 229.73 216.54 226.72 218.29 226.72 217.81 229.73 216.07"/><polygon class="cls-37" points="226.72 217.7 226.72 218.13 220.71 214.66 220.71 214.23 226.72 217.7"/><polygon class="cls-17" points="229.43 216.16 226.65 217.76 220.4 214.16 223.18 212.54 229.43 216.16"/></g><g class="cls-18"><polygon class="cls-37" points="194.4 199.88 194.4 200.36 191.39 202.11 191.39 201.63 194.4 199.88"/><polygon class="cls-37" points="191.39 201.58 191.39 202.03 181.62 196.38 181.62 195.94 191.39 201.58"/><polygon class="cls-17" points="194.29 199.96 191.51 201.58 181.74 195.94 184.51 194.32 194.29 199.96"/></g><g class="cls-18"><polygon class="cls-37" points="198.16 201.91 198.15 202.38 195.15 204.13 195.15 203.65 198.16 201.91"/><polygon class="cls-37" points="195.15 203.66 195.15 204.14 192.14 202.41 192.14 201.93 195.15 203.66"/><polygon class="cls-17" points="197.8 201.99 195.02 203.6 192.27 202.02 195.06 200.41 197.8 201.99"/></g><g class="cls-18"><polygon class="cls-37" points="201.16 203.93 201.16 204.41 198.16 206.16 198.16 205.68 201.16 203.93"/><polygon class="cls-37" points="198.91 205.69 198.91 206.17 195.9 204.43 195.9 203.95 198.91 205.69"/><polygon class="cls-17" points="201.3 204.01 198.53 205.63 195.78 204.04 198.57 202.44 201.3 204.01"/></g><g class="cls-18"><polygon class="cls-37" points="204.92 205.96 204.92 206.44 201.92 208.19 201.92 207.71 204.92 205.96"/><polygon class="cls-37" points="201.92 207.72 201.92 208.21 198.91 206.46 198.91 205.97 201.92 207.72"/><polygon class="cls-17" points="204.82 206.04 202.04 207.66 199.3 206.07 202.08 204.47 204.82 206.04"/></g><g class="cls-18"><polygon class="cls-37" points="208.68 207.99 208.68 208.46 205.68 210.21 205.68 209.73 208.68 207.99"/><polygon class="cls-37" points="205.68 209.74 205.68 210.23 202.67 208.49 202.67 208 205.68 209.74"/><polygon class="cls-17" points="208.33 208.07 205.55 209.68 202.81 208.1 205.59 206.49 208.33 208.07"/></g><g class="cls-18"><polygon class="cls-37" points="211.69 210.01 211.69 210.49 208.68 212.24 208.68 211.76 211.69 210.01"/><polygon class="cls-37" points="209.43 211.77 209.43 212.25 206.43 210.52 206.44 210.03 209.43 211.77"/><polygon class="cls-17" points="211.84 210.1 209.06 211.71 206.32 210.13 209.1 208.52 211.84 210.1"/></g><g class="cls-18"><polygon class="cls-37" points="215.45 212.04 215.45 212.52 212.44 214.27 212.44 213.79 215.45 212.04"/><polygon class="cls-37" points="212.44 213.8 212.44 214.28 209.43 212.55 209.43 212.06 212.44 213.8"/><polygon class="cls-17" points="215.35 212.13 212.58 213.74 209.83 212.16 212.61 210.54 215.35 212.13"/></g><g class="cls-18"><polygon class="cls-37" points="219.21 214.07 219.21 214.55 216.2 216.29 216.2 215.82 219.21 214.07"/><polygon class="cls-37" points="216.2 215.83 216.2 216.31 213.19 214.57 213.19 214.09 216.2 215.83"/><polygon class="cls-17" points="218.86 214.16 216.09 215.77 213.34 214.19 216.13 212.57 218.86 214.16"/></g><g class="cls-18"><polygon class="cls-37" points="225.97 218.13 225.97 218.6 222.97 220.35 222.97 219.87 225.97 218.13"/><polygon class="cls-37" points="222.97 219.76 222.97 220.19 216.95 216.71 216.95 216.29 222.97 219.76"/><polygon class="cls-17" points="225.89 218.21 223.11 219.82 216.86 216.22 219.64 214.6 225.89 218.21"/></g><g class="cls-18"><polygon class="cls-37" points="183.87 197.88 183.87 198.36 180.87 200.1 180.88 199.63 183.87 197.88"/><polygon class="cls-37" points="180.87 199.64 180.86 200.12 177.86 198.39 177.86 197.9 180.87 199.64"/><polygon class="cls-17" points="183.72 197.96 180.94 199.59 178.19 198 180.97 196.38 183.72 197.96"/></g><g class="cls-18"><polygon class="cls-37" points="187.63 199.91 187.63 200.39 184.63 202.13 184.63 201.66 187.63 199.91"/><polygon class="cls-37" points="184.63 201.67 184.63 202.15 181.62 200.41 181.62 199.93 184.63 201.67"/><polygon class="cls-17" points="187.24 199.99 184.45 201.62 181.7 200.03 184.49 198.41 187.24 199.99"/></g><g class="cls-18"><polygon class="cls-37" points="190.64 201.94 190.63 202.42 187.63 204.16 187.63 203.69 190.64 201.94"/><polygon class="cls-37" points="188.38 203.69 188.38 204.18 185.38 202.44 185.38 201.96 188.38 203.69"/><polygon class="cls-17" points="190.75 202.02 187.96 203.64 185.21 202.06 188 200.44 190.75 202.02"/></g><g class="cls-18"><polygon class="cls-37" points="208.68 212.08 208.68 212.55 205.68 214.3 205.68 213.82 208.68 212.08"/><polygon class="cls-37" points="205.68 213.71 205.68 214.14 189.14 204.59 189.14 204.16 205.68 213.71"/><polygon class="cls-17" points="208.3 212.16 205.51 213.77 188.72 204.08 191.51 202.47 208.3 212.16"/></g><g class="cls-18"><polygon class="cls-37" points="211.69 214.1 211.69 214.58 208.68 216.33 208.68 215.85 211.69 214.1"/><polygon class="cls-37" points="209.43 215.86 209.43 216.34 206.43 214.61 206.43 214.12 209.43 215.86"/><polygon class="cls-17" points="211.81 214.19 209.03 215.8 206.28 214.22 209.07 212.6 211.81 214.19"/></g><g class="cls-18"><polygon class="cls-37" points="215.45 216.13 215.45 216.6 212.44 218.36 212.44 217.88 215.45 216.13"/><polygon class="cls-37" points="212.44 217.89 212.44 218.37 209.43 216.63 209.43 216.15 212.44 217.89"/><polygon class="cls-17" points="215.32 216.22 212.54 217.83 209.8 216.25 212.59 214.63 215.32 216.22"/></g><g class="cls-18"><polygon class="cls-37" points="222.22 220.19 222.22 220.67 219.21 222.41 219.21 221.93 222.22 220.19"/><polygon class="cls-37" points="219.21 221.82 219.21 222.25 213.19 218.78 213.19 218.35 219.21 221.82"/><polygon class="cls-17" points="222.35 220.27 219.56 221.88 213.31 218.28 216.09 216.66 222.35 220.27"/></g><polygon class="cls-22" points="201.92 182.19 234.24 200.85 234.24 177.58 234.24 177.58 201.92 158.92 201.92 182.19"/><polygon class="cls-36" points="231.99 179.86 220.71 173.35 220.71 189.18 231.99 195.69 231.99 179.86"/><polygon class="cls-17" points="205.68 165.34 218.46 172.72 218.46 171.78 205.68 164.4 205.68 165.34"/><polygon class="cls-17" points="205.68 167.52 218.46 174.9 218.46 173.96 205.68 166.58 205.68 167.52"/><polygon class="cls-17" points="205.68 169.69 218.46 177.07 218.46 176.13 205.68 168.76 205.68 169.69"/><polygon class="cls-17" points="205.68 171.87 218.46 179.25 218.46 178.31 205.68 170.93 205.68 171.87"/><polygon class="cls-17" points="205.68 174.05 218.46 181.43 218.46 180.49 205.68 173.11 205.68 174.05"/><polygon class="cls-17" points="205.68 176.23 218.46 183.6 218.46 182.66 205.68 175.28 205.68 176.23"/><polygon class="cls-17" points="205.68 180.55 214.7 185.75 214.7 184.8 205.68 179.59 205.68 180.55"/><polygon class="cls-17" points="205.68 178.4 218.46 185.78 218.46 184.84 205.68 177.46 205.68 178.4"/><polygon class="cls-33" points="225.49 177.37 222.1 182.18 228.87 186.09 225.49 177.37"/><polygon class="cls-29" points="228.19 180.35 224.81 185.16 231.58 189.07 228.19 180.35"/><path class="cls-26" d="M230.83,190.22c0,1.68-1.18,2.36-2.64,1.53a5.84,5.84,0,0,1-2.64-4.57c0-1.69,1.18-2.37,2.64-1.52A5.79,5.79,0,0,1,230.83,190.22Z"/><polygon class="cls-41" points="348.96 126.38 352.42 130.34 354.11 127.39 348.96 126.38"/><polygon class="cls-29" points="348.96 126.38 349.9 127.47 350.37 126.66 348.96 126.38"/><path class="cls-29" d="M354.11,127.39a.86.86,0,0,0-.86.09,2.63,2.63,0,0,0-1.2,2.09.83.83,0,0,0,.35.77L377.67,145a.83.83,0,0,1-.36-.77,2.65,2.65,0,0,1,1.21-2.09.83.83,0,0,1,.86-.08Z"/><path class="cls-28" d="M378.52,142.16c.67-.38,1.21-.08,1.22.69a2.67,2.67,0,0,1-1.21,2.09c-.67.38-1.21.08-1.21-.69A2.62,2.62,0,0,1,378.52,142.16Z"/><polygon class="cls-41" points="360.99 128.46 364.45 132.42 366.16 129.46 360.99 128.46"/><polygon class="cls-26" points="360.99 128.46 361.94 129.54 362.41 128.73 360.99 128.46"/><path class="cls-26" d="M366.16,129.46a.87.87,0,0,0-.87.08,2.66,2.66,0,0,0-1.2,2.09.86.86,0,0,0,.35.78l16.31,9.49a.84.84,0,0,1-.35-.78,2.67,2.67,0,0,1,1.2-2.09.85.85,0,0,1,.86-.08Z"/><path class="cls-24" d="M381.6,139c.67-.38,1.21-.08,1.22.69a2.67,2.67,0,0,1-1.21,2.09c-.67.38-1.21.08-1.21-.69A2.64,2.64,0,0,1,381.6,139Z"/><path class="cls-28" d="M345,134a.41.41,0,0,1-.25-.35v3.13a.42.42,0,0,0,.25.35l3.51,2v-3.13Z"/><polygon class="cls-42" points="353.02 133.46 353.01 136.47 348.51 139.07 348.53 136.07 353.02 133.46"/><path class="cls-29" d="M353.14,133.3l-4.74,2.76L344.84,134c-.34-.2-.35-.51,0-.71l3.53-2.05a1.38,1.38,0,0,1,1.22,0Z"/><polygon class="cls-39" points="355.28 134.89 355.27 137.89 350.77 140.51 350.77 137.51 355.28 134.89"/><polygon class="cls-43" points="350.77 137.58 350.76 140.44 348.51 139.14 348.52 136.28 350.77 137.58"/><polygon class="cls-41" points="355.63 134.74 350.88 137.5 348.4 136.06 353.14 133.3 355.63 134.74"/><path class="cls-24" d="M358.8,137.58l-3.38,2a1.35,1.35,0,0,1-1.22,0l-3.43-2v3.07l3.43,2a1.32,1.32,0,0,0,1.22,0l3.39-2a.41.41,0,0,0,.24-.34v-3.07A.36.36,0,0,1,358.8,137.58Z"/><path class="cls-26" d="M359.19,136.79c.34.2.34.51,0,.71l-3.53,2.05a1.34,1.34,0,0,1-1.23,0l-3.56-2.05,4.75-2.76Z"/><path class="cls-41" d="M311.44,107.13l-50.68,29.26c-1.17.67-1,1.85.33,2.63L290.44,156a5.1,5.1,0,0,0,4.57.19l50.68-29.26c1.17-.68,1-1.86-.33-2.64l-29.35-17A5.1,5.1,0,0,0,311.44,107.13Z"/><polygon class="cls-44" points="315.89 116.6 319.21 114.68 338.61 125.88 335.28 127.8 315.89 116.6"/><polygon class="cls-44" points="308.76 120.72 312.08 118.79 331.49 130 328.15 131.91 308.76 120.72"/><polygon class="cls-44" points="301.63 124.83 304.96 122.91 324.35 134.11 321.03 136.03 301.63 124.83"/><polygon class="cls-44" points="294.5 128.95 297.83 127.03 317.23 138.23 313.89 140.15 294.5 128.95"/><polygon class="cls-44" points="287.37 133.06 290.7 131.14 310.1 142.34 306.77 144.26 287.37 133.06"/><polygon class="cls-45" points="315.89 116.6 319.21 114.68 324.06 117.48 320.73 119.4 315.89 116.6"/><polygon class="cls-33" points="308.76 120.72 312.08 118.79 323.39 125.32 320.06 127.24 308.76 120.72"/><polygon class="cls-29" points="301.63 124.83 304.96 122.91 313.2 127.67 309.88 129.6 301.63 124.83"/><polygon class="cls-17" points="294.5 128.95 297.83 127.03 311.82 135.11 308.5 137.03 294.5 128.95"/><polygon class="cls-26" points="287.37 133.06 290.7 131.14 307.2 140.66 303.87 142.59 287.37 133.06"/><polygon class="cls-44" points="302.14 145.32 291.36 151.54 292.76 152.35 303.54 146.12 302.14 145.32"/><polygon class="cls-44" points="298.91 143.45 288.12 149.68 289.53 150.48 300.31 144.26 298.91 143.45"/><polygon class="cls-44" points="295.68 141.58 284.89 147.81 286.3 148.62 297.08 142.39 295.68 141.58"/><polygon class="cls-44" points="292.45 139.72 281.66 145.94 283.06 146.75 293.85 140.53 292.45 139.72"/><polygon class="cls-44" points="289.21 137.85 278.43 144.08 279.83 144.88 290.61 138.66 289.21 137.85"/><polygon class="cls-44" points="285.98 135.98 275.19 142.21 276.6 143.02 287.38 136.79 285.98 135.98"/><polygon class="cls-44" points="279.51 132.25 272.01 136.58 273.4 137.39 280.91 133.06 279.51 132.25"/><polygon class="cls-44" points="282.75 134.12 271.96 140.34 273.36 141.15 284.15 134.93 282.75 134.12"/><polygon class="cls-44" points="315.82 112.72 283.98 131.11 285.38 131.91 317.23 113.53 315.82 112.72"/><polygon class="cls-33" points="314.23 152.45 336.9 139.35 349.8 146.81 327.13 159.9 314.23 152.45"/><polygon class="cls-30" points="327.13 159.9 329.64 148.26 349.8 146.81 327.13 159.9"/><polygon class="cls-31" points="336.9 139.35 334.33 150.97 314.23 152.45 336.9 139.35"/><polygon class="cls-41" points="439.61 169.76 478.79 192.37 429.33 220.93 390.15 198.31 439.61 169.76"/><path class="cls-26" d="M429,198.5l-5.42-8.62a20,20,0,0,0-5.83,2.12Z"/><path class="cls-28" d="M429,198.5,440.25,192c-4.47-2.58-11-3.29-16.65-2.12Z"/><path class="cls-26" d="M417.77,205,429,198.5l-15.77-1.17C412.61,200.14,414.29,203,417.77,205Z"/><path class="cls-29" d="M434.42,207.1a19.71,19.71,0,0,0,5.83-2.12c6.17-3.56,6.17-9.41,0-13L429,198.49Z"/><path class="cls-33" d="M434.42,207.1,429,198.49,417.76,205C422.23,207.57,428.79,208.27,434.42,207.1Z"/><path class="cls-43" d="M461,197.53a.65.65,0,0,1-.23-.06l-29.48-17a.45.45,0,0,1-.17-.61.43.43,0,0,1,.61-.16l29.49,17a.45.45,0,0,1,.16.61A.43.43,0,0,1,461,197.53Z"/><path class="cls-43" d="M464.41,195.53a.6.6,0,0,1-.22-.06l-29.49-17a.45.45,0,1,1,.45-.77l29.48,17a.45.45,0,0,1,.17.61A.45.45,0,0,1,464.41,195.53Z"/><path class="cls-43" d="M467.88,193.53a.49.49,0,0,1-.23-.06l-29.48-17a.45.45,0,0,1-.17-.61.44.44,0,0,1,.61-.16l29.49,17a.45.45,0,0,1,.16.61A.42.42,0,0,1,467.88,193.53Z"/><g class="cls-18"><path class="cls-30" d="M471.05,222.69l0,5.65a2.52,2.52,0,0,1-1.48,2.08v-5.66A2.54,2.54,0,0,0,471.05,222.69Z"/><path class="cls-31" d="M415.42,228.29v-5.58a2.54,2.54,0,0,0,1.49,2.08v5.57A2.5,2.5,0,0,1,415.42,228.29Z"/><polygon class="cls-30" points="469.55 224.86 469.53 230.32 446.99 243.41 447.01 237.95 469.55 224.86"/><polygon class="cls-31" points="439.48 237.93 439.46 243.36 416.92 230.35 416.94 224.92 439.48 237.93"/><path class="cls-31" d="M447,238.08l0,5.3a7.5,7.5,0,0,1-6.74,0v-5.3a7.46,7.46,0,0,0,6.76,0Z"/><path class="cls-33" d="M469.41,220.76c1.93,1.12,1.94,2.93,0,4.06L446.79,238a7.72,7.72,0,0,1-7,0L417,224.82c-1.94-1.12-1.95-2.94,0-4.06l22.63-13.15a7.73,7.73,0,0,1,7,0Z"/></g><g class="cls-18"><path class="cls-23" d="M516.16,207.08l0,5.66a2.52,2.52,0,0,1-1.49,2.07l0-5.65A2.59,2.59,0,0,0,516.16,207.08Z"/><path class="cls-25" d="M461.28,212.69v-5.57a2.54,2.54,0,0,0,1.49,2.07v5.57A2.53,2.53,0,0,1,461.28,212.69Z"/><polygon class="cls-23" points="514.65 209.26 514.63 214.72 492.1 227.81 492.11 222.35 514.65 209.26"/><polygon class="cls-25" points="485.33 222.33 485.32 227.76 462.78 214.75 462.8 209.32 485.33 222.33"/><path class="cls-23" d="M492.1,222.47v5.3a7.48,7.48,0,0,1-6.77,0l0-5.3a7,7,0,0,0,3.37.81A6.91,6.91,0,0,0,492.1,222.47Z"/><path class="cls-26" d="M515,205.17c1.93,1.12,2,2.92,0,4.05l-22.63,13.15a7.69,7.69,0,0,1-7,0L462.6,209.22c-2-1.12-2-2.93,0-4.06L485.21,192a7.71,7.71,0,0,1,7,0Z"/></g><text class="cls-46" transform="matrix(-0.87, -0.5, 0.87, -0.5, 458.37, 226.7)">DATA</text><text class="cls-47" transform="matrix(-0.87, -0.5, 0.87, -0.5, 506.21, 212.63)">DATA</text><path class="cls-25" d="M489.09,223v5.87a7.57,7.57,0,0,1-3.76-.89l0-5.88A7.76,7.76,0,0,0,489.09,223Z"/><path class="cls-30" d="M447,237.76l0,5.86a7.52,7.52,0,0,1-3.74.89v-5.86A7.85,7.85,0,0,0,447,237.76Z"/><path class="cls-10" d="M496.8,198c-4.37,1.94-8.4,16.54-6,21.67s6.21,5.53,11,4.25,10.24-7.58,12-13.43C516.24,202.53,509.26,192.47,496.8,198Z"/><path class="cls-4" d="M491.35,374v1.15c-2.3,1.34-7.46.63-8.81,0-.88-1.35-3.29-1-4.63-.45-5.16.45-7.05-.31-8.77-1.57-.87-.64-2.44-2.31-2.25-4.07C473,370.5,491.35,374,491.35,374Z"/><path class="cls-4" d="M482.86,365.1a90.56,90.56,0,0,1-9,2.06c-3.33.48-5.71-.08-6.5,1.12s1,4.28,3.88,5.31,9-.16,11.19.32,7.86,1.5,9.2.12,0-8.14,0-8.14Z"/><path class="cls-4" d="M514.09,357.68,504,346.4c-4-1.15-8.25-1.39-7.71,2.32.47,3.3,5.72,4.73,9.32,7.93l3.32,3c2.4,2.12,5.44.27,5.15-1.92"/><path class="cls-10" d="M504.55,216.33a8.87,8.87,0,0,1-1.25,1.13,22.6,22.6,0,0,1-8.32,4.07,15.07,15.07,0,0,1-1.63.35l.25,2.92c3.4.93,6.71-.5,9.06-1.16,1.76-.48,4.47-.93,4.47-2.77l-2.57-4.55Z"/><path class="cls-4" d="M509.25,359.6l-3.32-3c-3.6-3.2-8.85-4.63-9.32-7.93h0a3.77,3.77,0,0,0,0,1.11c.47,3.3,5.72,4.73,9.32,7.93l3.32,2.95c2.82,2.5,5.79.72,5.14-3,.29,2.16-2.75,4-5.15,1.89"/><path class="cls-48" d="M514,279.27c3.48,4.92-5.22,18.56-2.84,35.54,1.61,11.52,4.76,30.85,4,41.75-.14,2-7.91,3.41-10-6.21-3.58-16.35-8.06-26.56-9.64-39.25l.83-36.79Z"/><path class="cls-49" d="M502.9,277.48c1,15.29-10,34-9.27,46.34.75,12.73-.64,28.22-.67,42,0,0-11.26,5.33-11.76-2.91-1.65-27-6.83-35.4.15-84.79Z"/><path class="cls-16" d="M482.51,262.68a157.78,157.78,0,0,1,2.35-29.26,20.17,20.17,0,0,1,4.81-4.9l3.6-4.36c2.55-.63,5.09-1.33,7.58-2.1a21.16,21.16,0,0,1,12.41,0h0c5.32,2.25,6.33,5.84,4,12.69.06.31-4.67,19.17-5.27,24.94-.06.56,4,15.85,4.91,22.09,0,0-3.88,3.54-4.95,4.44-7.9,9.79-33.7-2.08-34.67-7.3C476.88,277,480.05,270.88,482.51,262.68Z"/><path class="cls-4" d="M495.18,198.92a9,9,0,0,0-2.09,3.73,17.69,17.69,0,0,0-.66,5.57c-.07,1.31-.61,2-.34,2.7s1.88-2.91,3.4-3.28,1.31,4.23-2,5.53c-1.43,2.18-.29,7.55.52,8.72s5.75,2.66,9.93,1.19,7-5.69,10.41-11.22,0-9.54,0-9.54c1.71-3.78-11.25-8.66-16.63-8.8C494.33,193.6,495.18,198.92,495.18,198.92Z"/><path class="cls-17" d="M501.29,237.11c1.67-5.8-4.75-12.92-10.48-11-2,.67-3.77,1.34-4.84,3.15-2.65,4.45-3.1,19.66-5.28,28.86l-1,.19c3.51,4.73,5.17,7.12,8.27,11.44.32-.11.56-.2.66-.25C489.52,269,501.27,237.17,501.29,237.11Z"/><path class="cls-4" d="M232.74,413.81l9.47-.85a98.58,98.58,0,0,0,9.64,2.22c3.58.51,6.14-.08,7,1.2a1.36,1.36,0,0,1,.2.87h0v0c.17,1.88-1.49,3.65-2.42,4.33-1.85,1.36-3.88,2.18-9.43,1.69-1.45-.57-4-1-5,.49-1.45.68-7,1.45-9.47,0v-1.24C231.29,421.07,232.74,413.81,232.74,413.81Z"/><path class="cls-8" d="M228.28,326.7c-3.12,16.11,8.05,33.74,7.14,46.75-1.24,17.83-1.93,25.62-3.77,40.14,0,0,7.24,4.29,12.58-.62,5.46-28.45,7.87-33.54,7.11-85.59Z"/><path class="cls-32" d="M272.31,252.6c3.21,3.73.52,19.06-4,22.78s-8.2,2.4-12.1-.91-6.17-11.55-5.24-17.76C252.26,248.23,263.2,242,272.31,252.6Z"/><path class="cls-16" d="M273.43,254.17a9.26,9.26,0,0,1,.29,4.39,18.17,18.17,0,0,1-1.85,5.46c-.51,1.25-.33,2.16-.87,2.65s-.45-3.52-1.72-4.54-3.08,3.36-.54,6c.36,2.66-3.06,7.14-4.32,7.88s-6.52-.07-9.75-3.27-3.95-8.35-4.71-15,4.2-8.85,4.2-8.85c.08-4.27,14.26-3.09,19.33-.85C276.56,249.59,273.43,254.17,273.43,254.17Z"/><path class="cls-4" d="M250.78,422.39l9.47-.85a98.58,98.58,0,0,0,9.64,2.22c3.58.51,6.14-.08,7,1.2a1.36,1.36,0,0,1,.2.87h0v0c.18,1.88-1.49,3.65-2.42,4.33-1.85,1.36-3.88,2.18-9.43,1.69-1.45-.57-4-1-5,.49-1.45.68-7,1.45-9.47,0v-1.25C249.33,429.64,250.78,422.39,250.78,422.39Z"/><path class="cls-8" d="M235.45,330.77c-1,16.43,12.42,34.39,13.19,47.66,1.07,18.18,1.1,31,1.14,45.84,0,0,12.09,5.73,12.63-3.13,1.78-29,3.69-36.62-3.81-89.69Z"/><path class="cls-13" d="M267.1,278.09c-6.75-3.37-17.69-12.6-26.63-.53-8.38,11.31-11.83,45.31-12.79,52.09-1.29,9.17,24.26,14.08,30,13.83a2.38,2.38,0,0,0,2.44-1.91c.48-1.68-.89-2.88-.52-4.42a6.5,6.5,0,0,1,1.34-2.33,5.4,5.4,0,0,0,1.24-2.38c.21-1.46-.7-2.83-.86-4.29a8.81,8.81,0,0,1,.43-3.17c2.32-8.64,6.35-16.63,8.59-25.32,1.52-5.88,3.69-15.22-1.15-20.09A5.21,5.21,0,0,0,267.1,278.09Z"/><path class="cls-13" d="M271.25,282.63c5.41,17.15,5.91,25.65,11.21,32.42.39.5,15,16.17,15,16.17a10.32,10.32,0,0,1-7.08,4.47c-8.16-3.49-17.39-16.33-19.88-19.09-1.43-1.59-9.49-16.37-10.71-23.88S269,275.86,271.25,282.63Z"/><path class="cls-48" d="M479.67,270.7a49.88,49.88,0,0,0,8.93-1.21s7.12-15.28,9.06-22.68c0,0-2.57,15.72-4.31,20.83s-4.17,7.11-7.92,6.67a53.32,53.32,0,0,1-6.61-1.21Z"/><path class="cls-41" d="M.65,9.81a117.6,117.6,0,0,1,71,17,181.51,181.51,0,0,1,53.53,50.77c8.4,11.25,15.29,23.18,22.51,35,.25.5,1,0,.71-.42A252.19,252.19,0,0,0,104.49,51a145.44,145.44,0,0,0-63-38.59A102.18,102.18,0,0,0,.44,8.88c-.59,0-.59,1,0,.93Z"/><path class="cls-41" d="M121.84,99.86c3.82,2.94,8.14,5.29,12.21,7.89l12.43,7.69a1.23,1.23,0,0,0,1.73-.72,438.37,438.37,0,0,0,4.49-46.19c0-1-1.6-1.26-1.77-.21a450.32,450.32,0,0,0-5,46.19l1.76-1-12.6-7.23c-4.2-2.39-8.4-5.16-12.6-7.18-.46,0-.79.38-.37.72Z"/><path class="cls-41" d="M521.44,15.68C486.27.78,443.65,8.91,415,33.39,406.9,40.26,398.64,48.54,395.77,59a.52.52,0,0,0,1,.32h0a59.07,59.07,0,0,1,17.67-23.28A104.77,104.77,0,0,1,489.24,10a117.5,117.5,0,0,1,32,6.51c.56.18.79-.63.29-.87Z"/><path class="cls-41" d="M402.2,35.13a26.2,26.2,0,0,0-2.75,6.47l-2.15,6.62A111.64,111.64,0,0,0,394.49,62a.85.85,0,0,0,1.41.69,59.25,59.25,0,0,1,30.89-17.6.71.71,0,1,0-.28-1.4,53.08,53.08,0,0,0-31.58,17.68l1.4.69A113.86,113.86,0,0,1,399,48.11c.7-2.17,1.21-4.45,1.93-6.65a58.38,58.38,0,0,0,2-6.17c.09-.28-.41-.41-.53-.17Z"/><path class="cls-41" d="M45.6,445.1a47.56,47.56,0,0,0,15.76,6.13,81.83,81.83,0,0,0,16.43,2,141.19,141.19,0,0,0,34.27-3.73,253.25,253.25,0,0,0,66.29-24.6c5.91-3.19,11.72-6.61,17.36-10.3a79.65,79.65,0,0,0,15.67-11.45.66.66,0,0,0,.14-.93.67.67,0,0,0-.94-.14h0a163.09,163.09,0,0,0-14.29,9.77c-4.8,3.2-9.73,6.22-14.74,8.88a249.79,249.79,0,0,1-31.39,15,201.18,201.18,0,0,1-66.6,15.76A90.13,90.13,0,0,1,64,450.21a117.14,117.14,0,0,1-18.11-5.9.35.35,0,0,0-.27.62Z"/><path class="cls-41" d="M179.55,407.87a27.29,27.29,0,0,0,8.48,1.07,52,52,0,0,0,8.35-.67,49.93,49.93,0,0,0,16.56-5.59l-1.6-1.38-5.86,10.57c-1.91,3.51-4.13,7-5.73,10.61l1.82.49.31-3.07c0-.79-1.11-.88-1.33,0l-.93,3a1,1,0,0,0,1.82.75c2.22-3.33,3.95-7.06,5.86-10.52l5.64-10.79a1,1,0,0,0-.44-1.37,1,1,0,0,0-.94,0,49.38,49.38,0,0,1-15.49,5.68,50.87,50.87,0,0,1-8.17.75c-2.8,0-5.6-.4-8.4-.4a.45.45,0,0,0,0,.89Z"/><path class="cls-41" d="M695.16,355.87c-37.75,29.11-87.49,31.67-133,26.85-14.72-1.56-29.35-4.2-43.91-6-1.21,0-1.76,1.63-.54,1.84l3.35.55c1,0,1.43-1.22.42-1.47l-3.23-.92-.54,1.84a469.77,469.77,0,0,0,78.47,8.14A182.84,182.84,0,0,0,664,375.08a123.64,123.64,0,0,0,32-18.37C696.62,356.21,695.74,355.37,695.16,355.87Z"/><path class="cls-41" d="M517.75,380.24a15.77,15.77,0,0,0,3.56,3.31l3.78,3.23,7.8,6.63a.8.8,0,0,0,1.09-1.13L517.2,375.17l-.42,1.51,11.83-3.53,5.91-1.8a34.15,34.15,0,0,0,5.67-1.85c.79-.41.46-1.88-.51-1.76a34.35,34.35,0,0,0-5.7,1.64l-5.91,1.84-11.79,3.69a1,1,0,0,0-.57,1.25,1.23,1.23,0,0,0,.19.31c5.62,5.66,11.33,11.28,17,16.77l1.09-1.13-8.05-6.37-4.2-3.32a15.23,15.23,0,0,0-3.65-2.72.49.49,0,0,0-.5.67Z"/></g></g></svg>