<svg xmlns="http://www.w3.org/2000/svg" xmlns:xlink="http://www.w3.org/1999/xlink" width="2129.638" height="4663.756" viewBox="0 0 2129.638 4663.756">
  <defs>
    <linearGradient id="linear-gradient" x1="0.787" y1="0.114" x2="-0.822" y2="1.402" gradientUnits="objectBoundingBox">
      <stop offset="0" stop-color="#fff" stop-opacity="0"/>
      <stop offset="1" stop-color="#727272"/>
    </linearGradient>
  </defs>
  <g id="Background" transform="translate(185.799 -144)" opacity="0.75" style="isolation: isolate">
    <circle id="Page_1_mini_circle" data-name="Page 1 mini circle" cx="96" cy="96" r="96" transform="translate(134 1179)" opacity="0.5" fill="url(#linear-gradient)"/>
    <circle id="Page_1_mini_circle-2" data-name="Page 1 mini circle" cx="96" cy="96" r="96" transform="translate(134 2689)" opacity="0.5" fill="url(#linear-gradient)"/>
    <circle id="Page_1_mini_circle-3" data-name="Page 1 mini circle" cx="96" cy="96" r="96" transform="translate(117 4034)" opacity="0.5" fill="url(#linear-gradient)"/>
    <circle id="Page_1_mini_circle-4" data-name="Page 1 mini circle" cx="96" cy="96" r="96" transform="translate(1516 2438)" opacity="0.5" fill="url(#linear-gradient)"/>
    <circle id="Page_1_mini_circle-5" data-name="Page 1 mini circle" cx="96" cy="96" r="96" transform="translate(1612 3391)" opacity="0.5" fill="url(#linear-gradient)"/>
    <circle id="Page_1_mini_circle-6" data-name="Page 1 mini circle" cx="96" cy="96" r="96" transform="translate(1522 4575)" opacity="0.5" fill="url(#linear-gradient)"/>
    <ellipse id="Page_1_mini_circle-7" data-name="Page 1 mini circle" cx="81.5" cy="83.5" rx="81.5" ry="83.5" transform="translate(355 144)" opacity="0.5" fill="url(#linear-gradient)"/>
    <path id="Page_1_Right_Top" data-name="Page 1 Right Top" d="M168,0,336,291H0Z" transform="translate(1817.971 1097.228) rotate(68)" opacity="0.5" fill="url(#linear-gradient)"/>
    <path id="Page_1_Right_Top-2" data-name="Page 1 Right Top" d="M253.813,206.725c32.232-76.866,141.141-76.866,173.374,0L626.339,681.649C652.314,743.591,606.82,812,539.652,812h-398.3C74.18,812,28.686,743.591,54.661,681.649Z" transform="matrix(0.53, -0.848, 0.848, 0.53, 308.582, 2573.869)" opacity="0.5" fill="url(#linear-gradient)"/>
    <path id="Page_1_Right_Top-3" data-name="Page 1 Right Top" d="M227.992,268.3c41.834-99.762,183.183-99.762,225.017,0L610.057,642.821C643.769,723.214,584.724,812,497.549,812h-314.1c-87.175,0-146.22-88.785-112.509-169.179Z" transform="translate(367.328 4807.756) rotate(-90)" opacity="0.5" fill="url(#linear-gradient)"/>
    <path id="Page_1_Right_Top-4" data-name="Page 1 Right Top" d="M92.892,303.314c26.63-89.641,153.585-89.641,180.216,0l57.014,191.917C348.024,555.49,302.876,616,240.014,616H125.986c-62.862,0-108.009-60.51-90.108-120.769Z" transform="translate(-84.916 3666.677) rotate(-106)" opacity="0.5" fill="url(#linear-gradient)"/>
    <circle id="Page_2_circle" data-name="Page 2 circle" cx="398" cy="398" r="398" transform="translate(562 1220)" opacity="0.5" fill="url(#linear-gradient)"/>
    <circle id="Page_2_circle-2" data-name="Page 2 circle" cx="398" cy="398" r="398" transform="translate(397.914 3501.458) rotate(-48)" opacity="0.5" fill="url(#linear-gradient)"/>
  </g>
</svg>
