<svg xmlns="http://www.w3.org/2000/svg" xmlns:xlink="http://www.w3.org/1999/xlink" width="2129.638" height="4663.756" viewBox="0 0 2129.638 4663.756"><defs><linearGradient id="linear-gradient" x1=".787" x2="-.822" y1=".114" y2="1.402" gradientUnits="objectBoundingBox"><stop offset="0" stop-color="#fff" stop-opacity="0"/><stop offset="1" stop-color="#727272"/></linearGradient></defs><g id="Background" opacity=".75" transform="translate(185.799 -144)" style="isolation:isolate"><circle id="Page_1_mini_circle" cx="96" cy="96" r="96" fill="url(#linear-gradient)" data-name="Page 1 mini circle" opacity=".5" transform="translate(134 1179)"/><circle id="Page_1_mini_circle-2" cx="96" cy="96" r="96" fill="url(#linear-gradient)" data-name="Page 1 mini circle" opacity=".5" transform="translate(134 2689)"/><circle id="Page_1_mini_circle-3" cx="96" cy="96" r="96" fill="url(#linear-gradient)" data-name="Page 1 mini circle" opacity=".5" transform="translate(117 4034)"/><circle id="Page_1_mini_circle-4" cx="96" cy="96" r="96" fill="url(#linear-gradient)" data-name="Page 1 mini circle" opacity=".5" transform="translate(1516 2438)"/><circle id="Page_1_mini_circle-5" cx="96" cy="96" r="96" fill="url(#linear-gradient)" data-name="Page 1 mini circle" opacity=".5" transform="translate(1612 3391)"/><circle id="Page_1_mini_circle-6" cx="96" cy="96" r="96" fill="url(#linear-gradient)" data-name="Page 1 mini circle" opacity=".5" transform="translate(1522 4575)"/><ellipse id="Page_1_mini_circle-7" cx="81.5" cy="83.5" fill="url(#linear-gradient)" data-name="Page 1 mini circle" opacity=".5" rx="81.5" ry="83.5" transform="translate(355 144)"/><path id="Page_1_Right_Top" fill="url(#linear-gradient)" d="M168,0,336,291H0Z" data-name="Page 1 Right Top" opacity=".5" transform="translate(1817.971 1097.228) rotate(68)"/><path id="Page_1_Right_Top-2" fill="url(#linear-gradient)" d="M253.813,206.725c32.232-76.866,141.141-76.866,173.374,0L626.339,681.649C652.314,743.591,606.82,812,539.652,812h-398.3C74.18,812,28.686,743.591,54.661,681.649Z" data-name="Page 1 Right Top" opacity=".5" transform="matrix(0.53, -0.848, 0.848, 0.53, 308.582, 2573.869)"/><path id="Page_1_Right_Top-3" fill="url(#linear-gradient)" d="M227.992,268.3c41.834-99.762,183.183-99.762,225.017,0L610.057,642.821C643.769,723.214,584.724,812,497.549,812h-314.1c-87.175,0-146.22-88.785-112.509-169.179Z" data-name="Page 1 Right Top" opacity=".5" transform="translate(367.328 4807.756) rotate(-90)"/><path id="Page_1_Right_Top-4" fill="url(#linear-gradient)" d="M92.892,303.314c26.63-89.641,153.585-89.641,180.216,0l57.014,191.917C348.024,555.49,302.876,616,240.014,616H125.986c-62.862,0-108.009-60.51-90.108-120.769Z" data-name="Page 1 Right Top" opacity=".5" transform="translate(-84.916 3666.677) rotate(-106)"/><circle id="Page_2_circle" cx="398" cy="398" r="398" fill="url(#linear-gradient)" data-name="Page 2 circle" opacity=".5" transform="translate(562 1220)"/><circle id="Page_2_circle-2" cx="398" cy="398" r="398" fill="url(#linear-gradient)" data-name="Page 2 circle" opacity=".5" transform="translate(397.914 3501.458) rotate(-48)"/></g></svg>