<svg id="Layer_1" data-name="Layer 1" xmlns="http://www.w3.org/2000/svg" viewBox="0 0 1104.26 442.05"><defs><style>.cls-1{fill:#e5f3f9;}.cls-2{fill:#bee1f4;}.cls-3,.cls-36{fill:#112b46;}.cls-10,.cls-11,.cls-12,.cls-13,.cls-15,.cls-3,.cls-30,.cls-4,.cls-47,.cls-48,.cls-5,.cls-6,.cls-7,.cls-8,.cls-9{fill-rule:evenodd;}.cls-4{fill:#21496d;}.cls-26,.cls-5{fill:#495dea;}.cls-40,.cls-45,.cls-46,.cls-6{fill:#fff;}.cls-27,.cls-7{fill:#606bf1;}.cls-8{fill:#20318d;}.cls-44,.cls-9{fill:#ffc8af;}.cls-10,.cls-25{fill:#7181f4;}.cls-11{fill:#f4ae92;}.cls-12,.cls-24{fill:#ec827d;}.cls-13,.cls-31{fill:#fbd15b;}.cls-14{fill:#83c9ff;}.cls-15,.cls-16{fill:#56548c;}.cls-17,.cls-45,.cls-46{isolation:isolate;}.cls-18{fill:#a3d8ef;}.cls-19{fill:#cee9f4;}.cls-20{fill:#6cc6e5;}.cls-21{fill:#d86868;}.cls-22{fill:#d34c4c;}.cls-23{fill:#f49898;}.cls-28{fill:#efbc3f;}.cls-29{fill:#ffdc85;}.cls-30{fill:#f2ad91;}.cls-32{fill:#a5b7c6;}.cls-33{fill:#b6c7d3;}.cls-34{fill:none;}.cls-35{fill:#878cf0;}.cls-37{fill:#ccd9e2;}.cls-38{fill:#eee;}.cls-39{fill:#879faf;}.cls-41{fill:#00c3b6;}.cls-42{fill:#ceccff;}.cls-43{fill:#eaeeef;}.cls-45{font-size:8.58px;}.cls-45,.cls-46{font-family:OpenSans, Open Sans;}.cls-46{font-size:10.21px;}.cls-47{fill:#303072;}.cls-48{fill:#46467f;}.cls-49,.cls-50,.cls-52{fill:#707070;}.cls-50{font-size:57px;}.cls-50,.cls-52{font-family:SFProDisplay-Regular, SF Pro Display;}.cls-51{letter-spacing:-0.13em;}.cls-52{font-size:25.3px;}.cls-53{letter-spacing:-0.01em;}.cls-54{letter-spacing:-0.05em;}.cls-55{letter-spacing:-0.02em;}.cls-56{letter-spacing:-0.01em;}</style></defs><title>Home Page Domain Vectors</title><path class="cls-1" d="M760.78,349.39A15.54,15.54,0,0,0,772,353.57a21.26,21.26,0,0,0,13-5.35c.11-.09.22-.18.32-.28-.88,0-1.75-.11-2.63-.17-4-.33-8.24-.8-11.72-2.65a38.6,38.6,0,0,0,18.5-1.57,33.33,33.33,0,0,0,5.08-9.14,21.38,21.38,0,0,1-2.32,1.23c-5.3,2.44-11.33,2.49-17.15,1.6a77.55,77.55,0,0,0,21-8.54,32.44,32.44,0,0,0,.41-8.23,19.09,19.09,0,0,0-2,2.37c-1.18,1.63-2.09,3.51-3.67,4.76-2.13,1.7-5,1.94-7.78,2-1.39,0-2.78,0-4.18,0q2.48-.88,4.9-1.89a30.36,30.36,0,0,0,4.23-2c3.34-2,5.87-5.08,8.14-8.31a30.7,30.7,0,0,0-1.37-5,40,40,0,0,1-12.32,8,63.14,63.14,0,0,0,11.2-10.65,27.21,27.21,0,0,0-2.37-4.09,30,30,0,0,1-11.45,8.58,39.36,39.36,0,0,0,9.29-11.36,34.67,34.67,0,0,0-2.49-2.65,18.3,18.3,0,0,1-2.45,2.45,18.74,18.74,0,0,1-2.46,1.68,29,29,0,0,0,3.28-5.65,39.67,39.67,0,0,0-3.64-2.85Z" transform="translate(-168 -137.01)"/><path class="cls-1" d="M760.78,349.39a14.39,14.39,0,0,1-7.93-.87,17.61,17.61,0,0,1-5.93-4.27c-3.19-3.59-4.53-8.49-4.93-13.29a24.54,24.54,0,0,0,5.69,4,50.2,50.2,0,0,0,6.71,2.63,80.27,80.27,0,0,0-6.86-6.82c-.89-.7-1.83-1.34-2.68-2.09a13.84,13.84,0,0,1-2.92-3.54,31.43,31.43,0,0,1,2.62-11,35.86,35.86,0,0,0,2.14,5,18.84,18.84,0,0,0,3.33,5,13.45,13.45,0,0,0,3.8,2.54,21.48,21.48,0,0,1-2.16-2.7c-2.85-4.27-3.66-9.52-4.33-14.63a28.31,28.31,0,0,1,3.86-4.18,27.2,27.2,0,0,0,8.17,16.82c-.42-.79-.79-1.62-1.15-2.44a51.65,51.65,0,0,1-3.06-7.94,45,45,0,0,1-1-5.13A17,17,0,0,1,754,304c0-.33,0-.66.06-1a35.39,35.39,0,0,1,4.91-2.9,18.34,18.34,0,0,0,0,6.73,20.69,20.69,0,0,0,1.32,4,32.86,32.86,0,0,0,4.27,7.38,27.29,27.29,0,0,1-1.69-19.77,30.6,30.6,0,0,1,3.88-1.1,20.86,20.86,0,0,0,.06,8,21,21,0,0,1,2.42-8.46c1.49-.21,3-.34,4.49-.44a17.66,17.66,0,0,0-.14,5.08,17,17,0,0,1,1.92-5.2c1.86-.11,3.79-.23,5.78-.46Z" transform="translate(-168 -137.01)"/><path class="cls-2" d="M767.35,341.11c1.06.07,2.12.18,3.19.21,2.13.12,4.27.14,6.4.11s4.25-.17,6.37-.39a47.69,47.69,0,0,0,6.29-1,46.11,46.11,0,0,1-6.3.87c-2.12.17-4.24.23-6.36.23s-4.25-.11-6.36-.28c-1.06-.07-2.11-.2-3.17-.3l-2.38-.31,2.28-6.27a37.07,37.07,0,0,0,4.21.12,45.69,45.69,0,0,0,4.67-.38,56.52,56.52,0,0,0,9.12-2,57.09,57.09,0,0,1-9.16,1.63c-1.54.15-3.09.2-4.64.2a37.25,37.25,0,0,1-4-.24l2.18-6a29.37,29.37,0,0,0,5.61-.61,34.63,34.63,0,0,0,5.75-1.73,44.12,44.12,0,0,0,5.42-2.58,41.61,41.61,0,0,0,5-3.31,40.31,40.31,0,0,1-5.06,3.2,44.16,44.16,0,0,1-5.44,2.45,34.21,34.21,0,0,1-5.74,1.59,28.24,28.24,0,0,1-5.35.48l2.3-6.3a28.27,28.27,0,0,0,4.66-1.33,32,32,0,0,0,4.59-2.16,39.35,39.35,0,0,0,4.23-2.76,34.41,34.41,0,0,0,3.83-3.29,36.16,36.16,0,0,1-3.9,3.19,38.45,38.45,0,0,1-4.28,2.64,32.47,32.47,0,0,1-4.6,2,25.76,25.76,0,0,1-4.33,1.13l2.4-6.56a34.81,34.81,0,0,0,5.46-3.6,33.14,33.14,0,0,0,4.77-4.63,33.57,33.57,0,0,1-4.88,4.5,35.23,35.23,0,0,1-5.18,3.26l4.19-11.49-6.08,15.1a21.64,21.64,0,0,1-1.5-3.41c-.25-.66-.41-1.35-.61-2s-.32-1.37-.42-2.07a27.32,27.32,0,0,1-.34-4.23,24,24,0,0,1,.35-4.23,24,24,0,0,0-.44,4.23,26.16,26.16,0,0,0,.26,4.25c.08.71.25,1.41.38,2.11s.33,1.38.58,2.05a22.3,22.3,0,0,0,1.58,3.74l-2.41,6a29.76,29.76,0,0,1-2.88-4.54,28.6,28.6,0,0,1-2.2-5.56,29.63,29.63,0,0,1-1.09-5.9,26.26,26.26,0,0,1,.12-6,26.92,26.92,0,0,0-.25,6,30.13,30.13,0,0,0,1,6,29.28,29.28,0,0,0,2.11,5.67,30.73,30.73,0,0,0,3,4.92l-2.2,5.46-.71-.72-.59-.6-.56-.64-1.09-1.28-1-1.36a38.18,38.18,0,0,1-3.47-5.8,47,47,0,0,1-2.56-6.28,44.35,44.35,0,0,1-1.63-6.59,43.24,43.24,0,0,0,1.46,6.64,47.26,47.26,0,0,0,2.42,6.38,38.79,38.79,0,0,0,3.36,5.95l1,1.4,1.08,1.33.54.66.6.63.9,1L766.51,333a34.47,34.47,0,0,1-4.45-3.25,40.6,40.6,0,0,1-4.34-4.36,49.68,49.68,0,0,1-3.73-4.92,45,45,0,0,1-3.07-5.36,44.9,44.9,0,0,0,2.94,5.46,49.6,49.6,0,0,0,3.6,5,40.55,40.55,0,0,0,4.27,4.52,34.18,34.18,0,0,0,4.53,3.5l-1.53,3.79c-.71-.31-1.43-.63-2.13-1-.89-.44-1.8-.86-2.66-1.34-1.77-.91-3.46-2-5.13-3.05a57.26,57.26,0,0,1-4.8-3.56,40.21,40.21,0,0,1-4.34-4.12,40.41,40.41,0,0,0,4.23,4.25q2.26,2,4.72,3.71c1.65,1.14,3.33,2.24,5.08,3.21.85.52,1.76,1,2.64,1.43.71.37,1.44.7,2.15,1l-3.12,7.77a18.28,18.28,0,0,1-4.41-1.05,26.5,26.5,0,0,1-4.69-2.45,34.73,34.73,0,0,1-4.17-3.3,36.18,36.18,0,0,1-3.66-3.87,36.38,36.38,0,0,0,3.55,4,35.54,35.54,0,0,0,4.09,3.45,26.28,26.28,0,0,0,4.68,2.64,18.24,18.24,0,0,0,4.35,1.2L755.65,360l1.9.73,5.06-13.86a24.94,24.94,0,0,0,3.29,1.39,27.87,27.87,0,0,0,4.24,1.13,28.71,28.71,0,0,0,4.34.51,25.4,25.4,0,0,0,4.36-.15,25.28,25.28,0,0,1-4.35,0,29.32,29.32,0,0,1-4.28-.67,26.7,26.7,0,0,1-4.13-1.28,25.24,25.24,0,0,1-3.24-1.53l1.95-5.35Z" transform="translate(-168 -137.01)"/><path class="cls-1" d="M522.77,426.58a15.61,15.61,0,0,0,4-11.29,21.27,21.27,0,0,0-5.57-12.87c-.09-.11-.18-.22-.28-.32,0,.88-.09,1.76-.14,2.64-.26,4-.65,8.24-2.45,11.75A38.67,38.67,0,0,0,516.45,398a33.46,33.46,0,0,0-9.22-4.93,21.37,21.37,0,0,1,1.27,2.3c2.52,5.26,2.68,11.28,1.88,17.13a77.8,77.8,0,0,0-8.88-20.88,32.56,32.56,0,0,0-8.25-.26,21.65,21.65,0,0,0,2.4,2c1.65,1.15,3.55,2,4.83,3.58,1.75,2.1,2,5,2.15,7.74.06,1.39.1,2.79.11,4.19-.62-1.64-1.27-3.27-2-4.87a28.77,28.77,0,0,0-2.1-4.19,28.18,28.18,0,0,0-8.44-8,31,31,0,0,0-5,1.45,40.15,40.15,0,0,1,8.21,12.19,62.82,62.82,0,0,0-10.84-11,28.57,28.57,0,0,0-4.05,2.43,29.84,29.84,0,0,1,8.77,11.32,39.25,39.25,0,0,0-11.51-9.1c-.91.8-1.79,1.65-2.61,2.53a17.72,17.72,0,0,1,2.49,2.41,18.72,18.72,0,0,1,1.72,2.43,29,29,0,0,0-5.71-3.18,41.37,41.37,0,0,0-2.79,3.68Z" transform="translate(-168 -137.01)"/><path class="cls-1" d="M522.77,426.58a14.39,14.39,0,0,1-.74,7.94,17.57,17.57,0,0,1-4.17,6c-3.54,3.25-8.41,4.67-13.2,5.14a24.5,24.5,0,0,0,3.9-5.75,48.51,48.51,0,0,0,2.52-6.76,81.57,81.57,0,0,0-6.7,7c-.7.9-1.31,1.86-2.05,2.72a13.5,13.5,0,0,1-3.49,3,31.38,31.38,0,0,1-11-2.44,35.38,35.38,0,0,0,4.95-2.23,18.69,18.69,0,0,0,5-3.41,13.61,13.61,0,0,0,2.48-3.84,20.22,20.22,0,0,1-2.67,2.21c-4.21,2.92-9.45,3.82-14.55,4.57a27.82,27.82,0,0,1-4.24-3.8,27.16,27.16,0,0,0,16.67-8.44c-.78.43-1.6.81-2.41,1.19a51.75,51.75,0,0,1-7.9,3.18,40.26,40.26,0,0,1-5.11,1.05,18.34,18.34,0,0,1-2.56.25c-.33,0-.65,0-1-.05a36.32,36.32,0,0,1-3-4.86,18.61,18.61,0,0,0,6.74-.13,20.69,20.69,0,0,0,3.93-1.4,32.29,32.29,0,0,0,7.32-4.38,27.32,27.32,0,0,1-19.74,2,28.36,28.36,0,0,1-1.17-3.87,21.07,21.07,0,0,0,8-.2,20.86,20.86,0,0,1-8.5-2.28c-.23-1.48-.39-3-.52-4.49a16.71,16.71,0,0,0,5.09.06,16.71,16.71,0,0,1-5.23-1.83c-.15-1.86-.29-3.78-.55-5.77Z" transform="translate(-168 -137.01)"/><path class="cls-2" d="M514.38,420.15c0-1.06.14-2.13.16-3.19.08-2.13.06-4.27,0-6.39s-.24-4.26-.5-6.37a47.82,47.82,0,0,0-1.15-6.28,46.35,46.35,0,0,1,1,6.3c.2,2.11.3,4.24.33,6.36s0,4.24-.18,6.36c0,1.06-.16,2.12-.24,3.17l-.27,2.4-6.31-2.18a37,37,0,0,0,.05-4.21,45.37,45.37,0,0,0-.46-4.66,56.06,56.06,0,0,0-2.11-9.09,55.77,55.77,0,0,1,1.77,9.13c.18,1.54.26,3.09.29,4.63a35,35,0,0,1-.18,4l-6-2.08a29.17,29.17,0,0,0-.69-5.6A34.63,34.63,0,0,0,498,406.7a42.61,42.61,0,0,0-2.67-5.37,40.74,40.74,0,0,0-3.39-4.94,40.33,40.33,0,0,1,3.28,5,44.36,44.36,0,0,1,2.55,5.4,34.63,34.63,0,0,1,1.69,5.71,28.15,28.15,0,0,1,.57,5.34l-6.35-2.19a26.71,26.71,0,0,0-1.41-4.64,31.89,31.89,0,0,0-2.22-4.55,38.52,38.52,0,0,0-2.84-4.19,34.5,34.5,0,0,0-3.36-3.78,34,34,0,0,1,3.25,3.85,38.61,38.61,0,0,1,2.72,4.24,32.27,32.27,0,0,1,2.1,4.55,28.15,28.15,0,0,1,1.21,4.31l-6.61-2.29a35,35,0,0,0-3.69-5.4,33.07,33.07,0,0,0-4.7-4.69,33,33,0,0,1,4.57,4.81,34.26,34.26,0,0,1,3.35,5.13l-11.55-4,15.2,5.82a20.81,20.81,0,0,1-3.39,1.56c-.65.26-1.34.43-2,.64s-1.37.35-2.07.45a24.94,24.94,0,0,1-4.22.42,24.05,24.05,0,0,1-4.24-.29A23.21,23.21,0,0,0,478,418a26.38,26.38,0,0,0,4.25-.34c.71-.09,1.4-.26,2.1-.41s1.38-.36,2.05-.61a23.13,23.13,0,0,0,3.71-1.64l6,2.31a31.09,31.09,0,0,1-4.49,3,29.08,29.08,0,0,1-5.53,2.3,29.61,29.61,0,0,1-5.88,1.18,26.26,26.26,0,0,1-6,0,26.36,26.36,0,0,0,6,.15,30,30,0,0,0,5.94-1.07,28.68,28.68,0,0,0,5.64-2.2,29.79,29.79,0,0,0,4.86-3.09l5.49,2.11-.7.72-.59.61-.63.56L499,422.61l-1.35,1a39.88,39.88,0,0,1-5.74,3.57,48.2,48.2,0,0,1-6.23,2.66,42.38,42.38,0,0,1-6.57,1.74,43.35,43.35,0,0,0,6.62-1.58,46.1,46.1,0,0,0,6.33-2.52,38.76,38.76,0,0,0,5.9-3.46l1.38-1,1.32-1.11.66-.55.61-.6,1-.92,3.33,1.28a33.57,33.57,0,0,1-3.17,4.51,39.79,39.79,0,0,1-4.3,4.41,49.46,49.46,0,0,1-4.85,3.8,45.29,45.29,0,0,1-5.31,3.16,45.36,45.36,0,0,0,5.4-3,48.56,48.56,0,0,0,5-3.69,40.62,40.62,0,0,0,4.46-4.34,35.07,35.07,0,0,0,3.42-4.59l3.81,1.46c-.3.72-.59,1.44-.92,2.15-.43.9-.83,1.81-1.3,2.69-.88,1.78-1.91,3.49-3,5.18a57.28,57.28,0,0,1-3.48,4.86,40.16,40.16,0,0,1-4,4.41,40.33,40.33,0,0,0,4.17-4.3,59.92,59.92,0,0,0,3.63-4.77c1.11-1.67,2.19-3.36,3.13-5.13.5-.87.93-1.78,1.39-2.67.35-.71.68-1.44,1-2.16l7.81,3a18.39,18.39,0,0,1-1,4.43,26.47,26.47,0,0,1-2.37,4.73,37.33,37.33,0,0,1-7,7.95,36.43,36.43,0,0,0,3.94-3.62,35.58,35.58,0,0,0,3.38-4.15,26.67,26.67,0,0,0,2.57-4.73,18.73,18.73,0,0,0,1.13-4.37l13.67,5.24.7-1.92-13.94-4.82a26.34,26.34,0,0,0,1.34-3.31,27,27,0,0,0,1.05-4.26,28.89,28.89,0,0,0,.44-4.35,26.49,26.49,0,0,0-.22-4.36,26.33,26.33,0,0,1,.05,4.35,28.52,28.52,0,0,1-.6,4.3,27.36,27.36,0,0,1-1.21,4.15,23.94,23.94,0,0,1-1.48,3.26l-5.39-1.87Z" transform="translate(-168 -137.01)"/><ellipse class="cls-1" cx="619.37" cy="457.26" rx="64.39" ry="111.53" transform="translate(-9.25 937.13) rotate(-89.69)"/><ellipse class="cls-1" cx="732.48" cy="412.53" rx="64.39" ry="111.53" transform="translate(147.98 1005.75) rotate(-89.69)"/><path class="cls-1" d="M628.59,256h0a25.3,25.3,0,0,0-3.9-1.54l-.21-.06c-.36-.11-.72-.2-1.09-.29L623,254l-1-.2-.44-.08-.93-.14-.47-.06-1-.08-.43,0c-.47,0-.94,0-1.41,0h0a25.16,25.16,0,0,0-14.12,4.31,25.61,25.61,0,0,0-5.37,4.88c-.26.31-.5.63-.75.95a23,23,0,0,0-1.36,2c-.22.34-.42.7-.61,1.06s-.49.95-.71,1.43-.47,1.05-.67,1.59a24.83,24.83,0,0,0-1.67,9c0,.4,0,.8,0,1.2,0,.12,0,.25,0,.37s0,.54.06.8,0,.29,0,.43.06.51.1.76l.06.41c0,.31.11.62.17.93l.06.31c.07.32.15.65.23,1l.12.45c.06.21.11.42.18.63s.11.34.16.51.13.37.19.55.12.36.18.52l.21.53c.13.33.27.66.42,1,.07.15.13.29.19.44s.19.39.29.58.14.26.2.39l.32.58c.07.12.14.24.2.36l.36.59c.06.08.11.17.16.25.31.48.63,1,1,1.4h0A25.24,25.24,0,1,0,628.59,256Z" transform="translate(-168 -137.01)"/><path class="cls-1" d="M554,247.77h0a33.86,33.86,0,0,0-5.31-2.09l-.29-.09c-.49-.14-1-.27-1.48-.39l-.5-.11-1.32-.28-.59-.1c-.42-.08-.85-.14-1.27-.19l-.64-.08c-.44-.05-.88-.09-1.33-.12l-.58,0c-.64,0-1.27-.05-1.91-.05a34.4,34.4,0,0,0-34.4,34.4c0,.54,0,1.08,0,1.61l0,.52c0,.36,0,.73.09,1.09l.06.59c0,.35.09.7.13,1,0,.19.06.38.08.56.07.42.15.84.23,1.26,0,.14.05.27.08.41.09.45.2.9.3,1.33.06.22.12.42.17.63s.15.57.24.85.14.47.22.69.17.51.25.75l.26.72c.09.24.18.47.28.71.18.46.37.92.57,1.36.09.19.17.38.26.56s.26.54.4.81l.26.52c.14.27.29.53.44.8l.27.47.48.81a3.78,3.78,0,0,0,.22.33A34.39,34.39,0,1,0,554,247.77Z" transform="translate(-168 -137.01)"/><path class="cls-1" d="M595.37,189.85l-.37-.11c-.62-.18-1.25-.35-1.89-.5l-.63-.15c-.56-.13-1.12-.24-1.68-.34l-.76-.14c-.53-.09-1.07-.16-1.62-.24l-.8-.1c-.57-.06-1.14-.1-1.71-.14l-.73-.06c-.81,0-1.63-.07-2.45-.07h0A43.67,43.67,0,0,0,560,194.36c-.61.37-1.2.75-1.78,1.14a44,44,0,0,0-19.37,36.42q0,1.05.06,2.07l0,.66c0,.48.06.94.1,1.41,0,.24,0,.5.08.74,0,.45.1.89.16,1.33,0,.24.07.47.1.71.09.54.18,1.08.29,1.61,0,.18.07.35.11.53.12.57.25,1.14.39,1.7.06.26.14.53.21.8s.2.72.31,1.08.18.59.28.88.21.65.32,1l.33.91c.11.31.23.61.36.91.24.59.48,1.17.74,1.75.11.24.22.47.32.71l.51,1,.34.66c.18.34.38.68.56,1l.34.59c.21.36.41.71.63,1,.08.14.18.27.26.41a43.92,43.92,0,1,0,49.72-65.6Z" transform="translate(-168 -137.01)"/><polygon class="cls-2" points="449.5 143.9 416.62 161.67 414.73 107.42 412.46 172.43 372.58 141.46 412.26 178.11 410.6 225.97 418.86 225.97 416.8 166.8 449.5 143.9"/><ellipse class="cls-1" cx="715.31" cy="486.85" rx="64.39" ry="111.53" transform="translate(56.58 1062.5) rotate(-89.69)"/><ellipse class="cls-1" cx="794.18" cy="502.4" rx="36.75" ry="63.67" transform="translate(119.47 1156.83) rotate(-89.69)"/><path class="cls-1" d="M847,462c-1.1,1.8-2.21,3.61-3.4,5.36-.32.46-.82.86-.79,1.34.05.65,1.06,1.57,1.46,2.08.5.67,1.4,2.22,2.13,2.62-.92-.5-2.87-1.86-4.16-1.82a21.79,21.79,0,0,0,.92,2.6,5.88,5.88,0,0,0-2.43-1.19,7.62,7.62,0,0,1-.51,2.72c-.87,4.09-1.44,9,.4,12.93,2,4.23,7.65,3.58,11.46,2.64a16.46,16.46,0,0,0,5.48-2.39c.59-.41,2.54-2.49,3.4-1.86a18.83,18.83,0,0,1-.66-2.44c.55.39,1.35.27,1.75.77.91-.68,1.47-1.81,2.52-2.33-.83-.88-1.07-2.4-1.83-3.36a11.22,11.22,0,0,1,3.18.83,9,9,0,0,1,1.2-1.86,53.41,53.41,0,0,0,4.78-8,50,50,0,0,1,2.87-4.86,26.91,26.91,0,0,1-2.25-2.6c-1-1-2-2-2.92-3.06a4.66,4.66,0,0,1,1.57.43c1.75.5,3.62,1,5.4,1.34.07-.7,3.43-7,3.09-7.23a24.62,24.62,0,0,1-3.36-2.13,16.64,16.64,0,0,0,3.53,0c-.57-1.25-3-2.43-4-3.45.88-.25,1.85.19,2.73.26.63.05,1.29-.13,1.81.23a47.09,47.09,0,0,0,.34-5.69c0-1.23.48-3.35,0-4.47-.33-.78-1.65-1.23-2-1.95a3.19,3.19,0,0,1,1.62-.12c0-.45-.35-6.68-.74-6.63-3.81.54-7.37,1.19-10.75,3.1-.63.36-1.39.59-1.57,1.22-.37,1.28.61,3.11.71,4.36a36.87,36.87,0,0,0-3.92-3,21.36,21.36,0,0,0-3.74,3.91c-.93,1.34-2.05,2.64-2.86,4.06a9.35,9.35,0,0,0-1.15,1.94c-.29,1.44,2.61,4.5,3.59,5.62-1.54-.13-3-1.58-4.71-1.81s-1.77,1.61-2.8,2.23c.68.07,1.49,1.23,1.89,1.76-.78,0-1.57-.57-2.3-.31a18.14,18.14,0,0,0,2.42,4.09c-1,0-1.89-.73-2.85-.94-.47-.11-1-.09-1.4-.23a37,37,0,0,1-3,5.07Z" transform="translate(-168 -137.01)"/><path class="cls-2" d="M876.84,435.26c-2.13,2-3.29,5.66-4.49,8.27-1.3,2.85-2.54,5.73-3.85,8.58a101.24,101.24,0,0,1-8.39,15.28c-6.74,9.79-12.92,20.37-21.15,29-.56.59-1.65-.27-1.12-.93,7.66-9.53,15.1-19.12,22.06-29.2a112.28,112.28,0,0,0,8.88-16.44c2.36-5.05,4.57-10.4,7.54-15.11.27-.44,1,.12.52.54Z" transform="translate(-168 -137.01)"/><path class="cls-1" d="M670.76,567.67c-24.78,14.31-65.09,14.24-90-.16s-25.06-37.67-.28-52,65.09-14.24,90,.16S695.55,553.36,670.76,567.67Z" transform="translate(-168 -137.01)"/><path class="cls-1" d="M800.49,559.24c-5.48,3.16-14.38,3.15-19.88,0s-5.54-8.32-.06-11.48,14.38-3.15,19.88,0S806,556.08,800.49,559.24Z" transform="translate(-168 -137.01)"/><path class="cls-1" d="M501.08,469.71a15.49,15.49,0,0,1-14,0c-3.88-2.24-3.9-5.85-.05-8.08a15.45,15.45,0,0,1,14,0C504.91,463.87,504.93,467.48,501.08,469.71Z" transform="translate(-168 -137.01)"/><path class="cls-1" d="M854.55,442.52a9.66,9.66,0,0,1-8.73,0c-2.41-1.4-2.43-3.65,0-5a9.67,9.67,0,0,1,8.72,0C856.93,438.88,857,441.14,854.55,442.52Z" transform="translate(-168 -137.01)"/><path class="cls-3" d="M538,438.26s8.86,10.36,11.23,11.05.24,3.13-1.58,3.32-7.58-.06-9.27-1.72-6.43-3.42-6.43-3.42a26.84,26.84,0,0,1,1.28-8.74Z" transform="translate(-168 -137.01)"/><path class="cls-3" d="M541.07,365.09s1.15,22.92.73,30.44-2.25,44.83-2.25,44.83a16.21,16.21,0,0,1-7.93,0c-1.6-28.61-1.55-36.84-2-41.1s-1-16.6-1-16.6c-3.42-7.08.16-16.3,1.84-18.51S541.07,365.09,541.07,365.09Z" transform="translate(-168 -137.01)"/><path class="cls-3" d="M523.47,448.09c.3,4.19,1.81,9.13,2.2,11.64a6,6,0,0,1-1.1,4.74c-.58.81-7.67-1.54-8.63-4.26s1-5.12,1.17-10.24C519.39,445.87,523.47,448.09,523.47,448.09Z" transform="translate(-168 -137.01)"/><path class="cls-4" d="M533.7,366.87s-1.21,20.87-3.14,27.81-3.65,27.33-4.47,30.89-1.81,25.51-1.81,25.51a15.73,15.73,0,0,1-7.87,0c.09-20.57-.41-37.27,0-42.92s-.16-22.35-.16-22.35c-1.83-7.78-1.94-8.78,0-13.94S526.49,362.61,533.7,366.87Z" transform="translate(-168 -137.01)"/><path class="cls-5" d="M537.72,317.36c7.2,2,11.07,20.12,13.09,24.18s18.83,5.08,18.83,5.08c1,3.53-1.85,7.23-1.85,7.23-16.19-.68-21.9-2-24.9-8.41S529.34,319.54,537.72,317.36Z" transform="translate(-168 -137.01)"/><path class="cls-6" d="M537.72,317.36c-6.39-.29-21.21,3-26.1,9.27s2.2,17.23,3.91,23.86-.79,23.28-.78,24.87c7.58,5,25.83,5.67,27.88-1.83.84-8.16-1-17.84-1.13-22.61C541.74,340.68,546.19,320.39,537.72,317.36Z" transform="translate(-168 -137.01)"/><path class="cls-7" d="M532.23,318.6c4.12,14.45,5.09,30.68,4.68,36.81s-.56,26-.56,26c4.79-2.52,6.89-7.14,6.89-9.24s-1.8-20.06-1.74-21.5,2.41-17.92,1.74-25.32-5.52-8.25-5.52-8.25h-6.16Z" transform="translate(-168 -137.01)"/><path class="cls-8" d="M536.11,301.43c2.81.89,0,7.29,0,7.29Z" transform="translate(-168 -137.01)"/><path class="cls-9" d="M536.35,302.27a19.72,19.72,0,0,1,.66,6.66c-.4,2.91-.66,8.72-3.25,10.57s-6.28-.3-8.73-2.38a14.58,14.58,0,0,1-5.11-10.57c-.06-4.64,1.76-10.33,8.45-10S536.35,302.27,536.35,302.27Z" transform="translate(-168 -137.01)"/><path class="cls-9" d="M523.35,313s.52,6-1.05,8.18c-.11,1.47,4.11,7.71,8.3,6.62,2.44-.64,2.15-3.48,2.15-3.48a67.59,67.59,0,0,1,0-7.44Z" transform="translate(-168 -137.01)"/><path class="cls-3" d="M538,297.27c1,3.44-.13,4.67-3,5.67s-10.62-1.26-10.62-1.26c.52,3.69-.64,5.6-.64,5.6-1.28-3.62-2.44-1.78-2.56,1.12s1.51,2.83,1.51,2.83c-.11,2.44-.89,3.27-.89,3.27-3.11-2.15-7.34-16.49-1.74-16.83C520.1,292.66,536,289.9,538,297.27Z" transform="translate(-168 -137.01)"/><path class="cls-7" d="M522,320.24c5,10.49,7.59,20.08,7.41,28.74s-2,33.87-2,33.87c-8.64-2.1-14.52-4.54-16.2-7.48,3.7-9.75,5-16.31,4.28-19.08s-7.28-23.92-3.89-30.2C514.92,322.58,522,320.24,522,320.24Z" transform="translate(-168 -137.01)"/><path class="cls-10" d="M514.5,325.91c6,3,10.68,19.37,15.22,23.77,2.57,2.5,15.28,5.75,18.81,5.84,1.36,3.12-1.09,6.58-1.09,6.58-21.69-2-22.64-3.22-29.32-11.73C509.85,339.79,506.54,323.87,514.5,325.91Z" transform="translate(-168 -137.01)"/><path class="cls-11" d="M532.78,320.05c-1.8.7-4.44-.39-7.88-3.15,0,0,1,4,7.88,5.5Z" transform="translate(-168 -137.01)"/><path class="cls-6" d="M523.15,318.84a11.83,11.83,0,0,1-1.11,1.39S524.2,325,525,327a10.85,10.85,0,0,0,2.82,3.82l2.8-3.05C526.75,325.77,523.15,318.84,523.15,318.84Z" transform="translate(-168 -137.01)"/><path class="cls-6" d="M532.4,320.35c-.25-.32-.87,5.89-1.8,7.46a11.24,11.24,0,0,0,2.86,2.14S534.53,323,532.4,320.35Z" transform="translate(-168 -137.01)"/><path class="cls-3" d="M722.74,384.72c-.22,3.1-.51,6.21-.51,6.21h-.69s0-4.7-.73-3.71C720.91,384.67,722.74,384.72,722.74,384.72Z" transform="translate(-168 -137.01)"/><path class="cls-9" d="M713.16,390.06c-.34,0-.78-.36-1.18-.9.7-.84,1.4-1.67,1.87-2.31,1.49-2.07,3.9-6.67,4-8.74s-1.15-23.66-1.49-26.3-1.34-12.63-1.25-13.21,9.28,3.55,9.28,3.55c-.11.82-1.35,6-.85,9.31s1.31,5.53.85,11-3.1,14.17-2.18,18.31l0,.22C719.58,384.67,718.63,391.88,713.16,390.06Z" transform="translate(-168 -137.01)"/><path class="cls-3" d="M712,389.16c.4.54.84.9,1.18.9,5.47,1.82,6.41-5.38,9.12-9.09.86,3.93.47,4.39-.24,5s-3.25,3.67-3.71,5.85-7.36,2-8.62,1.49C708.85,393,710.42,391,712,389.16Z" transform="translate(-168 -137.01)"/><path class="cls-9" d="M732.15,360.77c.27,2.41,1.69,21,1.45,24.12a62.57,62.57,0,0,1-1.59,7.26,7.91,7.91,0,0,0-.36,3.42c.55,1.59.58,6.32,3.14,5.26s4.27-4.37,3.74-8,.1-5.4,0-7.57,1.31-15.75,1.54-20.56-1.38-7.13-1.5-10.34a81.24,81.24,0,0,1,.85-9.92s-11.07-5.81-10.16,1.2S731.89,358.36,732.15,360.77Z" transform="translate(-168 -137.01)"/><path class="cls-3" d="M731.19,395.74c.17,3.24,1,6.15,3.6,5.09s4.27-4.37,3.74-8c-1.37,4-6.64,3.86-6.53-.65A22.76,22.76,0,0,0,731.19,395.74Z" transform="translate(-168 -137.01)"/><path class="cls-12" d="M714.38,315.53s0,22.43,0,29.79,1.91,32.18,1.91,32.18a10.16,10.16,0,0,0,7.4-.35c.54-6.4,2.42-16.95,2.74-22.49s-2.2-6.47-1.15-10.52,3.89-25.72,3.89-25.72Z" transform="translate(-168 -137.01)"/><path class="cls-12" d="M726.43,320.25s1.92,24.09,2.74,27.15,1.41,14.82,2,18.87.66,15.73.66,15.73c1.46,4.77,7.5.73,7.5.73,2.52-14.92.77-22.34.7-26.71s2.06-15.83,1.63-20.58-.95-14.65,0-16.48,2-4.89,2.3-10.38c-7.12-2.71-18.3.33-18.3.33Z" transform="translate(-168 -137.01)"/><path class="cls-6" d="M715.46,267.82c6.31-.31,17,7.15,21.87,13.27s1.85,12.76.22,19.31.9,23,.9,24.54c-7.45,5-21.37,5.63-23.44-1.75-.88-8.05.93-16.43,1-21.14C715.71,291.94,707.12,270.86,715.46,267.82Z" transform="translate(-168 -137.01)"/><path class="cls-13" d="M721,269.29c-3.28,14.27-2.25,29.69-1.53,35.73s.87,26.17.87,26.17c-4.86-2.47-7.19-7-7.31-9.08s1.77-19.51,1.64-20.94S712,286.28,712.29,279s3-8.4,3-8.4l6.25-2.79Z" transform="translate(-168 -137.01)"/><path class="cls-13" d="M730.11,270.79c-4.86,10.38-2.52,19.9-2.3,28.45s4.64,32.53,4.64,32.53C741,329.65,742,324,743.62,321c3.93-20-1-36.2-4.72-42.2C736,274.13,730.11,270.79,730.11,270.79Z" transform="translate(-168 -137.01)"/><path class="cls-14" d="M695.88,303.1a4.78,4.78,0,0,0,4.28,0,1.31,1.31,0,0,0,0-2.48,4.73,4.73,0,0,0-4.29,0A1.31,1.31,0,0,0,695.88,303.1Z" transform="translate(-168 -137.01)"/><path class="cls-13" d="M735.48,279c-5.89,2.89-6.44,20.21-11,24.53-2.55,2.45-12.76.5-16.25.57-1.36,3.07.49,6.78.49,6.78,19.46.95,21.8,1.55,26.74-7.9C739.38,295.56,743.36,277,735.48,279Z" transform="translate(-168 -137.01)"/><path class="cls-13" d="M715.3,270.58c-3.77,2-5.56,17.74-10.06,21.69-2.56,2.24-3.69,4.28-8.88,6.87-1.36,2.8,2.35,4.56,2.35,4.56,10.37-3.92,12.74-7.3,16.2-12.54C719.2,284.67,723.18,268.78,715.3,270.58Z" transform="translate(-168 -137.01)"/><path class="cls-9" d="M698.49,303.13a18.48,18.48,0,0,1-2,2.47c-.9,1-2.33,2.78-2.78,2.34s.42-2.18.42-2.18a29.57,29.57,0,0,0-3.15,3.38c-.47.85-.2-1.61.48-2.73-1.7,2.59-2.11,3.17-2.24,2.52s1.27-4.16,1.07-3.82c-2,3-2.72,3.37-2.51,2a8.4,8.4,0,0,1,3.27-4.33c-3.41,2.21-3.64,2-2.79,1a14.72,14.72,0,0,1,8.23-4C699.14,302.32,698.49,303.13,698.49,303.13Z" transform="translate(-168 -137.01)"/><path class="cls-9" d="M696.22,308.57c1.11-1.71,2.71-3.67,4.75-4.23a7.61,7.61,0,0,1,4.34.37,33.72,33.72,0,0,1,3.83,1,9.63,9.63,0,0,1,.78,3.64,3.2,3.2,0,0,1-.75.16,25.55,25.55,0,0,1-3.58.53,14.46,14.46,0,0,1-2.79,0c.3.09.65.23.7.54a.56.56,0,0,1-.44.56c-1.74.45-3.28-1.66-4.35-2.65C698.82,308.6,694.79,310.79,696.22,308.57Z" transform="translate(-168 -137.01)"/><path class="cls-15" d="M714.51,253.28a3.25,3.25,0,0,0-.24.53c-.31.94-.1,2.06-.32,3-.36,1.56-1.47,2.78-2,4.29-1.91,5.51,3.57,8.6,8.33,8.2a4.48,4.48,0,0,0,2.4-.78c2.31-1.78-.3-4.58-1.39-6.23-.75-1.14-1.82-2.67-1.91-4.09s.62-2.47.36-3.88A2.83,2.83,0,0,0,714.51,253.28Z" transform="translate(-168 -137.01)"/><path class="cls-9" d="M728.69,264.43s-1.57,5.43,2,7.7c.11,1.32-3.64,6.93-7.41,6-2.2-.56-3.32-3.7-3.32-3.7.23-2,1.34-6.08,1.34-6.08Z" transform="translate(-168 -137.01)"/><path class="cls-9" d="M716,253.42a18,18,0,0,0-.6,6.1c.36,2.67.6,8,3,9.69s5.75-.27,8-2.18a13.32,13.32,0,0,0,4.68-9.68c.05-4.25-1.61-9.47-7.74-9.2S716,253.42,716,253.42Z" transform="translate(-168 -137.01)"/><path class="cls-15" d="M720.28,250.82c-1.59,1.94-.84,4.32,1.13,5.76,1.35,1,2.55,1.61,3.44,3.14a10.4,10.4,0,0,1,1.39,4.67c.06,1.36.08,2.7.14,4.05,0,.62.07,1.48.74,1.65a5.52,5.52,0,0,0,3.06-.77,11.32,11.32,0,0,0,2.94-2.54,11.64,11.64,0,0,0,2.76-7c.18-4.75-2.54-7.82-6-10.58S723.1,247.37,720.28,250.82Z" transform="translate(-168 -137.01)"/><path class="cls-15" d="M718.19,248.44l0,0c1.2-.8,6.06-2.31,6.08.17s-3.62,5-5.54,6.07a19.32,19.32,0,0,0-2.49,1.46c-1,.78-1.09,2.27-2,2.94-1.35-1.3-1-4.49-.47-6.09C714.55,250.85,716.42,249.65,718.19,248.44Z" transform="translate(-168 -137.01)"/><path class="cls-11" d="M720.93,269.83c2.51-.21,5.25-2.64,5.25-2.64s-.57,2.92-5.57,4Z" transform="translate(-168 -137.01)"/><path class="cls-16" d="M792.28,416.27c-2.42,3.77-1.85,6.44-1.17,6.74,14.37,6.4,23.31,4.45,25.51,3.72-2.38-3.32-4.64-6.51-7.32-10.13C802.25,417.89,792.28,416.27,792.28,416.27Z" transform="translate(-168 -137.01)"/><g class="cls-17"><polygon class="cls-18" points="582.34 177.1 582.3 192.84 553.73 209.44 553.78 193.71 582.34 177.1"/><polygon class="cls-19" points="453.27 193.71 453.22 209.71 423.99 192.83 424.03 176.84 453.27 193.71"/><path class="cls-20" d="M695.79,352.75l0-15.86c0-2.24,1.48-4.47,4.42-6.19,5.9-3.43,15.54-3.43,21.48,0l0,15.87c-6-3.44-15.58-3.44-21.49,0C697.26,348.28,695.79,350.52,695.79,352.75Z" transform="translate(-168 -137.01)"/><path class="cls-18" d="M647.22,337l-.05,15.81c0-2.26-1.49-4.53-4.48-6.25-5.93-3.43-15.53-3.43-21.42,0l0-15.81c5.91-3.43,15.5-3.43,21.43,0C645.74,332.46,647.22,334.73,647.22,337Z" transform="translate(-168 -137.01)"/><polygon class="cls-19" points="503.83 222.87 503.79 238.86 474.56 221.99 474.61 206 503.83 222.87"/><polygon class="cls-18" points="532.44 206.26 532.4 221.99 503.83 238.59 503.88 222.86 532.44 206.26"/><path class="cls-2" d="M750.58,314l-28.77,16.72c-5.94-3.43-15.56-3.43-21.46,0s-5.88,9,.06,12.43l-28.77,16.72-28.95-16.71c5.91-3.43,5.88-9-.08-12.44s-15.56-3.43-21.47,0l-29-16.72,79-45.88Z" transform="translate(-168 -137.01)"/></g><g class="cls-17"><path class="cls-21" d="M623.26,350.41l0,16.55c0,2.34-1.55,4.67-4.61,6.46l0-16.56C621.72,355.08,623.26,352.74,623.26,350.41Z" transform="translate(-168 -137.01)"/><polygon class="cls-21" points="479.88 236.89 479.84 252.63 451.27 269.23 451.32 253.49 479.88 236.89"/><path class="cls-22" d="M592.66,412.54l.05-15.86c0-2.23,1.47-4.46,4.41-6.17,5.91-3.44,15.54-3.44,21.49,0l-.05,15.86c-5.95-3.44-15.57-3.44-21.49,0C594.14,408.07,592.67,410.31,592.66,412.54Z" transform="translate(-168 -137.01)"/><polygon class="cls-21" points="429.32 266.05 429.27 281.79 400.71 298.39 400.75 282.65 429.32 266.05"/><polygon class="cls-23" points="400.71 282.59 400.66 298.38 321.53 252.69 321.57 236.91 400.71 282.59"/><path class="cls-24" d="M618.67,344.63c5.94,3.43,6,9,.07,12.44l29,16.72-28.77,16.72c-5.95-3.44-15.57-3.44-21.47,0s-5.88,9,.07,12.44l-28.77,16.72-79.45-45.88,78.94-45.87,29,16.72C603.1,341.21,612.72,341.2,618.67,344.63Z" transform="translate(-168 -137.01)"/></g><g class="cls-17"><path class="cls-25" d="M719.74,366.8l0-16.31c0,2.33,1.54,4.66,4.61,6.44l0,16.32C721.26,371.47,719.73,369.13,719.74,366.8Z" transform="translate(-168 -137.01)"/><polygon class="cls-25" points="557.06 253.5 557.01 269.5 527.78 252.63 527.83 236.63 557.06 253.5"/><path class="cls-26" d="M750.34,396.78l0,15.81c0-2.25-1.49-4.52-4.47-6.24-5.94-3.43-15.53-3.43-21.44,0l.05-15.82c5.9-3.42,15.49-3.42,21.43,0C748.86,392.25,750.35,394.52,750.34,396.78Z" transform="translate(-168 -137.01)"/><polygon class="cls-25" points="607.62 282.66 607.58 298.65 578.35 281.78 578.4 265.79 607.62 282.66"/><polygon class="cls-26" points="686.13 236.71 686.09 252.59 606.96 298.57 607.01 282.69 686.13 236.71"/><path class="cls-27" d="M854.15,373.79l-78.94,45.88-29-16.72c5.91-3.43,5.89-9-.06-12.43s-15.57-3.43-21.48,0l-29-16.72,28.77-16.72c-6-3.43-6-9-.06-12.44s15.51-3.43,21.46,0l28.77-16.71Z" transform="translate(-168 -137.01)"/></g><g class="cls-17"><path class="cls-28" d="M727.06,410.19l0,16.56c0,2.34-1.55,4.67-4.61,6.46l.05-16.56C725.51,414.86,727.05,412.53,727.06,410.19Z" transform="translate(-168 -137.01)"/><path class="cls-29" d="M617.28,426.58l0-16.29c0,2.33,1.54,4.66,4.61,6.44l0,16.29C618.81,431.24,617.27,428.91,617.28,426.58Z" transform="translate(-168 -137.01)"/><path class="cls-30" d="M644,485s.78.27,2.6,1a18.85,18.85,0,0,0,8.22.63c2.46-.39,5.84-.94,5.18-1.83s-13-4-13.53-3.75S644,485,644,485Z" transform="translate(-168 -137.01)"/><polygon class="cls-29" points="504.5 342.51 504.45 358.43 424.66 312.35 424.7 296.44 504.5 342.51"/><polygon class="cls-28" points="583.67 296.5 583.63 312.39 504.5 358.37 504.55 342.48 583.67 296.5"/><path class="cls-31" d="M722.23,404.43c5.94,3.43,6,9,.06,12.44l29,16.72-78.93,45.87-79.46-45.88,28.77-16.72c-6-3.43-6-9-.08-12.44s15.53-3.44,21.47,0l28.77-16.72,29,16.72C706.66,401,716.28,401,722.23,404.43Z" transform="translate(-168 -137.01)"/></g><g class="cls-17"><path class="cls-32" d="M672.5,430.16v1.67c0,1.33-.87,2.64-2.61,3.65a14,14,0,0,1-12.7,0c-1.77-1-2.65-2.36-2.65-3.7V430.1c0,1.33.88,2.68,2.65,3.7a14,14,0,0,0,12.7,0C671.63,432.8,672.5,431.48,672.5,430.16Z" transform="translate(-168 -137.01)"/><path class="cls-33" d="M669.88,426.56c3.46,2,3.48,5.24,0,7.25a13.8,13.8,0,0,1-12.5,0c-3.46-2-3.48-5.24,0-7.24A13.77,13.77,0,0,1,669.88,426.56Z" transform="translate(-168 -137.01)"/></g><path class="cls-33" d="M684.49,376.61a2,2,0,0,0-2,.2l-44.09,25.45a5.08,5.08,0,0,0-2.46,5v33a1.38,1.38,0,0,0,.5,1.83l2.85,1.66a1.7,1.7,0,0,1-.69-1.84v-33a5.61,5.61,0,0,1,2.64-5l44.1-25.46a2,2,0,0,1,2-.2Z" transform="translate(-168 -137.01)"/><path class="cls-32" d="M685.58,378.37c1.59-.91,2.88-.18,2.89,1.65l.06,33.05a6.34,6.34,0,0,1-2.86,5l-44.21,25.52c-1.6.92-2.89.18-2.89-1.64l-.07-33.05a6.33,6.33,0,0,1,2.87-5Z" transform="translate(-168 -137.01)"/><line class="cls-34" x1="472.56" y1="271.88" x2="472.56" y2="271.88"/><polygon class="cls-35" points="518.47 249.63 518.46 243.07 517.21 243.79 514.5 245.35 478.41 266.2 471.9 269.95 471.9 271.85 471.9 271.86 472.56 287.51 472.59 300.41 500.33 284.39 504.65 281.89 517.8 274.3 518.47 249.63"/><polygon class="cls-27" points="478.93 266.06 472.56 269.74 472.57 271.75 518.47 245.25 518.46 243.24 478.93 266.06"/><path class="cls-27" d="M645.77,411.23a3.19,3.19,0,0,1-1.45,2.5c-.8.46-1.44.09-1.44-.83a3.18,3.18,0,0,1,1.44-2.5C645.12,409.94,645.77,410.31,645.77,411.23Z" transform="translate(-168 -137.01)"/><path class="cls-24" d="M645.77,416.31a3.21,3.21,0,0,1-1.45,2.51c-.8.45-1.44.08-1.44-.84a3.2,3.2,0,0,1,1.44-2.5C645.12,415,645.77,415.4,645.77,416.31Z" transform="translate(-168 -137.01)"/><path class="cls-31" d="M645.77,421.34a3.21,3.21,0,0,1-1.45,2.51c-.8.45-1.44.08-1.44-.84a3.2,3.2,0,0,1,1.44-2.5C645.12,420.05,645.77,420.42,645.77,421.34Z" transform="translate(-168 -137.01)"/><path class="cls-24" d="M645.57,438.1a2.27,2.27,0,0,1-1,1.79c-.57.34-1,.06-1-.6a2.3,2.3,0,0,1,1-1.79C645.11,437.17,645.57,437.43,645.57,438.1Z" transform="translate(-168 -137.01)"/><polygon class="cls-16" points="536.18 302.36 522.07 294.21 540.86 283.36 554.98 291.51 536.18 302.36"/><polygon class="cls-36" points="536.43 302.93 536.43 302.32 555.06 291.56 555.06 292.18 536.43 302.93"/><polygon class="cls-36" points="536.43 302.32 536.43 302.94 522.46 294.87 522.46 294.26 536.43 302.32"/><polygon class="cls-37" points="485.87 312.19 485.87 313.41 499.84 321.53 499.83 320.31 485.87 312.19"/><polygon class="cls-32" points="499.84 320.28 499.85 321.5 530.45 303.84 530.44 302.62 499.84 320.28"/><polygon class="cls-33" points="485.83 312.25 499.61 320.26 530.12 302.64 516.34 294.63 485.83 312.25"/><g class="cls-17"><polygon class="cls-37" points="514.48 296.61 514.49 297.24 516.48 298.4 516.48 297.77 514.48 296.61"/><polygon class="cls-32" points="516.48 297.77 516.48 298.42 518.47 297.26 518.47 296.62 516.48 297.77"/><polygon class="cls-33" points="514.47 296.65 516.38 297.76 518.26 296.67 516.36 295.56 514.47 296.65"/></g><g class="cls-17"><polygon class="cls-37" points="511.82 298 511.82 298.64 513.81 299.8 513.81 299.16 511.82 298"/><polygon class="cls-32" points="513.81 299.16 513.81 299.81 515.81 298.66 515.81 298.01 513.81 299.16"/><polygon class="cls-33" points="512.06 298.05 513.97 299.15 515.85 298.06 513.94 296.95 512.06 298.05"/></g><g class="cls-17"><polygon class="cls-37" points="509.82 299.4 509.83 300.03 511.82 301.18 511.82 300.55 509.82 299.4"/><polygon class="cls-32" points="511.82 300.55 511.82 301.2 513.81 300.05 513.81 299.4 511.82 300.55"/><polygon class="cls-33" points="509.65 299.44 511.56 300.54 513.44 299.45 511.53 298.34 509.65 299.44"/></g><g class="cls-17"><polygon class="cls-37" points="507.16 300.79 507.17 301.42 509.16 302.58 509.16 301.94 507.16 300.79"/><polygon class="cls-32" points="509.16 301.94 509.16 302.59 511.15 301.44 511.15 300.8 509.16 301.94"/><polygon class="cls-33" points="507.24 300.83 509.15 301.93 511.03 300.85 509.12 299.74 507.24 300.83"/></g><g class="cls-17"><polygon class="cls-37" points="504.5 302.17 504.5 302.81 506.5 303.98 506.5 303.34 504.5 302.17"/><polygon class="cls-32" points="506.5 303.34 506.5 303.98 508.49 302.83 508.49 302.19 506.5 303.34"/><polygon class="cls-33" points="504.83 302.22 506.73 303.33 508.62 302.24 506.71 301.13 504.83 302.22"/></g><g class="cls-17"><polygon class="cls-37" points="502.5 303.57 502.51 304.2 504.5 305.36 504.5 304.73 502.5 303.57"/><polygon class="cls-32" points="504.5 304.73 504.5 305.37 506.5 304.22 506.5 303.58 504.5 304.73"/><polygon class="cls-33" points="502.42 303.61 504.33 304.72 506.21 303.63 504.3 302.52 502.42 303.61"/></g><g class="cls-17"><polygon class="cls-37" points="499.84 304.96 499.85 305.6 501.84 306.75 501.84 306.12 499.84 304.96"/><polygon class="cls-32" points="501.84 306.12 501.84 306.76 503.83 305.62 503.83 304.97 501.84 306.12"/><polygon class="cls-33" points="500.01 305 501.92 306.11 503.8 305.02 501.89 303.91 500.01 305"/></g><g class="cls-17"><polygon class="cls-37" points="497.85 306.35 497.85 306.99 499.84 308.15 499.84 307.51 497.85 306.35"/><polygon class="cls-32" points="499.18 307.51 499.18 308.16 501.17 307.01 501.17 306.37 499.18 307.51"/><polygon class="cls-33" points="497.6 306.39 499.5 307.5 501.39 306.41 499.48 305.3 497.6 306.39"/></g><g class="cls-17"><polygon class="cls-37" points="495.18 307.75 495.19 308.38 497.18 309.54 497.18 308.9 495.18 307.75"/><polygon class="cls-32" points="497.18 308.9 497.18 309.55 499.18 308.4 499.18 307.75 497.18 308.9"/><polygon class="cls-33" points="495.18 307.79 497.09 308.89 498.98 307.81 497.07 306.7 495.18 307.79"/></g><g class="cls-17"><polygon class="cls-37" points="492.52 309.14 492.53 309.77 494.52 310.93 494.52 310.3 492.52 309.14"/><polygon class="cls-32" points="494.52 310.3 494.52 310.94 496.51 309.79 496.51 309.14 494.52 310.3"/><polygon class="cls-33" points="492.78 309.18 494.69 310.29 496.57 309.2 494.66 308.09 492.78 309.18"/></g><g class="cls-17"><polygon class="cls-37" points="487.87 311.92 487.87 312.56 489.86 313.71 489.86 313.08 487.87 311.92"/><polygon class="cls-32" points="489.86 313 489.86 313.56 493.85 311.26 493.85 310.7 489.86 313"/><polygon class="cls-33" points="487.95 311.96 489.86 313.07 494.16 310.59 492.25 309.48 487.95 311.96"/></g><g class="cls-17"><polygon class="cls-37" points="514.48 299.42 514.48 300.05 516.48 301.21 516.48 300.58 514.48 299.42"/><polygon class="cls-32" points="516.48 300.5 516.48 301.06 520.47 298.76 520.46 298.19 516.48 300.5"/><polygon class="cls-33" points="514.49 299.45 516.4 300.57 520.69 298.08 518.79 296.97 514.49 299.45"/></g><g class="cls-17"><polygon class="cls-37" points="511.82 300.81 511.82 301.44 513.81 302.6 513.81 301.97 511.82 300.81"/><polygon class="cls-32" points="513.81 301.97 513.81 302.61 515.81 301.46 515.8 300.81 513.81 301.97"/><polygon class="cls-33" points="512.08 300.85 513.99 301.96 515.87 300.87 513.97 299.76 512.08 300.85"/></g><g class="cls-17"><polygon class="cls-37" points="509.82 302.2 509.82 302.83 511.82 303.99 511.81 303.36 509.82 302.2"/><polygon class="cls-32" points="511.82 303.36 511.82 304 513.81 302.86 513.81 302.21 511.82 303.36"/><polygon class="cls-33" points="509.68 302.24 511.58 303.35 513.46 302.26 511.56 301.15 509.68 302.24"/></g><g class="cls-17"><polygon class="cls-37" points="507.16 303.6 507.16 304.23 509.16 305.38 509.16 304.75 507.16 303.6"/><polygon class="cls-32" points="509.16 304.75 509.16 305.39 511.15 304.24 511.14 303.6 509.16 304.75"/><polygon class="cls-33" points="507.26 303.63 509.17 304.74 511.05 303.65 509.14 302.54 507.26 303.63"/></g><g class="cls-17"><polygon class="cls-37" points="504.5 304.99 504.5 305.62 506.5 306.77 506.5 306.14 504.5 304.99"/><polygon class="cls-32" points="506.5 306.14 506.5 306.79 508.49 305.63 508.48 304.99 506.5 306.14"/><polygon class="cls-33" points="504.85 305.02 506.76 306.13 508.64 305.04 506.73 303.93 504.85 305.02"/></g><g class="cls-17"><polygon class="cls-37" points="502.5 306.38 502.5 307.01 504.5 308.16 504.49 307.53 502.5 306.38"/><polygon class="cls-32" points="504.5 307.53 504.51 308.17 506.5 307.03 506.49 306.39 504.5 307.53"/><polygon class="cls-33" points="502.44 306.41 504.35 307.52 506.23 306.43 504.33 305.32 502.44 306.41"/></g><g class="cls-17"><polygon class="cls-37" points="499.84 307.77 499.84 308.4 501.84 309.56 501.84 308.93 499.84 307.77"/><polygon class="cls-32" points="501.84 308.93 501.84 309.57 503.83 308.42 503.83 307.77 501.84 308.93"/><polygon class="cls-33" points="500.03 307.81 501.94 308.92 503.82 307.82 501.92 306.71 500.03 307.81"/></g><g class="cls-17"><polygon class="cls-37" points="497.85 309.16 497.85 309.79 499.84 310.95 499.84 310.32 497.85 309.16"/><polygon class="cls-32" points="499.18 310.32 499.18 310.96 501.17 309.81 501.17 309.17 499.18 310.32"/><polygon class="cls-33" points="497.62 309.2 499.53 310.31 501.4 309.22 499.5 308.11 497.62 309.2"/></g><g class="cls-17"><polygon class="cls-37" points="495.18 310.55 495.18 311.18 497.18 312.34 497.17 311.71 495.18 310.55"/><polygon class="cls-32" points="497.18 311.71 497.19 312.35 499.18 311.2 499.17 310.56 497.18 311.71"/><polygon class="cls-33" points="495.21 310.59 497.11 311.7 499 310.61 497.09 309.5 495.21 310.59"/></g><g class="cls-17"><polygon class="cls-37" points="492.52 311.94 492.52 312.58 494.52 313.74 494.52 313.1 492.52 311.94"/><polygon class="cls-32" points="494.52 313.1 494.52 313.75 496.51 312.59 496.51 311.95 494.52 313.1"/><polygon class="cls-33" points="492.8 311.98 494.7 313.09 496.59 312 494.68 310.89 492.8 311.98"/></g><g class="cls-17"><polygon class="cls-37" points="490.53 313.33 490.53 313.97 492.52 315.13 492.52 314.49 490.53 313.33"/><polygon class="cls-32" points="492.52 314.49 492.52 315.14 494.52 313.99 494.51 313.34 492.52 314.49"/><polygon class="cls-33" points="490.39 313.37 492.3 314.48 494.17 313.39 492.27 312.29 490.39 313.37"/></g><g class="cls-17"><polygon class="cls-37" points="517.14 300.83 517.15 301.47 519.14 302.62 519.14 301.99 517.14 300.83"/><polygon class="cls-32" points="519.14 301.91 519.14 302.47 523.13 300.17 523.13 299.61 519.14 301.91"/><polygon class="cls-33" points="516.92 300.87 518.83 301.98 523.13 299.5 521.22 298.39 516.92 300.87"/></g><g class="cls-17"><polygon class="cls-37" points="514.48 302.22 514.49 302.86 516.48 304.01 516.48 303.38 514.48 302.22"/><polygon class="cls-32" points="516.48 303.38 516.48 304.02 518.47 302.87 518.47 302.23 516.48 303.38"/><polygon class="cls-33" points="514.51 302.26 516.42 303.37 518.3 302.28 516.39 301.17 514.51 302.26"/></g><g class="cls-17"><polygon class="cls-37" points="511.82 303.61 511.82 304.25 513.81 305.4 513.81 304.77 511.82 303.61"/><polygon class="cls-32" points="513.81 304.77 513.81 305.41 515.81 304.26 515.81 303.62 513.81 304.77"/><polygon class="cls-33" points="512.1 303.65 514.01 304.76 515.9 303.67 513.99 302.56 512.1 303.65"/></g><g class="cls-17"><polygon class="cls-37" points="509.82 305 509.83 305.64 511.82 306.8 511.82 306.17 509.82 305"/><polygon class="cls-32" points="511.82 306.17 511.82 306.81 513.81 305.65 513.81 305.01 511.82 306.17"/><polygon class="cls-33" points="509.69 305.04 511.6 306.15 513.48 305.06 511.57 303.96 509.69 305.04"/></g><g class="cls-17"><polygon class="cls-37" points="507.16 306.4 507.17 307.03 509.16 308.19 509.16 307.56 507.16 306.4"/><polygon class="cls-32" points="509.16 307.56 509.16 308.2 511.15 307.05 511.15 306.4 509.16 307.56"/><polygon class="cls-33" points="507.28 306.43 509.19 307.55 511.07 306.45 509.16 305.35 507.28 306.43"/></g><g class="cls-17"><polygon class="cls-37" points="504.5 307.79 504.5 308.42 506.5 309.58 506.5 308.95 504.5 307.79"/><polygon class="cls-32" points="506.5 308.95 506.5 309.59 508.49 308.44 508.49 307.79 506.5 308.95"/><polygon class="cls-33" points="504.87 307.82 506.78 308.94 508.66 307.85 506.75 306.74 504.87 307.82"/></g><g class="cls-17"><polygon class="cls-37" points="502.5 309.18 502.51 309.82 504.5 310.97 504.5 310.34 502.5 309.18"/><polygon class="cls-32" points="504.5 310.34 504.5 310.98 506.5 309.83 506.5 309.19 504.5 310.34"/><polygon class="cls-33" points="502.46 309.22 504.37 310.33 506.25 309.24 504.35 308.13 502.46 309.22"/></g><g class="cls-17"><polygon class="cls-37" points="499.84 310.57 499.85 311.21 501.84 312.36 501.84 311.73 499.84 310.57"/><polygon class="cls-32" points="501.84 311.73 501.84 312.37 503.83 311.22 503.83 310.58 501.84 311.73"/><polygon class="cls-33" points="500.05 310.61 501.96 311.72 503.84 310.63 501.93 309.52 500.05 310.61"/></g><g class="cls-17"><polygon class="cls-37" points="497.85 311.96 497.85 312.6 499.84 313.75 499.84 313.12 497.85 311.96"/><polygon class="cls-32" points="499.18 313.12 499.18 313.76 501.17 312.61 501.17 311.97 499.18 313.12"/><polygon class="cls-33" points="497.64 312 499.55 313.11 501.43 312.02 499.52 310.91 497.64 312"/></g><g class="cls-17"><polygon class="cls-37" points="492.52 314.75 492.53 315.38 494.52 316.54 494.52 315.91 492.52 314.75"/><polygon class="cls-32" points="495.18 315.83 495.18 316.39 499.18 314.09 499.18 313.52 495.18 315.83"/><polygon class="cls-33" points="492.81 314.78 494.73 315.89 499.02 313.41 497.11 312.3 492.81 314.78"/></g><g class="cls-17"><polygon class="cls-37" points="517.14 303.63 517.15 304.27 519.14 305.43 519.14 304.8 517.14 303.63"/><polygon class="cls-32" points="519.14 304.77 519.14 305.37 525.79 301.53 525.79 300.93 519.14 304.77"/><polygon class="cls-33" points="516.95 303.67 518.86 304.78 525.56 300.91 523.65 299.8 516.95 303.67"/></g><g class="cls-17"><polygon class="cls-37" points="514.48 305.02 514.49 305.66 516.48 306.82 516.48 306.19 514.48 305.02"/><polygon class="cls-32" points="516.48 306.19 516.48 306.83 518.47 305.68 518.47 305.04 516.48 306.19"/><polygon class="cls-33" points="514.54 305.06 516.45 306.18 518.33 305.09 516.42 303.98 514.54 305.06"/></g><g class="cls-17"><polygon class="cls-37" points="511.82 306.42 511.82 307.05 513.81 308.21 513.81 307.58 511.82 306.42"/><polygon class="cls-32" points="513.81 307.58 513.81 308.22 515.81 307.07 515.81 306.43 513.81 307.58"/><polygon class="cls-33" points="512.13 306.46 514.03 307.56 515.92 306.48 514.01 305.37 512.13 306.46"/></g><g class="cls-17"><polygon class="cls-37" points="509.82 307.81 509.83 308.45 511.82 309.61 511.82 308.97 509.82 307.81"/><polygon class="cls-32" points="511.82 308.97 511.82 309.62 513.81 308.46 513.81 307.82 511.82 308.97"/><polygon class="cls-33" points="509.71 307.85 511.62 308.96 513.51 307.87 511.6 306.76 509.71 307.85"/></g><g class="cls-17"><polygon class="cls-37" points="507.16 309.2 507.17 309.84 509.16 311 509.16 310.36 507.16 309.2"/><polygon class="cls-32" points="509.16 310.36 509.16 311.01 511.15 309.85 511.15 309.21 509.16 310.36"/><polygon class="cls-33" points="507.31 309.24 509.22 310.35 511.1 309.26 509.19 308.16 507.31 309.24"/></g><g class="cls-17"><polygon class="cls-37" points="505.16 310.59 505.16 311.23 507.16 312.39 507.16 311.76 505.16 310.59"/><polygon class="cls-32" points="506.5 311.76 506.5 312.4 508.49 311.24 508.49 310.61 506.5 311.76"/><polygon class="cls-33" points="504.9 310.63 506.8 311.74 508.69 310.65 506.78 309.55 504.9 310.63"/></g><g class="cls-17"><polygon class="cls-37" points="502.5 311.98 502.51 312.62 504.5 313.78 504.5 313.15 502.5 311.98"/><polygon class="cls-32" points="504.5 313.15 504.5 313.79 506.5 312.64 506.5 312 504.5 313.15"/><polygon class="cls-33" points="502.48 312.02 504.39 313.13 506.27 312.05 504.37 310.94 502.48 312.02"/></g><g class="cls-17"><polygon class="cls-37" points="499.84 313.38 499.85 314.01 501.84 315.17 501.84 314.54 499.84 313.38"/><polygon class="cls-32" points="501.84 314.54 501.84 315.18 503.83 314.03 503.83 313.39 501.84 314.54"/><polygon class="cls-33" points="500.07 313.41 501.98 314.52 503.87 313.44 501.96 312.33 500.07 313.41"/></g><g class="cls-17"><polygon class="cls-37" points="495.18 316.16 495.19 316.8 497.18 317.96 497.18 317.32 495.18 316.16"/><polygon class="cls-32" points="497.18 317.25 497.18 317.81 501.17 315.5 501.17 314.94 497.18 317.25"/><polygon class="cls-33" points="495.25 316.2 497.16 317.31 501.46 314.83 499.55 313.72 495.25 316.2"/></g><g class="cls-17"><polygon class="cls-37" points="524.46 302.26 524.46 302.9 526.45 304.06 526.45 303.43 524.46 302.26"/><polygon class="cls-32" points="525.79 303.43 525.8 304.07 527.78 302.91 527.78 302.27 525.79 303.43"/><polygon class="cls-33" points="524.21 302.3 526.11 303.41 527.99 302.32 526.09 301.22 524.21 302.3"/></g><g class="cls-17"><polygon class="cls-37" points="521.8 303.65 521.8 304.29 523.79 305.45 523.79 304.82 521.8 303.65"/><polygon class="cls-32" points="523.79 304.82 523.79 305.46 525.79 304.31 525.78 303.67 523.79 304.82"/><polygon class="cls-33" points="521.79 303.69 523.7 304.8 525.58 303.72 523.67 302.61 521.79 303.69"/></g><g class="cls-17"><polygon class="cls-37" points="519.14 305.05 519.14 305.69 521.13 306.84 521.13 306.21 519.14 305.05"/><polygon class="cls-32" points="521.13 306.21 521.13 306.85 523.13 305.7 523.12 305.06 521.13 306.21"/><polygon class="cls-33" points="519.38 305.09 521.29 306.19 523.17 305.11 521.26 304 519.38 305.09"/></g><g class="cls-17"><polygon class="cls-37" points="507.16 312.01 507.16 312.64 509.16 313.8 509.16 313.17 507.16 312.01"/><polygon class="cls-32" points="509.16 313.1 509.16 313.69 520.47 307.16 520.46 306.57 509.16 313.1"/><polygon class="cls-33" points="507.33 312.05 509.24 313.15 520.76 306.5 518.86 305.39 507.33 312.05"/></g><g class="cls-17"><polygon class="cls-37" points="505.16 313.4 505.16 314.03 507.16 315.19 507.15 314.56 505.16 313.4"/><polygon class="cls-32" points="506.5 314.56 506.5 315.2 508.49 314.05 508.48 313.41 506.5 314.56"/><polygon class="cls-33" points="504.92 313.44 506.82 314.55 508.7 313.46 506.8 312.35 504.92 313.44"/></g><g class="cls-17"><polygon class="cls-37" points="502.5 314.79 502.5 315.43 504.5 316.59 504.49 315.95 502.5 314.79"/><polygon class="cls-32" points="504.5 315.95 504.51 316.6 506.5 315.44 506.49 314.8 504.5 315.95"/><polygon class="cls-33" points="502.51 314.83 504.41 315.94 506.3 314.85 504.39 313.74 502.51 314.83"/></g><g class="cls-17"><polygon class="cls-37" points="497.85 317.57 497.85 318.21 499.84 319.37 499.83 318.73 497.85 317.57"/><polygon class="cls-32" points="499.84 318.66 499.85 319.22 503.83 316.91 503.83 316.35 499.84 318.66"/><polygon class="cls-33" points="497.69 317.61 499.59 318.72 503.89 316.24 501.98 315.14 497.69 317.61"/></g><polygon class="cls-27" points="505.16 263.12 505.19 273.03 513.81 268.05 513.79 258.14 505.16 263.12"/><g class="cls-17"><polygon class="cls-33" points="497.18 271.38 497.18 271.76 503.17 268.3 503.17 267.92 497.18 271.38"/><polygon class="cls-33" points="497.18 270.2 497.18 270.58 503.23 267.09 503.22 266.71 497.18 270.2"/><polygon class="cls-33" points="497.18 268.98 497.18 269.37 503.17 265.9 503.17 265.53 497.18 268.98"/><polygon class="cls-33" points="497.18 267.79 497.18 268.16 503.17 264.7 503.17 264.33 497.18 267.79"/></g><polygon class="cls-33" points="497.18 273.78 497.18 274.16 503.17 270.7 503.17 270.32 497.18 273.78"/><polygon class="cls-33" points="497.18 272.58 497.18 272.96 503.17 269.5 503.16 269.12 497.18 272.58"/><polygon class="cls-33" points="498.51 274.11 498.51 274.49 503.03 271.88 503.02 271.5 498.51 274.11"/><g class="cls-17"><path class="cls-31" d="M680.2,392.2a.61.61,0,0,0-.28.49c0,.18.13.26.28.17a.62.62,0,0,0,.29-.5C680.5,392.18,680.37,392.1,680.2,392.2Z" transform="translate(-168 -137.01)"/><path class="cls-33" d="M682.6,390.24c.3-.18.54,0,.54.31v2.58c0-.32-.22-.45-.5-.29l-19,11a1.13,1.13,0,0,0-.5.86v-2.58a1.2,1.2,0,0,1,.54-.94Zm-1.23,1.95a.62.62,0,0,0,.29-.5c0-.19-.13-.26-.29-.17a.66.66,0,0,0-.29.5.18.18,0,0,0,.29.17m-1.16.67a.64.64,0,0,0,.29-.5c0-.18-.14-.25-.3-.16a.61.61,0,0,0-.28.49.18.18,0,0,0,.29.17m2.33-1.34a.65.65,0,0,0,.28-.5c0-.19-.12-.26-.28-.17a.64.64,0,0,0-.29.5c0,.18.13.25.29.17" transform="translate(-168 -137.01)"/><path class="cls-2" d="M682.64,392.91c.28-.16.5,0,.5.29l0,12.4a1.13,1.13,0,0,1-.5.87l-19,11c-.27.16-.5,0-.5-.29l0-12.4a1.1,1.1,0,0,1,.5-.87ZM673.19,410l8.62-5,0-9.91-8.63,5,0,10.09m-8-.25,6-3.46v-.37l-6,3.45v.63m0-3.84,6-3.46v-.37l-6,3.45v.23m0,1.34,6-3.45v-.38l-6,3.46v.36m0-2.39,6-3.45v-.38l-6,3.46v.1m0,6.27,6-3.46v-.37l-6,3.45v.09m0-2.11,6-3.45v-.38l-6,3.46v.49m1.33,2.66,4.66-2.7v-.39l-4.66,2.69v.4" transform="translate(-168 -137.01)"/></g><path class="cls-24" d="M682.53,390.85a.63.63,0,0,0-.28.5c0,.18.13.26.28.17a.66.66,0,0,0,.29-.5C682.82,390.83,682.69,390.76,682.53,390.85Z" transform="translate(-168 -137.01)"/><path class="cls-27" d="M681.37,391.52a.66.66,0,0,0-.29.5.18.18,0,0,0,.29.17.61.61,0,0,0,.28-.5C681.66,391.5,681.53,391.43,681.37,391.52Z" transform="translate(-168 -137.01)"/><path class="cls-32" d="M713.58,431.13c0,.09-.06.15-.1.2l-3.9,2.22-.65-.42c1.07-.61,3.3-1.83,4.6-2.56A3.53,3.53,0,0,1,713.58,431.13Z" transform="translate(-168 -137.01)"/><path class="cls-38" d="M713.52,430.58l-4.6,2.55-8-5.07L703,426.9a12.42,12.42,0,0,1,4.22-1.86,5.51,5.51,0,0,1,3.28.88A5.58,5.58,0,0,1,713.52,430.58Z" transform="translate(-168 -137.01)"/><path class="cls-37" d="M709.32,433.55a.28.28,0,0,0,.41-.25,5.52,5.52,0,0,0-3.21-5c-.92-.53-3.72-1.64-5.74-.13a.27.27,0,0,0,0,.45C703.87,430.45,708,432.81,709.32,433.55Z" transform="translate(-168 -137.01)"/><path class="cls-32" d="M598.44,374l-1.35.79a1,1,0,0,0,.4-.87l1.35-.79A1,1,0,0,1,598.44,374Z" transform="translate(-168 -137.01)"/><path class="cls-32" d="M558.62,319.64l1.35-.78a1,1,0,0,1,1,.09l-1.35.78A1,1,0,0,0,558.62,319.64Z" transform="translate(-168 -137.01)"/><polygon class="cls-32" points="429.39 206.21 430.65 205.42 430.58 236.09 429.32 236.87 429.39 206.21"/><polygon class="cls-32" points="391.59 182.72 392.94 181.94 429.56 203.08 428.2 203.86 391.59 182.72"/><path class="cls-32" d="M596.21,340.87l1.35-.78a3,3,0,0,1,1.35,2.35l-1.35.78A3,3,0,0,0,596.21,340.87Z" transform="translate(-168 -137.01)"/><path class="cls-36" d="M596,340.9a3,3,0,0,1,1.36,2.34l-.08,30.54c0,.86-.61,1.21-1.36.78L559.41,353.5a3,3,0,0,1-1.35-2.34l.08-30.54c0-.86.6-1.21,1.35-.78Z" transform="translate(-168 -137.01)"/><polygon class="cls-35" points="391.39 185.78 391.33 213.43 427.99 234.59 428.05 206.94 391.39 185.78"/><path class="cls-39" d="M596.65,375.46V377c0,.29-.16.57-.66.78v-1.57C596.5,376,596.68,375.74,596.65,375.46Z" transform="translate(-168 -137.01)"/><path class="cls-39" d="M570,391.47V393a2.94,2.94,0,0,1-2.65,0v-1.53A2.9,2.9,0,0,0,570,391.47Z" transform="translate(-168 -137.01)"/><path class="cls-39" d="M530.12,371.09v-1.57c-.13.29.06.57.66.79v1.57C530.17,371.66,530,371.37,530.12,371.09Z" transform="translate(-168 -137.01)"/><polygon class="cls-39" points="427.99 239.32 427.98 240.87 402.04 255.91 402.05 254.36 427.99 239.32"/><polygon class="cls-39" points="399.38 254.43 399.38 255.99 362.78 234.87 362.79 233.3 399.38 254.43"/><path class="cls-32" d="M596.12,374.66c.74.44.75,1.14,0,1.57l-26.25,15.22a3,3,0,0,1-2.71,0l-36.61-21.14a.83.83,0,0,1,0-1.57l26.25-15.21a3,3,0,0,1,2.71,0Z" transform="translate(-168 -137.01)"/><g class="cls-17"><path class="cls-33" d="M566.42,378.63l-13.49-7.79a1.51,1.51,0,0,0-1.36,0l-7,4c-.38.21-.37.57,0,.79l13.5,7.79a1.49,1.49,0,0,0,1.35,0l7-4a.41.41,0,0,0,0-.78" transform="translate(-168 -137.01)"/></g><g class="cls-17"><polygon class="cls-36" points="392.06 218.83 392.06 219.25 389.4 220.8 389.4 220.38 392.06 218.83"/><polygon class="cls-36" points="389.4 220.38 389.4 220.81 386.74 219.28 386.74 218.84 389.4 220.38"/><polygon class="cls-16" points="391.9 218.9 389.44 220.33 387.01 218.93 389.48 217.5 391.9 218.9"/></g><g class="cls-17"><polygon class="cls-36" points="395.38 220.63 395.38 221.04 392.72 222.59 392.73 222.17 395.38 220.63"/><polygon class="cls-36" points="392.72 222.18 392.72 222.61 390.06 221.07 390.06 220.64 392.72 222.18"/><polygon class="cls-16" points="395.02 220.7 392.56 222.13 390.12 220.73 392.59 219.3 395.02 220.7"/></g><g class="cls-17"><polygon class="cls-36" points="398.05 222.42 398.05 222.84 395.38 224.38 395.38 223.97 398.05 222.42"/><polygon class="cls-36" points="396.05 223.98 396.05 224.4 393.39 222.87 393.39 222.44 396.05 223.98"/><polygon class="cls-16" points="398.13 222.49 395.66 223.93 393.24 222.52 395.7 221.09 398.13 222.49"/></g><g class="cls-17"><polygon class="cls-36" points="401.37 224.22 401.37 224.64 398.71 226.18 398.71 225.76 401.37 224.22"/><polygon class="cls-36" points="398.71 225.76 398.71 226.19 396.05 224.66 396.06 224.23 398.71 225.76"/><polygon class="cls-16" points="401.23 224.29 398.76 225.72 396.34 224.32 398.81 222.88 401.23 224.29"/></g><g class="cls-17"><polygon class="cls-36" points="404.7 226 404.69 226.43 402.04 227.97 402.04 227.55 404.7 226"/><polygon class="cls-36" points="402.04 227.56 402.04 227.99 399.38 226.45 399.38 226.02 402.04 227.56"/><polygon class="cls-16" points="404.34 226.08 401.87 227.51 399.44 226.11 401.91 224.68 404.34 226.08"/></g><g class="cls-17"><polygon class="cls-36" points="407.36 227.8 407.36 228.22 404.7 229.77 404.7 229.35 407.36 227.8"/><polygon class="cls-36" points="405.37 229.36 405.37 229.78 402.7 228.25 402.7 227.82 405.37 229.36"/><polygon class="cls-16" points="407.45 227.87 404.99 229.31 402.56 227.91 405.02 226.47 407.45 227.87"/></g><g class="cls-17"><polygon class="cls-36" points="410.69 229.6 410.69 230.02 408.03 231.56 408.03 231.14 410.69 229.6"/><polygon class="cls-36" points="408.03 231.15 408.02 231.58 405.37 230.04 405.37 229.62 408.03 231.15"/><polygon class="cls-16" points="410.55 229.67 408.09 231.1 405.66 229.7 408.13 228.26 410.55 229.67"/></g><g class="cls-17"><polygon class="cls-36" points="414.01 231.39 414.01 231.81 411.35 233.35 411.35 232.94 414.01 231.39"/><polygon class="cls-36" points="411.35 232.95 411.35 233.37 408.69 231.84 408.69 231.4 411.35 232.95"/><polygon class="cls-16" points="413.66 231.46 411.19 232.9 408.77 231.49 411.23 230.06 413.66 231.46"/></g><g class="cls-17"><polygon class="cls-36" points="416.68 233.18 416.68 233.61 414.01 235.15 414.01 234.73 416.68 233.18"/><polygon class="cls-36" points="414.68 234.74 414.68 235.16 412.02 233.63 412.02 233.2 414.68 234.74"/><polygon class="cls-16" points="416.77 233.25 414.31 234.69 411.88 233.29 414.34 231.85 416.77 233.25"/></g><g class="cls-17"><polygon class="cls-36" points="420 234.98 420 235.4 417.34 236.95 417.34 236.52 420 234.98"/><polygon class="cls-36" points="417.34 236.53 417.34 236.96 414.68 235.43 414.68 235 417.34 236.53"/><polygon class="cls-16" points="419.88 235.05 417.41 236.48 414.99 235.09 417.45 233.65 419.88 235.05"/></g><g class="cls-17"><polygon class="cls-36" points="425.99 238.57 425.99 238.99 423.33 240.54 423.34 240.12 425.99 238.57"/><polygon class="cls-36" points="423.33 240.02 423.32 240.4 418.01 237.32 418.01 236.95 423.33 240.02"/><polygon class="cls-16" points="426.1 238.64 423.63 240.07 418.09 236.87 420.56 235.44 426.1 238.64"/></g><g class="cls-17"><polygon class="cls-36" points="392.06 222.45 392.06 222.87 389.4 224.42 389.4 224 392.06 222.45"/><polygon class="cls-36" points="389.4 223.9 389.39 224.28 384.07 221.2 384.07 220.82 389.4 223.9"/><polygon class="cls-16" points="391.88 222.52 389.42 223.95 383.88 220.75 386.34 219.32 391.88 222.52"/></g><g class="cls-17"><polygon class="cls-36" points="395.38 224.25 395.38 224.66 392.72 226.21 392.72 225.78 395.38 224.25"/><polygon class="cls-36" points="392.72 225.79 392.72 226.22 390.06 224.69 390.06 224.26 392.72 225.79"/><polygon class="cls-16" points="394.99 224.32 392.52 225.74 390.1 224.35 392.56 222.92 394.99 224.32"/></g><g class="cls-17"><polygon class="cls-36" points="398.05 226.03 398.05 226.46 395.38 228.01 395.38 227.58 398.05 226.03"/><polygon class="cls-36" points="396.05 227.59 396.05 228.02 393.39 226.48 393.4 226.05 396.05 227.59"/><polygon class="cls-16" points="398.09 226.11 395.63 227.54 393.21 226.14 395.66 224.71 398.09 226.11"/></g><g class="cls-17"><polygon class="cls-36" points="401.37 227.83 401.37 228.25 398.71 229.8 398.71 229.37 401.37 227.83"/><polygon class="cls-36" points="398.71 229.38 398.71 229.81 396.05 228.28 396.05 227.85 398.71 229.38"/><polygon class="cls-16" points="401.2 227.91 398.74 229.33 396.31 227.93 398.77 226.5 401.2 227.91"/></g><g class="cls-17"><polygon class="cls-36" points="404.7 229.63 404.7 230.04 402.04 231.59 402.04 231.17 404.7 229.63"/><polygon class="cls-36" points="402.04 231.17 402.04 231.6 399.38 230.07 399.38 229.64 402.04 231.17"/><polygon class="cls-16" points="404.31 229.7 401.85 231.13 399.42 229.73 401.88 228.3 404.31 229.7"/></g><g class="cls-17"><polygon class="cls-36" points="407.36 231.42 407.36 231.84 404.7 233.39 404.71 232.96 407.36 231.42"/><polygon class="cls-36" points="405.37 232.97 405.36 233.4 402.7 231.86 402.7 231.43 405.37 232.97"/><polygon class="cls-16" points="407.41 231.49 404.96 232.92 402.53 231.52 404.99 230.09 407.41 231.49"/></g><g class="cls-17"><polygon class="cls-36" points="410.69 233.22 410.69 233.63 408.03 235.18 408.03 234.75 410.69 233.22"/><polygon class="cls-36" points="408.03 234.76 408.03 235.19 405.37 233.66 405.37 233.23 408.03 234.76"/><polygon class="cls-16" points="410.52 233.29 408.06 234.71 405.64 233.31 408.09 231.88 410.52 233.29"/></g><g class="cls-17"><polygon class="cls-36" points="414.01 235.01 414.01 235.44 411.35 236.97 411.35 236.55 414.01 235.01"/><polygon class="cls-36" points="411.35 236.56 411.35 236.98 408.69 235.45 408.7 235.02 411.35 236.56"/><polygon class="cls-16" points="413.63 235.09 411.17 236.51 408.75 235.1 411.2 233.68 413.63 235.09"/></g><g class="cls-17"><polygon class="cls-36" points="416.68 236.8 416.67 237.22 414.01 238.77 414.01 238.35 416.68 236.8"/><polygon class="cls-36" points="414.68 238.35 414.68 238.78 412.02 237.25 412.02 236.81 414.68 238.35"/><polygon class="cls-16" points="416.74 236.87 414.28 238.31 411.85 236.9 414.31 235.48 416.74 236.87"/></g><g class="cls-17"><polygon class="cls-36" points="420 238.59 420 239.02 417.34 240.56 417.34 240.15 420 238.59"/><polygon class="cls-36" points="417.34 240.15 417.34 240.57 414.68 239.04 414.68 238.61 417.34 240.15"/><polygon class="cls-16" points="419.84 238.67 417.39 240.1 414.96 238.7 417.42 237.27 419.84 238.67"/></g><g class="cls-17"><polygon class="cls-36" points="423.33 240.39 423.33 240.82 420.67 242.36 420.67 241.94 423.33 240.39"/><polygon class="cls-36" points="420.67 241.94 420.66 242.37 418.01 240.83 418.01 240.41 420.67 241.94"/><polygon class="cls-16" points="422.96 240.47 420.5 241.9 418.07 240.49 420.53 239.06 422.96 240.47"/></g><g class="cls-17"><polygon class="cls-36" points="388.73 224.27 388.73 224.7 386.07 226.24 386.07 225.82 388.73 224.27"/><polygon class="cls-36" points="386.07 225.72 386.07 226.09 380.75 223.02 380.75 222.65 386.07 225.72"/><polygon class="cls-16" points="388.75 224.35 386.28 225.78 380.75 222.58 383.21 221.15 388.75 224.35"/></g><g class="cls-17"><polygon class="cls-36" points="392.06 226.06 392.06 226.49 389.4 228.03 389.4 227.61 392.06 226.06"/><polygon class="cls-36" points="389.4 227.62 389.4 228.04 386.74 226.51 386.74 226.08 389.4 227.62"/><polygon class="cls-16" points="391.85 226.14 389.39 227.57 386.97 226.17 389.42 224.74 391.85 226.14"/></g><g class="cls-17"><polygon class="cls-36" points="395.38 227.86 395.38 228.28 392.72 229.82 392.72 229.41 395.38 227.86"/><polygon class="cls-36" points="392.72 229.41 392.72 229.83 390.06 228.3 390.06 227.87 392.72 229.41"/><polygon class="cls-16" points="394.96 227.93 392.5 229.36 390.07 227.96 392.53 226.53 394.96 227.93"/></g><g class="cls-17"><polygon class="cls-36" points="398.05 229.65 398.05 230.07 395.38 231.62 395.38 231.2 398.05 229.65"/><polygon class="cls-36" points="396.05 231.2 396.05 231.63 393.39 230.09 393.39 229.67 396.05 231.2"/><polygon class="cls-16" points="398.06 229.72 395.6 231.15 393.18 229.75 395.64 228.32 398.06 229.72"/></g><g class="cls-17"><polygon class="cls-36" points="401.37 231.44 401.37 231.87 398.71 233.41 398.72 232.99 401.37 231.44"/><polygon class="cls-36" points="398.71 233 398.7 233.43 396.05 231.89 396.05 231.47 398.71 233"/><polygon class="cls-16" points="401.17 231.52 398.72 232.95 396.29 231.55 398.75 230.12 401.17 231.52"/></g><g class="cls-17"><polygon class="cls-36" points="404.7 233.24 404.7 233.67 402.04 235.21 402.04 234.79 404.7 233.24"/><polygon class="cls-36" points="402.04 234.8 402.04 235.22 399.38 233.68 399.38 233.25 402.04 234.8"/><polygon class="cls-16" points="404.28 233.31 401.82 234.75 399.4 233.34 401.85 231.91 404.28 233.31"/></g><g class="cls-17"><polygon class="cls-36" points="407.36 235.03 407.36 235.46 404.7 237 404.7 236.58 407.36 235.03"/><polygon class="cls-36" points="405.37 236.58 405.37 237.01 402.7 235.47 402.71 235.05 405.37 236.58"/><polygon class="cls-16" points="407.39 235.1 404.93 236.53 402.5 235.14 404.96 233.71 407.39 235.1"/></g><g class="cls-17"><polygon class="cls-36" points="410.69 236.83 410.68 237.25 408.03 238.8 408.03 238.37 410.69 236.83"/><polygon class="cls-36" points="408.03 238.38 408.03 238.81 405.37 237.27 405.37 236.84 408.03 238.38"/><polygon class="cls-16" points="410.5 236.9 408.04 238.33 405.6 236.93 408.07 235.5 410.5 236.9"/></g><g class="cls-17"><polygon class="cls-36" points="414.01 238.62 414.01 239.05 411.35 240.6 411.35 240.17 414.01 238.62"/><polygon class="cls-36" points="411.35 240.18 411.35 240.61 408.69 239.07 408.69 238.64 411.35 240.18"/><polygon class="cls-16" points="413.6 238.7 411.15 240.13 408.72 238.72 411.18 237.29 413.6 238.7"/></g><g class="cls-17"><polygon class="cls-36" points="420 242.22 420 242.63 417.34 244.18 417.34 243.76 420 242.22"/><polygon class="cls-36" points="417.34 243.66 417.34 244.04 412.02 240.97 412.02 240.59 417.34 243.66"/><polygon class="cls-16" points="419.82 242.29 417.36 243.71 411.82 240.52 414.29 239.09 419.82 242.29"/></g><g class="cls-17"><polygon class="cls-36" points="388.73 227.88 388.73 228.31 386.07 229.86 386.07 229.43 388.73 227.88"/><polygon class="cls-36" points="386.07 229.39 386.07 229.78 377.42 224.79 377.42 224.4 386.07 229.39"/><polygon class="cls-16" points="388.72 227.96 386.26 229.39 377.61 224.4 380.07 222.97 388.72 227.96"/></g><g class="cls-17"><polygon class="cls-36" points="392.06 229.68 392.05 230.1 389.4 231.65 389.4 231.22 392.06 229.68"/><polygon class="cls-36" points="389.4 231.23 389.4 231.66 386.74 230.13 386.74 229.7 389.4 231.23"/><polygon class="cls-16" points="391.82 229.75 389.36 231.18 386.94 229.78 389.4 228.35 391.82 229.75"/></g><g class="cls-17"><polygon class="cls-36" points="394.72 231.47 394.72 231.89 392.06 233.44 392.06 233.02 394.72 231.47"/><polygon class="cls-36" points="392.72 233.02 392.72 233.45 390.06 231.92 390.06 231.49 392.72 233.02"/><polygon class="cls-16" points="394.93 231.54 392.47 232.98 390.04 231.57 392.5 230.15 394.93 231.54"/></g><g class="cls-17"><polygon class="cls-36" points="398.05 233.27 398.05 233.69 395.38 235.24 395.38 234.81 398.05 233.27"/><polygon class="cls-36" points="395.38 234.82 395.38 235.25 392.72 233.71 392.72 233.28 395.38 234.82"/><polygon class="cls-16" points="398.04 233.34 395.58 234.77 393.16 233.37 395.61 231.94 398.04 233.34"/></g><g class="cls-17"><polygon class="cls-36" points="401.37 235.06 401.37 235.48 398.71 237.03 398.71 236.6 401.37 235.06"/><polygon class="cls-36" points="398.71 236.61 398.71 237.04 396.05 235.51 396.05 235.08 398.71 236.61"/><polygon class="cls-16" points="401.15 235.14 398.69 236.56 396.26 235.16 398.72 233.73 401.15 235.14"/></g><g class="cls-17"><polygon class="cls-36" points="404.03 236.85 404.03 237.28 401.37 238.82 401.37 238.4 404.03 236.85"/><polygon class="cls-36" points="402.04 238.41 402.04 238.84 399.38 237.3 399.38 236.87 402.04 238.41"/><polygon class="cls-16" points="404.25 236.93 401.79 238.36 399.37 236.95 401.82 235.53 404.25 236.93"/></g><g class="cls-17"><polygon class="cls-36" points="407.36 238.65 407.36 239.07 404.7 240.62 404.7 240.2 407.36 238.65"/><polygon class="cls-36" points="404.7 240.2 404.7 240.63 402.04 239.1 402.04 238.67 404.7 240.2"/><polygon class="cls-16" points="407.36 238.72 404.91 240.15 402.47 238.75 404.93 237.32 407.36 238.72"/></g><g class="cls-17"><polygon class="cls-36" points="410.69 240.44 410.69 240.87 408.03 242.41 408.03 242 410.69 240.44"/><polygon class="cls-36" points="408.03 242 408.03 242.42 405.37 240.89 405.37 240.46 408.03 242"/><polygon class="cls-16" points="410.47 240.52 408.01 241.95 405.58 240.55 408.05 239.12 410.47 240.52"/></g><g class="cls-17"><polygon class="cls-36" points="416.68 244.03 416.68 244.46 414.01 246 414.01 245.58 416.68 244.03"/><polygon class="cls-36" points="414.01 245.48 414.01 245.86 408.69 242.78 408.69 242.41 414.01 245.48"/><polygon class="cls-16" points="416.69 244.11 414.23 245.54 408.69 242.34 411.15 240.91 416.69 244.11"/></g><g class="cls-17"><polygon class="cls-36" points="379.42 226.12 379.42 226.54 376.76 228.08 376.76 227.67 379.42 226.12"/><polygon class="cls-36" points="376.76 227.68 376.75 228.1 374.09 226.57 374.09 226.14 376.76 227.68"/><polygon class="cls-16" points="379.36 226.19 376.9 227.63 374.47 226.22 376.94 224.79 379.36 226.19"/></g><g class="cls-17"><polygon class="cls-36" points="382.74 227.91 382.74 228.34 380.08 229.88 380.08 229.46 382.74 227.91"/><polygon class="cls-36" points="380.08 229.47 380.08 229.89 377.42 228.36 377.42 227.93 380.08 229.47"/><polygon class="cls-16" points="382.48 227.99 380.01 229.42 377.58 228.02 380.04 226.58 382.48 227.99"/></g><g class="cls-17"><polygon class="cls-36" points="385.4 229.71 385.4 230.13 382.74 231.68 382.74 231.25 385.4 229.71"/><polygon class="cls-36" points="383.41 231.26 383.41 231.69 380.75 230.15 380.75 229.73 383.41 231.26"/><polygon class="cls-16" points="385.58 229.78 383.12 231.21 380.69 229.81 383.16 228.38 385.58 229.78"/></g><g class="cls-17"><polygon class="cls-36" points="401.37 238.68 401.37 239.1 398.71 240.65 398.71 240.22 401.37 238.68"/><polygon class="cls-36" points="398.71 240.12 398.71 240.51 384.07 232.06 384.07 231.67 398.71 240.12"/><polygon class="cls-16" points="401.12 238.75 398.65 240.18 383.8 231.6 386.26 230.17 401.12 238.75"/></g><g class="cls-17"><polygon class="cls-36" points="404.03 240.47 404.03 240.9 401.37 242.44 401.37 242.02 404.03 240.47"/><polygon class="cls-36" points="402.04 242.02 402.04 242.45 399.38 240.92 399.38 240.49 402.04 242.02"/><polygon class="cls-16" points="404.23 240.55 401.76 241.98 399.33 240.57 401.8 239.14 404.23 240.55"/></g><g class="cls-17"><polygon class="cls-36" points="407.36 242.27 407.36 242.69 404.7 244.24 404.7 243.82 407.36 242.27"/><polygon class="cls-36" points="404.7 243.82 404.7 244.25 402.04 242.71 402.04 242.28 404.7 243.82"/><polygon class="cls-16" points="407.33 242.34 404.87 243.77 402.44 242.37 404.91 240.94 407.33 242.34"/></g><g class="cls-17"><polygon class="cls-36" points="413.35 245.86 413.35 246.28 410.69 247.82 410.69 247.4 413.35 245.86"/><polygon class="cls-36" points="410.69 247.31 410.69 247.68 405.37 244.61 405.37 244.24 410.69 247.31"/><polygon class="cls-16" points="413.56 245.93 411.09 247.36 405.55 244.17 408.01 242.74 413.56 245.93"/></g><polygon class="cls-2" points="395.38 212.23 423.99 228.74 423.99 208.15 423.99 208.15 395.38 191.63 395.38 212.23"/><polygon class="cls-35" points="422 210.17 412.02 204.41 412.02 218.42 422 224.18 422 210.17"/><polygon class="cls-16" points="398.71 197.32 410.02 203.85 410.02 203.02 398.71 196.49 398.71 197.32"/><polygon class="cls-16" points="398.71 199.25 410.02 205.78 410.02 204.94 398.71 198.41 398.71 199.25"/><polygon class="cls-16" points="398.71 201.17 410.02 207.7 410.02 206.87 398.71 200.34 398.71 201.17"/><polygon class="cls-16" points="398.71 203.1 410.02 209.63 410.02 208.79 398.71 202.26 398.71 203.1"/><polygon class="cls-16" points="398.71 205.02 410.02 211.55 410.02 210.72 398.71 204.19 398.71 205.02"/><polygon class="cls-16" points="398.71 206.95 410.02 213.48 410.02 212.65 398.71 206.12 398.71 206.95"/><polygon class="cls-16" points="398.71 210.78 406.69 215.38 406.69 214.54 398.71 209.93 398.71 210.78"/><polygon class="cls-16" points="398.71 208.87 410.02 215.41 410.02 214.58 398.71 208.04 398.71 208.87"/><polygon class="cls-31" points="416.33 207.97 413.33 212.22 419.32 215.68 416.33 207.97"/><polygon class="cls-27" points="418.72 210.6 415.73 214.86 421.72 218.32 418.72 210.6"/><path class="cls-24" d="M589.06,356.35c0,1.49-1,2.09-2.34,1.35a5.17,5.17,0,0,1-2.33-4.05c0-1.49,1-2.09,2.33-1.34A5.12,5.12,0,0,1,589.06,356.35Z" transform="translate(-168 -137.01)"/><polygon class="cls-40" points="525.6 162.84 528.66 166.34 530.17 163.74 525.6 162.84"/><polygon class="cls-27" points="525.6 162.84 526.44 163.8 526.85 163.08 525.6 162.84"/><path class="cls-27" d="M698.17,300.75a.76.76,0,0,0-.77.07,2.34,2.34,0,0,0-1.06,1.85.73.73,0,0,0,.31.68l22.36,13a.75.75,0,0,1-.31-.69,2.35,2.35,0,0,1,1.06-1.85.78.78,0,0,1,.77-.07Z" transform="translate(-168 -137.01)"/><path class="cls-26" d="M719.77,313.81c.59-.34,1.07-.06,1.08.62a2.39,2.39,0,0,1-1.07,1.85c-.6.33-1.07.06-1.07-.62A2.33,2.33,0,0,1,719.77,313.81Z" transform="translate(-168 -137.01)"/><polygon class="cls-40" points="536.25 164.67 539.32 168.18 540.83 165.56 536.25 164.67"/><polygon class="cls-24" points="536.25 164.67 537.09 165.64 537.51 164.92 536.25 164.67"/><path class="cls-24" d="M708.83,302.58a.76.76,0,0,0-.77.07A2.34,2.34,0,0,0,707,304.5a.73.73,0,0,0,.31.68l14.43,8.4a.75.75,0,0,1-.31-.68,2.35,2.35,0,0,1,1.06-1.85.76.76,0,0,1,.77-.08Z" transform="translate(-168 -137.01)"/><path class="cls-22" d="M722.49,311.05c.59-.34,1.07-.06,1.08.61a2.36,2.36,0,0,1-1.07,1.85c-.59.34-1.07.07-1.07-.61A2.35,2.35,0,0,1,722.49,311.05Z" transform="translate(-168 -137.01)"/><path class="cls-26" d="M690,306.63a.37.37,0,0,1-.22-.31v2.77a.38.38,0,0,0,.22.31l3.11,1.79v-2.77Z" transform="translate(-168 -137.01)"/><polygon class="cls-41" points="529.12 169.1 529.11 171.76 525.12 174.07 525.14 171.41 529.12 169.1"/><path class="cls-27" d="M697.31,306l-4.2,2.44L690,306.6c-.3-.17-.31-.45,0-.62l3.12-1.82a1.23,1.23,0,0,1,1.09,0Z" transform="translate(-168 -137.01)"/><polygon class="cls-38" points="531.11 170.37 531.11 173.03 527.12 175.34 527.13 172.69 531.11 170.37"/><polygon class="cls-42" points="527.12 172.75 527.11 175.28 525.12 174.13 525.14 171.6 527.12 172.75"/><polygon class="cls-40" points="531.5 170.24 527.31 172.68 525.11 171.41 529.31 168.96 531.5 170.24"/><path class="cls-22" d="M702.23,309.76l-3,1.75a1.23,1.23,0,0,1-1.09,0l-3-1.75v2.72l3,1.75a1.18,1.18,0,0,0,1.08,0l3-1.74a.39.39,0,0,0,.21-.3v-2.72A.31.31,0,0,1,702.23,309.76Z" transform="translate(-168 -137.01)"/><path class="cls-24" d="M702.66,309.06c.3.18.3.46,0,.63l-3.12,1.81a1.15,1.15,0,0,1-1.08,0l-3.15-1.81,4.19-2.44Z" transform="translate(-168 -137.01)"/><path class="cls-40" d="M660.4,282.81,615.55,308.7c-1,.6-.91,1.65.29,2.34l26,15a4.5,4.5,0,0,0,4.05.16l44.85-25.89c1-.6.9-1.65-.29-2.34l-26-15A4.49,4.49,0,0,0,660.4,282.81Z" transform="translate(-168 -137.01)"/><polygon class="cls-43" points="496.33 154.18 499.28 152.48 516.45 162.39 513.5 164.09 496.33 154.18"/><polygon class="cls-43" points="490.03 157.83 492.97 156.12 510.14 166.04 507.19 167.73 490.03 157.83"/><polygon class="cls-43" points="483.71 161.47 486.66 159.77 503.83 169.68 500.89 171.38 483.71 161.47"/><polygon class="cls-43" points="477.41 165.11 480.35 163.41 497.52 173.32 494.57 175.02 477.41 165.11"/><polygon class="cls-43" points="471.1 168.75 474.05 167.05 491.21 176.96 488.26 178.66 471.1 168.75"/><polygon class="cls-44" points="496.33 154.18 499.28 152.48 503.57 154.96 500.62 156.66 496.33 154.18"/><polygon class="cls-31" points="490.03 157.83 492.97 156.12 502.98 161.9 500.03 163.6 490.03 157.83"/><polygon class="cls-27" points="483.71 161.47 486.66 159.77 493.96 163.98 491.02 165.68 483.71 161.47"/><polygon class="cls-16" points="477.41 165.11 480.35 163.41 492.74 170.56 489.8 172.26 477.41 165.11"/><polygon class="cls-24" points="471.1 168.75 474.05 167.05 488.64 175.48 485.7 177.18 471.1 168.75"/><polygon class="cls-43" points="484.17 179.6 474.63 185.1 475.87 185.82 485.41 180.31 484.17 179.6"/><polygon class="cls-43" points="481.31 177.95 471.76 183.46 473.01 184.17 482.55 178.66 481.31 177.95"/><polygon class="cls-43" points="478.45 176.29 468.9 181.8 470.15 182.52 479.69 177.01 478.45 176.29"/><polygon class="cls-43" points="475.59 174.64 466.04 180.15 467.29 180.87 476.83 175.36 475.59 174.64"/><polygon class="cls-43" points="472.73 172.99 463.18 178.5 464.43 179.21 473.97 173.7 472.73 172.99"/><polygon class="cls-43" points="469.87 171.33 460.32 176.85 461.56 177.56 471.11 172.05 469.87 171.33"/><polygon class="cls-43" points="464.14 168.03 457.5 171.87 458.74 172.58 465.38 168.75 464.14 168.03"/><polygon class="cls-43" points="467.01 169.68 457.46 175.19 458.7 175.91 468.25 170.4 467.01 169.68"/><polygon class="cls-43" points="496.27 150.75 468.1 167.02 469.34 167.73 497.52 151.47 496.27 150.75"/><polygon class="cls-31" points="494.87 185.91 514.93 174.32 526.35 180.91 506.28 192.5 494.87 185.91"/><polygon class="cls-28" points="506.28 192.5 508.5 182.2 526.35 180.91 506.28 192.5"/><polygon class="cls-29" points="514.93 174.32 512.66 184.6 494.87 185.91 514.93 174.32"/><polygon class="cls-40" points="605.84 201.23 640.5 221.24 596.73 246.51 562.06 226.5 605.84 201.23"/><path class="cls-34" d="M764.45,363.67Z" transform="translate(-168 -137.01)"/><path class="cls-24" d="M764.45,363.67Z" transform="translate(-168 -137.01)"/><path class="cls-24" d="M764.45,363.67l-4.79-7.62a17.73,17.73,0,0,0-5.17,1.87Z" transform="translate(-168 -137.01)"/><path class="cls-26" d="M764.45,363.67l9.95-5.74c-4-2.28-9.76-2.91-14.74-1.87Z" transform="translate(-168 -137.01)"/><path class="cls-24" d="M754.5,369.42l10-5.75-14-1C749.94,365.13,751.42,367.64,754.5,369.42Z" transform="translate(-168 -137.01)"/><path class="cls-27" d="M769.24,371.29a17.56,17.56,0,0,0,5.16-1.87c5.46-3.16,5.46-8.34,0-11.5l-9.95,5.75Z" transform="translate(-168 -137.01)"/><path class="cls-31" d="M769.24,371.29l-4.79-7.62-10,5.74C758.45,371.7,764.26,372.32,769.24,371.29Z" transform="translate(-168 -137.01)"/><path class="cls-42" d="M792.72,362.82a.36.36,0,0,1-.2-.06l-26.1-15.07a.39.39,0,0,1,.4-.68l26.09,15.07a.4.4,0,0,1-.19.74Z" transform="translate(-168 -137.01)"/><path class="cls-42" d="M795.78,361.05a.41.41,0,0,1-.2-.06l-26.09-15.07a.39.39,0,1,1,.39-.68L796,360.31a.4.4,0,0,1-.2.74Z" transform="translate(-168 -137.01)"/><path class="cls-42" d="M798.85,359.28a.39.39,0,0,1-.2-.06l-26.09-15.07a.39.39,0,1,1,.39-.68L799,358.54a.39.39,0,0,1,.15.54A.41.41,0,0,1,798.85,359.28Z" transform="translate(-168 -137.01)"/><g class="cls-17"><path class="cls-28" d="M801.57,385.08v5a2.25,2.25,0,0,1-1.32,1.84l0-5A2.24,2.24,0,0,0,801.57,385.08Z" transform="translate(-168 -137.01)"/><path class="cls-29" d="M752.34,390v-4.93a2.22,2.22,0,0,0,1.32,1.83v4.93A2.18,2.18,0,0,1,752.34,390Z" transform="translate(-168 -137.01)"/><polygon class="cls-28" points="632.24 249.99 632.23 254.83 612.28 266.41 612.29 261.58 632.24 249.99"/><polygon class="cls-29" points="605.63 261.56 605.62 266.36 585.67 254.85 585.69 250.05 605.63 261.56"/><path class="cls-29" d="M780.28,398.71l0,4.68a6.55,6.55,0,0,1-6,0v-4.68a6.67,6.67,0,0,0,6,0Z" transform="translate(-168 -137.01)"/><path class="cls-31" d="M800.2,383.38c1.71,1,1.72,2.59,0,3.59l-20,11.63a6.85,6.85,0,0,1-6.19,0L753.84,387c-1.73-1-1.73-2.6,0-3.6l20-11.63a6.84,6.84,0,0,1,6.2,0Z" transform="translate(-168 -137.01)"/></g><g class="cls-17"><path class="cls-21" d="M842.16,371.27l0,5a2.23,2.23,0,0,1-1.31,1.83v-5A2.29,2.29,0,0,0,842.16,371.27Z" transform="translate(-168 -137.01)"/><path class="cls-23" d="M792.92,376.23l0-4.93a2.26,2.26,0,0,0,1.31,1.84v4.93A2.25,2.25,0,0,1,792.92,376.23Z" transform="translate(-168 -137.01)"/><polygon class="cls-21" points="672.83 236.19 672.81 241.02 652.87 252.61 652.88 247.77 672.83 236.19"/><polygon class="cls-23" points="646.21 247.75 646.2 252.56 626.25 241.04 626.27 236.24 646.21 247.75"/><path class="cls-21" d="M820.2,384.89v4.69a6.59,6.59,0,0,1-6,0l0-4.69a6.24,6.24,0,0,0,3,.72A6.08,6.08,0,0,0,820.2,384.89Z" transform="translate(-168 -137.01)"/><path class="cls-24" d="M840.55,369.57c1.71,1,1.72,2.59,0,3.59l-20,11.64a6.8,6.8,0,0,1-6.18,0l-20.17-11.64c-1.72-1-1.73-2.59,0-3.59l20-11.64a6.84,6.84,0,0,1,6.2,0Z" transform="translate(-168 -137.01)"/></g><text class="cls-45" transform="matrix(-0.87, -0.5, 0.87, -0.5, 622.42, 251.63)">DATA</text><text class="cls-46" transform="matrix(-0.87, -0.5, 0.87, -0.5, 664.77, 239.18)">DATA</text><path class="cls-23" d="M817.54,385.39v5.2a6.72,6.72,0,0,1-3.33-.79l0-5.2A6.92,6.92,0,0,0,817.54,385.39Z" transform="translate(-168 -137.01)"/><path class="cls-28" d="M780.28,398.42l0,5.19a6.66,6.66,0,0,1-3.3.79v-5.19A6.9,6.9,0,0,0,780.28,398.42Z" transform="translate(-168 -137.01)"/><path class="cls-9" d="M824.45,363.24c-3.87,1.72-7.44,14.64-5.32,19.18s5.5,4.9,9.75,3.76,9.07-6.71,10.64-11.88C841.65,367.25,835.47,358.34,824.45,363.24Z" transform="translate(-168 -137.01)"/><path class="cls-3" d="M820.2,519v1c-2,1.19-6.6.56-7.79,0-.78-1.19-2.91-.87-4.1-.4-4.57.4-6.24-.27-7.76-1.39-.77-.57-2.16-2-2-3.6C804,515.9,820.2,519,820.2,519Z" transform="translate(-168 -137.01)"/><path class="cls-3" d="M812.11,511.12a80.44,80.44,0,0,1-7.93,1.83c-2.95.42-5.06-.08-5.75,1s.84,3.79,3.44,4.7,7.93-.13,9.9.28,7,1.33,8.14.11,0-7.2,0-7.2Z" transform="translate(-168 -137.01)"/><path class="cls-3" d="M839.75,504.56l-8.92-10c-3.56-1-7.3-1.23-6.83,2.06.42,2.91,5.06,4.18,8.25,7l2.94,2.6c2.12,1.88,4.82.24,4.56-1.69" transform="translate(-168 -137.01)"/><path class="cls-9" d="M831.31,379.45a8,8,0,0,1-1.11,1,20,20,0,0,1-7.36,3.6,14.79,14.79,0,0,1-1.45.31l.23,2.58c3,.83,5.93-.44,8-1,1.55-.43,4-.83,4-2.46l-2.28-4Z" transform="translate(-168 -137.01)"/><path class="cls-3" d="M835.38,506.25l-2.94-2.6c-3.18-2.84-7.83-4.11-8.25-7h0v0h0a3.59,3.59,0,0,0,0,1c.42,2.91,5.06,4.19,8.25,7l2.94,2.61c2.5,2.21,5.12.63,4.55-2.64.25,1.91-2.44,3.55-4.56,1.67" transform="translate(-168 -137.01)"/><path class="cls-47" d="M839.7,435.16c3.08,4.35-4.63,16.42-2.52,31.45,1.43,10.2,4.21,27.3,3.55,37-.12,1.75-7,3-8.87-5.5-3.16-14.47-7.13-23.51-8.53-34.74l.74-32.57Z" transform="translate(-168 -137.01)"/><path class="cls-48" d="M829.84,433.57c.85,13.54-8.84,30.1-8.2,41,.66,11.26-.57,25-.59,37.16,0,0-10,4.72-10.41-2.58-1.46-23.88-6-31.33.13-75Z" transform="translate(-168 -137.01)"/><path class="cls-15" d="M811.8,420.47a139.12,139.12,0,0,1,2.08-25.89,17.66,17.66,0,0,1,4.25-4.33l3.19-3.86q3.39-.84,6.71-1.87a18.79,18.79,0,0,1,11,0h0c4.7,2,5.6,5.16,3.51,11.23.05.27-4.13,17-4.67,22.07-.05.5,3.57,14,4.35,19.55,0,0-3.43,3.14-4.38,3.93-7,8.67-29.83-1.84-30.69-6.46C806.82,433.11,809.62,427.74,811.8,420.47Z" transform="translate(-168 -137.01)"/><path class="cls-3" d="M823,364.05a8,8,0,0,0-1.85,3.3,15.49,15.49,0,0,0-.58,4.93c-.07,1.16-.54,1.81-.3,2.38s1.66-2.57,3-2.9,1.16,3.75-1.8,4.9c-1.28,1.93-.26,6.68.45,7.72s5.09,2.35,8.79,1.05,6.15-5,9.21-9.93,0-8.44,0-8.44c1.52-3.35-10-7.66-14.72-7.79C822.26,359.34,823,364.05,823,364.05Z" transform="translate(-168 -137.01)"/><path class="cls-16" d="M828.42,397.84c1.48-5.13-4.21-11.43-9.28-9.75-1.8.6-3.33,1.19-4.28,2.79-2.34,3.94-2.74,17.4-4.67,25.54-.29.07-.6.11-.9.17,3.1,4.19,4.57,6.3,7.31,10.13a4.83,4.83,0,0,0,.59-.23C818,426.06,828.4,397.9,828.42,397.84Z" transform="translate(-168 -137.01)"/><path class="cls-3" d="M590.66,554.23l8.39-.75a87.14,87.14,0,0,0,8.53,2c3.17.46,5.43-.07,6.19,1.06a1.31,1.31,0,0,1,.18.78h0v0c.15,1.66-1.32,3.23-2.14,3.83-1.64,1.2-3.44,1.93-8.35,1.5-1.28-.51-3.57-.85-4.41.43-1.29.61-6.2,1.28-8.39,0V562C589.38,560.65,590.66,554.23,590.66,554.23Z" transform="translate(-168 -137.01)"/><path class="cls-7" d="M586.8,477.14c-2.76,14.26,7.12,29.85,6.32,41.37-1.1,15.78-1.7,22.67-3.34,35.52,0,0,6.41,3.8,11.14-.55,4.83-25.17,7-29.68,6.29-75.74Z" transform="translate(-168 -137.01)"/><path class="cls-30" d="M625.77,411.56c2.84,3.3.46,16.86-3.52,20.16s-7.26,2.12-10.7-.81-5.46-10.22-4.64-15.72C608,407.69,617.7,402.15,625.77,411.56Z" transform="translate(-168 -137.01)"/><path class="cls-15" d="M626.76,412.94a8.31,8.31,0,0,1,.26,3.89,16.2,16.2,0,0,1-1.64,4.83c-.45,1.11-.29,1.91-.77,2.35s-.4-3.12-1.52-4-2.73,3-.48,5.35c.32,2.35-2.71,6.31-3.82,7s-5.77-.06-8.63-2.9-3.5-7.38-4.17-13.28,3.71-7.83,3.71-7.83c.08-3.78,12.63-2.74,17.11-.75C629.53,408.9,626.76,412.94,626.76,412.94Z" transform="translate(-168 -137.01)"/><path class="cls-3" d="M606.63,561.82l8.38-.75s5.37,1.51,8.53,2,5.44-.08,6.2,1.05a1.31,1.31,0,0,1,.18.78h0v0c.15,1.67-1.32,3.23-2.15,3.84-1.63,1.19-3.43,1.92-8.34,1.49-1.29-.51-3.58-.85-4.42.43-1.28.61-6.19,1.29-8.38,0v-1.1C605.35,568.24,606.63,561.82,606.63,561.82Z" transform="translate(-168 -137.01)"/><path class="cls-7" d="M593.14,480.74c-.91,14.54,11,30.44,11.68,42.18.95,16.09,1,27.46,1,40.56,0,0,10.7,5.07,11.18-2.76,1.57-25.67,3.26-32.41-3.37-79.38Z" transform="translate(-168 -137.01)"/><path class="cls-12" d="M621.16,434.11c-6-3-15.66-11.14-23.57-.46-7.42,10-10.47,40.1-11.32,46.1-1.14,8.11,21.47,12.46,26.52,12.24a2.11,2.11,0,0,0,2.15-1.7c.43-1.48-.78-2.54-.45-3.9a5.71,5.71,0,0,1,1.18-2.07,4.7,4.7,0,0,0,1.09-2.11c.2-1.29-.61-2.5-.75-3.79a7.7,7.7,0,0,1,.38-2.81c2.05-7.64,5.62-14.71,7.6-22.4,1.34-5.21,3.27-13.48-1-17.79A4.66,4.66,0,0,0,621.16,434.11Z" transform="translate(-168 -137.01)"/><path class="cls-12" d="M624.83,438.14c4.79,15.17,5.23,22.69,9.92,28.69.34.44,13.28,14.31,13.28,14.31a9.14,9.14,0,0,1-6.26,4c-7.22-3.1-15.39-14.46-17.59-16.9-1.27-1.41-8.41-14.49-9.48-21.14S622.83,432.14,624.83,438.14Z" transform="translate(-168 -137.01)"/><path class="cls-47" d="M809.29,427.58a43.68,43.68,0,0,0,7.9-1.08s6.3-13.52,8-20.07c0,0-2.27,13.92-3.82,18.44s-3.68,6.29-7,5.89a46.63,46.63,0,0,1-5.85-1.06Z" transform="translate(-168 -137.01)"/><path class="cls-1" d="M547.3,503.86c2.11.1,4.23.21,6.34.22.56,0,1.17-.2,1.55.1s.7,1.77.9,2.38c.27.8,1,2.41.95,3.24.11-1.05.08-3.41.84-4.47a21.77,21.77,0,0,1,1.63,2.24,5.75,5.75,0,0,1,.4-2.68,7.67,7.67,0,0,0,2.52,1.12c3.86,1.59,8.25,3.9,10.44,7.63,2.36,4-1.37,8.33-4.3,11a16.36,16.36,0,0,1-5.06,3.17c-.67.25-3.49.69-3.46,1.76a18.17,18.17,0,0,0-1.64-1.92c0,.66-.55,1.26-.35,1.87-1.08.36-2.33.19-3.36.76-.25-1.18-1.37-2.24-1.73-3.4a11.36,11.36,0,0,0-1.11,3.08,8.6,8.6,0,0,0-2.21-.06,52.34,52.34,0,0,1-9.35-.6,53,53,0,0,0-5.62-.37,25.59,25.59,0,0,0-.88-3.33c-.31-1.37-.57-2.78-.87-4.14a4.64,4.64,0,0,0-.54,1.54c-.57,1.73-1.25,3.53-1.95,5.21-.61-.33-7.74-1.14-7.71-1.53a23.25,23.25,0,0,0,.14-4,15.59,15.59,0,0,1-2,2.92c-.71-1.17-.3-3.85-.6-5.23-.7.58-.89,1.63-1.33,2.41-.31.54-.83,1-.83,1.61a44.63,44.63,0,0,1-4.88-2.92c-1-.66-3-1.49-3.69-2.53-.46-.72-.08-2-.48-2.72a3.16,3.16,0,0,0-1,1.25c-.36-.26-5.32-4.05-5.05-4.35,2.59-2.84,5.15-5.41,8.63-7.12.65-.32,1.28-.81,1.9-.6,1.25.42,2.22,2.25,3.19,3.05a35.29,35.29,0,0,1-.29-4.95,21.15,21.15,0,0,1,5.33-.88c1.64,0,3.34-.21,5-.08a9.33,9.33,0,0,1,2.25.15c1.35.57,2.24,4.7,2.61,6.13.76-1.33.42-3.4,1.16-4.9s2.33-.56,3.42-1.05c-.32.6.18,1.93.4,2.55.39-.67.4-1.62,1-2.07a17.94,17.94,0,0,1,2,4.3c.51-.81.46-2,.83-2.88.18-.45.47-.85.6-1.28a37.38,37.38,0,0,0,5.88.37Z" transform="translate(-168 -137.01)"/><path class="cls-2" d="M508.36,513.42c2.86-.63,6.53.48,9.36,1,3.09.53,6.16,1.14,9.25,1.66a101,101,0,0,0,17.35,1.72c11.88,0,24.1.83,35.88-1.07.8-.13.7-1.52-.14-1.45-12.19.94-24.31,1.65-36.55,1.7a111.67,111.67,0,0,1-18.59-2c-5.49-.91-11.16-2.11-16.72-2.32-.5,0-.42.87.16.74Z" transform="translate(-168 -137.01)"/><path class="cls-49" d="M410.06,206.48a83.76,83.76,0,0,1,28.48,2.12,100.32,100.32,0,0,1,26.58,11,120.62,120.62,0,0,1,23,17.66,168.77,168.77,0,0,1,18.92,22c5.72,7.85,10.88,16.08,15.83,24.43.62,1,1.23,2.08,1.86,3.12a.34.34,0,0,0,.58-.34c-2.26-4.37-4.76-8.62-7.33-12.81s-5.26-8.33-8.1-12.36a179,179,0,0,0-18.71-22.58,126.22,126.22,0,0,0-22.59-18.3,104.27,104.27,0,0,0-26.41-11.89,80.54,80.54,0,0,0-28.54-3.11c-1.19.1-2.38.22-3.57.38-.45.06-.46.76,0,.71Z" transform="translate(-168 -137.01)"/><path class="cls-49" d="M504.56,276.68c1.52,1.16,3.17,2.14,4.79,3.16s3.17,2,4.75,3l9.57,6.11a.94.94,0,0,0,1.38-.79c.15-1.16.4-2.3.54-3.46s.27-2.31.4-3.46c.28-2.35.57-4.7.82-7.05.48-4.65,1-9.3,1.37-14,.05-.65.16-1.32.16-2s0-1.23,0-1.86l.19-4.08c0-.77-1.26-1-1.39-.18l-.54,3.41c-.19,1.2-.49,2.36-.63,3.57-.28,2.35-.58,4.69-.82,7-.47,4.66-.93,9.31-1.35,14l-.35,4c-.12,1.36-.13,2.72-.22,4.08l1.37-.8-9.84-5.64-4.85-2.81c-1.66-1-3.28-2-5-2.78a.32.32,0,0,0-.32.55Z" transform="translate(-168 -137.01)"/><path class="cls-49" d="M826.57,166.52a85.59,85.59,0,0,0-26.16,2,93.74,93.74,0,0,0-58.89,41.9,85.74,85.74,0,0,0-5.79,10.92,38.56,38.56,0,0,0-3.56,12.91,32.13,32.13,0,0,0,0,3.4.46.46,0,0,0,.92,0c.21-8.68,4-16.9,8.36-24.25a94.76,94.76,0,0,1,14.29-18.52,93.15,93.15,0,0,1,18.43-14.41,94.85,94.85,0,0,1,36.31-12.42,120.61,120.61,0,0,1,12.89-.72c1.07,0,2.13,0,3.2,0,.53,0,.51-.77,0-.81Z" transform="translate(-168 -137.01)"/><path class="cls-49" d="M729.83,215.67a8.21,8.21,0,0,0-.4,1.53c0,.49,0,1-.07,1.47-.05,1.05-.08,2.11-.09,3.17,0,2.07,0,4.15.13,6.22a101.68,101.68,0,0,0,1.41,12.43.77.77,0,0,0,1.39.18A49.38,49.38,0,0,1,738.73,230a58.78,58.78,0,0,1,9-8.73,45.82,45.82,0,0,1,5.8-4c.72-.42.08-1.47-.65-1.11a44.78,44.78,0,0,0-10.54,7.29,49.74,49.74,0,0,0-8.11,10,48.36,48.36,0,0,0-3.32,6.44l1.4.19a99.7,99.7,0,0,1-1.58-12.27c-.13-2-.21-4.07-.22-6.1,0-1,0-2,0-3.05,0-.49,0-1,0-1.47a11.57,11.57,0,0,0-.24-1.53c0-.26-.43-.22-.49,0Z" transform="translate(-168 -137.01)"/><path class="cls-49" d="M409.77,556a32.31,32.31,0,0,0,5.74,5.21,65.75,65.75,0,0,0,6.51,4.34,78.3,78.3,0,0,0,14.12,6.38,131.51,131.51,0,0,0,31.18,6.2,240.25,240.25,0,0,0,36.29.44,254.25,254.25,0,0,0,36.44-4.92,233.63,233.63,0,0,0,35.38-10.18,23.51,23.51,0,0,0,4-1.89.66.66,0,0,0-.51-1.2,66.25,66.25,0,0,0-8.62,2.82c-2.86,1-5.74,1.95-8.64,2.85q-8.69,2.69-17.56,4.74a250,250,0,0,1-36,5.63,254.94,254.94,0,0,1-36.35.36,143.91,143.91,0,0,1-31.15-5c-9.95-2.88-19.59-7.34-27.56-14-1-.81-1.91-1.57-2.92-2.31-.32-.24-.61.25-.4.51Z" transform="translate(-168 -137.01)"/><path class="cls-49" d="M547.73,557.54a23.63,23.63,0,0,0,6,2.76,44.49,44.49,0,0,0,6.43,1.72,50.15,50.15,0,0,0,13.17.8,49.64,49.64,0,0,0,7.48-1.12l-1-1.65q-4.26,4.22-8.48,8.46l-4.22,4.25c-1.4,1.4-2.94,2.75-4.19,4.28l1.64,1,1.15-2.82c.3-.74-.83-1.12-1.23-.52l-1.71,2.59c-.66,1,.73,1.85,1.54,1.19,1.53-1.26,2.86-2.81,4.26-4.21l4.22-4.25q4.23-4.25,8.42-8.52a1,1,0,0,0-1-1.65,48.6,48.6,0,0,1-25.33-.67c-2.34-.7-4.56-1.71-6.89-2.38-.49-.14-.71.51-.33.79Z" transform="translate(-168 -137.01)"/><path class="cls-49" d="M978.54,504.23a96.56,96.56,0,0,1-22.38,12.88,122.22,122.22,0,0,1-24.81,7.21,157.72,157.72,0,0,1-26.92,2.46,253.06,253.06,0,0,1-30.27-1.62c-10.11-1.09-20.16-2.6-30.2-4.15-1.24-.19-2.48-.43-3.72-.55-.84-.09-1,1.34-.2,1.47l2.62.43a.6.6,0,0,0,.32-1.16l-2.54-.72-.4,1.45c2.49.52,5.06.8,7.57,1.18l7.59,1.13c5.09.73,10.18,1.42,15.29,2a271,271,0,0,0,30.66,2,163.18,163.18,0,0,0,27.57-2.11,125.21,125.21,0,0,0,25.3-6.85,96.65,96.65,0,0,0,22.71-12.49c.84-.63,1.67-1.27,2.48-1.93.48-.38-.19-1-.67-.67Z" transform="translate(-168 -137.01)"/><path class="cls-49" d="M840,523.26a12.43,12.43,0,0,0,2.77,2.59l3,2.57,6,5.13c.59.5,1.42-.3.86-.87-4.37-4.46-8.72-8.93-13.11-13.37l-.32,1.19,9.18-2.76,4.52-1.36a28.31,28.31,0,0,0,4.56-1.5c.63-.31.37-1.48-.37-1.38a27.43,27.43,0,0,0-4.5,1.28L848,516.24c-3,1-6.09,1.94-9.14,2.88a.73.73,0,0,0-.31,1.2c4.4,4.43,8.83,8.82,13.26,13.23l.86-.87-6.2-5.13-3-2.53a12.47,12.47,0,0,0-3-2.26c-.29-.12-.54.26-.39.5Z" transform="translate(-168 -137.01)"/><text class="cls-50" transform="translate(10 78.99)"><tspan class="cls-51">T</tspan><tspan x="25.61" y="0">echnical</tspan></text><text class="cls-52" transform="translate(28.82 116.62)"><tspan class="cls-53">M</tspan><tspan x="20.65" y="0">achine </tspan><tspan class="cls-53" x="96.3" y="0">L</tspan><tspan x="109.2" y="0">earning</tspan><tspan x="48.55" y="34.13">App Dev</tspan><tspan class="cls-54" x="45.93" y="68.27">W</tspan><tspan x="67.94" y="68.27">eb Dev</tspan></text><text class="cls-50" transform="translate(670 50.99)">C<tspan class="cls-55" x="39.1" y="0">r</tspan><tspan x="55.27" y="0">eati</tspan><tspan class="cls-56" x="141.89" y="0">v</tspan><tspan x="168.58" y="0">es</tspan></text><text class="cls-50" transform="translate(727 354.99)">Public Relations</text><text class="cls-50" transform="translate(0 407.99)">Sponsorship</text></svg>