<svg xmlns="http://www.w3.org/2000/svg" id="Layer_1" data-name="Layer 1" viewBox="0 0 800 800"><defs><style>.cls-1{fill:#0074b5}</style></defs><title>Untitled-3</title><g id="post-linkedin"><path d="M604,164H196a51.15,51.15,0,0,0-51,51V623a51.15,51.15,0,0,0,51,51H604a51.15,51.15,0,0,0,51-51V215A51.15,51.15,0,0,0,604,164ZM298,597H221V367h77ZM259.75,324.18a45.9,45.9,0,1,1,45.9-45.9A45.71,45.71,0,0,1,259.75,324.18ZM579,597H502V461.85c0-20.4-18-38.25-38.5-38.25S425,441.45,425,461.85V597H349V367h77v30.67c12.75-20.45,40.8-35.78,63.75-35.78,48.45,0,89.25,40.89,89.25,89.44Z" class="cls-1"/></g></svg>