<svg xmlns="http://www.w3.org/2000/svg" id="Layer_1" data-name="Layer 1" viewBox="0 0 800 800"><defs><style>.cls-1{fill:#662d91}</style></defs><title>Untitled-3</title><path d="M582.18,604a42.55,42.55,0,0,0,29.13-11l-141-141c-3.39,2.42-6.67,4.78-9.77,7q-15.83,11.65-25.7,18.19t-26.25,13.34q-16.4,6.81-30.57,6.8h-.55q-14.18,0-30.56-6.8T320.6,477.12q-9.86-6.53-25.7-18.19c-2.94-2.16-6.2-4.53-9.73-7.06L144.09,593a42.53,42.53,0,0,0,29.13,11Z" class="cls-1"/><path d="M157,363.91a146.75,146.75,0,0,1-28-24.11V553.87l124-124Q215.8,403.88,157,363.91Z" class="cls-1"/><path d="M597.89,363.91q-56.62,38.32-96.25,66l124,124V339.8A152.44,152.44,0,0,1,597.89,363.91Z" class="cls-1"/><path d="M581.66,214H173.74q-21.35,0-32.83,14.41t-11.5,36q0,17.44,15.24,37.83t32.42,32q9.42,6.66,56.81,39.49c17.06,11.82,31.89,22.12,44.64,31,10.86,7.57,20.23,14.13,28,19.57.89.62,2.29,1.62,4.14,2.95s4.53,3.25,7.64,5.5q9,6.51,15,10.53c4,2.69,8.77,5.68,14.41,9a84.23,84.23,0,0,0,15.94,7.48,44.11,44.11,0,0,0,13.85,2.5H378a44.16,44.16,0,0,0,13.86-2.5,83.26,83.26,0,0,0,15.93-7.48q8.46-5,14.42-9t15-10.53c3.11-2.25,5.64-4.07,7.64-5.5,1.85-1.33,3.25-2.32,4.14-2.95l28-19.49Q511.44,381,578.62,334.31a131.79,131.79,0,0,0,33.81-34.08q13.56-20,13.57-41.84a42.5,42.5,0,0,0-13.16-31.32Q599.67,214.05,581.66,214Z" class="cls-1"/></svg>